<svg xmlns="http://www.w3.org/2000/svg" viewBox="0 0 1437 274"><defs><style>.cls-1{fill:none;}.cls-2{fill:#c9c4c3;}</style></defs><title>资源 3</title><g id="图层_2" data-name="图层 2"><g id="图层_1-2" data-name="图层 1"><rect class="cls-1" width="1437" height="274"/><circle class="cls-2" cx="1248" cy="260.4" r="3.1" transform="translate(-15.4 430.9) rotate(-19.5)"/><circle class="cls-2" cx="150.6" cy="217.8" r="2.8" transform="translate(-111.9 252.9) rotate(-62.9)"/><circle class="cls-2" cx="330.1" cy="139" r="3.2" transform="translate(34.8 341.7) rotate(-57.3)"/><circle class="cls-2" cx="586.5" cy="165.9" r="2.9" transform="matrix(0.02, -1, 1, 0.02, 408.3, 748.75)"/><circle class="cls-2" cx="1133.6" cy="147.7" r="2.8" transform="translate(262.5 888) rotate(-47.8)"/><circle class="cls-2" cx="245.2" cy="262.2" r="3" transform="translate(-86.8 125.7) rotate(-24.6)"/><circle class="cls-2" cx="636.2" cy="187.6" r="3.1" transform="translate(97 573.8) rotate(-52)"/><circle class="cls-2" cx="566.3" cy="174.4" r="2.9" transform="translate(45.2 456.5) rotate(-45.5)"/><circle class="cls-2" cx="1306.8" cy="258.8" r="3" transform="translate(765.3 1475.9) rotate(-77.2)"/><circle class="cls-2" cx="267.4" cy="39.1" r="3.1" transform="translate(98.6 250.2) rotate(-59.7)"/><circle class="cls-2" cx="173.4" cy="218.8" r="3" transform="translate(-65.1 363.8) rotate(-82.9)"/><circle class="cls-2" cx="722" cy="159.5" r="2.9" transform="translate(5.6 342.5) rotate(-26.8)"/><circle class="cls-2" cx="1229.2" cy="219.1" r="3.3" transform="translate(-14.8 112.4) rotate(-5.2)"/><circle class="cls-2" cx="424.7" cy="148.4" r="2.9" transform="translate(-9.9 264.7) rotate(-34.3)"/><circle class="cls-2" cx="69.2" cy="117.5" r="2.8" transform="translate(-64.9 92.7) rotate(-49)"/><circle class="cls-2" cx="951" cy="153.4" r="3.1" transform="translate(39.9 466.1) rotate(-28.1)"/><circle class="cls-2" cx="785.3" cy="162.7" r="2.8" transform="translate(108.8 593.4) rotate(-44.2)"/><circle class="cls-2" cx="826.4" cy="52.5" r="2.8" transform="translate(578.4 842.6) rotate(-76.2)"/><circle class="cls-2" cx="1424.8" cy="127.7" r="2.8" transform="translate(1188.9 1538.6) rotate(-85.6)"/><circle class="cls-2" cx="58.5" cy="12.2" r="3.2" transform="translate(37.5 68.1) rotate(-81.3)"/><circle class="cls-2" cx="429.1" cy="173.3" r="2.9" transform="translate(-1.2 3.1) rotate(-0.4)"/><circle class="cls-2" cx="675.4" cy="45.7" r="3.1" transform="matrix(0.62, -0.79, 0.79, 0.62, 223.64, 549.84)"/><circle class="cls-2" cx="436" cy="214.8" r="2.8" transform="translate(-49.1 246) rotate(-29.9)"/><circle class="cls-2" cx="1195.2" cy="187.4" r="2.8" transform="translate(640.1 1262.4) rotate(-71.6)"/><circle class="cls-2" cx="447.4" cy="188.3" r="3.3" transform="translate(52.7 470.8) rotate(-58.4)"/><circle class="cls-2" cx="203.3" cy="260.1" r="2.9" transform="translate(-120 193.1) rotate(-40.3)"/><circle class="cls-2" cx="411.8" cy="217.1" r="2.9" transform="matrix(0.6, -0.8, 0.8, 0.6, -10.11, 413.77)"/><circle class="cls-2" cx="441.4" cy="60.3" r="2.9" transform="translate(85.6 328.4) rotate(-44.8)"/><circle class="cls-2" cx="1341.2" cy="154.1" r="3.3" transform="translate(542.5 1242.4) rotate(-60.3)"/><circle class="cls-2" cx="199.3" cy="41.6" r="3.2" transform="translate(17.1 132.4) rotate(-38.3)"/><circle class="cls-2" cx="594.4" cy="143.2" r="3" transform="translate(51.9 425.1) rotate(-41)"/><circle class="cls-2" cx="168.8" cy="136.2" r="3.3" transform="translate(-46.2 107.8) rotate(-31.4)"/><circle class="cls-2" cx="1318" cy="56.6" r="3" transform="translate(863 1294.8) rotate(-72.3)"/><circle class="cls-2" cx="573.4" cy="33.8" r="3.2" transform="translate(284.1 530) rotate(-63.1)"/><circle class="cls-2" cx="582.8" cy="105.5" r="3" transform="translate(219 572.9) rotate(-62.4)"/><circle class="cls-2" cx="739.7" cy="126.5" r="2.9" transform="translate(-10.7 115.3) rotate(-8.9)"/><circle class="cls-2" cx="64.2" cy="33" r="2.8" transform="translate(-4 56.5) rotate(-46.1)"/><circle class="cls-2" cx="604.2" cy="119.2" r="3.3" transform="translate(34.6 353.2) rotate(-33.5)"/><circle class="cls-2" cx="984.9" cy="100.8" r="3" transform="translate(309.5 824.6) rotate(-52.8)"/><circle class="cls-2" cx="720.7" cy="89.9" r="3.3" transform="translate(606.3 807.1) rotate(-88)"/><circle class="cls-2" cx="1267.7" cy="262.8" r="2.8" transform="translate(569 1352.7) rotate(-69)"/><circle class="cls-2" cx="727.9" cy="46.3" r="3" transform="translate(-1.4 35.4) rotate(-2.8)"/><circle class="cls-2" cx="1173.8" cy="127.3" r="3" transform="translate(-5.6 72.6) rotate(-3.5)"/><circle class="cls-2" cx="495.6" cy="28.8" r="2.8" transform="translate(33.9 211.4) rotate(-24.9)"/><circle class="cls-2" cx="600.9" cy="93" r="3" transform="translate(115 458.5) rotate(-45.7)"/><circle class="cls-2" cx="549.2" cy="155" r="2.8" transform="matrix(0.53, -0.85, 0.85, 0.53, 128.1, 540.09)"/><circle class="cls-2" cx="931.9" cy="31.3" r="3.2" transform="translate(49.9 333.8) rotate(-20.9)"/><circle class="cls-2" cx="1255.2" cy="11" r="2.8" transform="translate(43 336.8) rotate(-15.5)"/><circle class="cls-2" cx="571.8" cy="238.5" r="2.9" transform="translate(254.7 770.8) rotate(-81.9)"/><circle class="cls-2" cx="481.1" cy="70.7" r="3.3" transform="translate(29.9 252.1) rotate(-30.3)"/><circle class="cls-2" cx="11.7" cy="221.8" r="3" transform="translate(-210.3 230.7) rotate(-89.3)"/><circle class="cls-2" cx="763.2" cy="170" r="2.8" transform="translate(197.2 709.5) rotate(-56.2)"/><circle class="cls-2" cx="1376.1" cy="176.4" r="3.1" transform="translate(454.5 1213.4) rotate(-55.7)"/><circle class="cls-2" cx="1335.8" cy="95.7" r="3.2" transform="translate(67.7 526.3) rotate(-22.9)"/><circle class="cls-2" cx="187.2" cy="174.8" r="2.9" transform="translate(-45.1 66.9) rotate(-18.1)"/><circle class="cls-2" cx="209.9" cy="78.1" r="2.8" transform="translate(-6.8 134.8) rotate(-35.1)"/><circle class="cls-2" cx="179.1" cy="197.5" r="2.9" transform="translate(-86.3 171.7) rotate(-42.2)"/><circle class="cls-2" cx="182.5" cy="261.8" r="2.8" transform="translate(-31.7 25.2) rotate(-7.3)"/><circle class="cls-2" cx="52.3" cy="264.1" r="3" transform="translate(-110.2 49.4) rotate(-25.9)"/><circle class="cls-2" cx="718" cy="116.2" r="2.9" transform="translate(29.8 351.7) rotate(-28.1)"/><circle class="cls-2" cx="908.9" cy="121.7" r="2.9" transform="translate(41.3 418.7) rotate(-26.5)"/><circle class="cls-2" cx="1033.8" cy="32.6" r="2.8" transform="translate(15.8 215.4) rotate(-12)"/><circle class="cls-2" cx="803.7" cy="176.9" r="3.2" transform="translate(376.6 880.3) rotate(-71.1)"/><circle class="cls-2" cx="1284.6" cy="88" r="2.9" transform="translate(1143.8 1367.9) rotate(-87.6)"/><circle class="cls-2" cx="1039.9" cy="261.3" r="3.1" transform="translate(367.2 1096.3) rotate(-65.2)"/><circle class="cls-2" cx="38.3" cy="34.6" r="2.8" transform="translate(-9.1 14.2) rotate(-18.8)"/><circle class="cls-2" cx="234.3" cy="167.3" r="3.1" transform="matrix(0.98, -0.19, 0.19, 0.98, -27.49, 47.49)"/><circle class="cls-2" cx="327.1" cy="243.2" r="3.1" transform="translate(-18.8 458.9) rotate(-68.6)"/><circle class="cls-2" cx="314.1" cy="262.4" r="2.8" transform="translate(-94.6 239.7) rotate(-36.7)"/><circle class="cls-2" cx="562" cy="218.2" r="3" transform="translate(112.2 619.6) rotate(-63)"/><circle class="cls-2" cx="1422.9" cy="171.2" r="3.1" transform="translate(710 1414.5) rotate(-67)"/><circle class="cls-2" cx="118.6" cy="175.3" r="3.1" transform="translate(-91 205.1) rotate(-64)"/><circle class="cls-2" cx="1297.3" cy="123.6" r="3.3" transform="translate(860 1351.1) rotate(-75.8)"/><circle class="cls-2" cx="1144.5" cy="168.4" r="3.2" transform="translate(109.1 684.4) rotate(-34.9)"/><circle class="cls-2" cx="68.5" cy="187.3" r="3.2" transform="translate(-45.7 23.8) rotate(-14.8)"/><circle class="cls-2" cx="298.1" cy="98.3" r="2.9" transform="translate(-15.4 115.2) rotate(-21.3)"/><circle class="cls-2" cx="1044.1" cy="217.1" r="3" transform="translate(-21.3 171.4) rotate(-9.3)"/><circle class="cls-2" cx="1174.1" cy="50.6" r="3.1" transform="translate(476.6 996.4) rotate(-56.1)"/><circle class="cls-2" cx="11.1" cy="122.4" r="3" transform="translate(-111.5 131.9) rotate(-89.3)"/><circle class="cls-2" cx="1294" cy="53.7" r="2.9" transform="translate(934.1 1297.8) rotate(-76.2)"/><circle class="cls-2" cx="753.3" cy="55.4" r="2.8" transform="translate(131.2 483.8) rotate(-38.8)"/><circle class="cls-2" cx="317.7" cy="116" r="3" transform="translate(-10.1 32.8) rotate(-5.8)"/><circle class="cls-2" cx="974.3" cy="55.4" r="3.2" transform="translate(267.9 728.7) rotate(-46.9)"/><circle class="cls-2" cx="481.7" cy="11.2" r="3.2" transform="translate(38.7 200.6) rotate(-24.5)"/><circle class="cls-2" cx="1175.5" cy="10.2" r="3.1" transform="translate(3.2 97.1) rotate(-4.7)"/><circle class="cls-2" cx="525.4" cy="207.8" r="2.8" transform="translate(93.7 572.3) rotate(-61.8)"/><circle class="cls-2" cx="577.2" cy="82.6" r="3" transform="translate(5.3 196.3) rotate(-19.4)"/><circle class="cls-2" cx="1402.8" cy="202.8" r="3.2" transform="translate(352.6 1154.6) rotate(-50.4)"/><circle class="cls-2" cx="852.9" cy="190.8" r="3.2" transform="translate(97.3 630) rotate(-42.8)"/><circle class="cls-2" cx="536.6" cy="116.9" r="3.2" transform="translate(-12 92.1) rotate(-9.7)"/><circle class="cls-2" cx="1348.3" cy="114.2" r="3.2" transform="translate(277.9 942) rotate(-42.6)"/><circle class="cls-2" cx="805.9" cy="238.7" r="3.3" transform="translate(334.8 934.8) rotate(-72.4)"/><circle class="cls-2" cx="364.2" cy="12.7" r="3" transform="translate(82 243.3) rotate(-41.3)"/><circle class="cls-2" cx="280.3" cy="81" r="2.8" transform="translate(15.3 203) rotate(-40.8)"/><circle class="cls-2" cx="1101.9" cy="121.3" r="3.3" transform="translate(973.7 1222.4) rotate(-89.6)"/><circle class="cls-2" cx="907.3" cy="167.2" r="2.8" transform="translate(47 500.5) rotate(-31.6)"/><circle class="cls-2" cx="1213.9" cy="201.6" r="3.1" transform="translate(48.8 597.4) rotate(-28.2)"/><circle class="cls-2" cx="1106.6" cy="146.3" r="2.9" transform="translate(221.7 826.7) rotate(-45.1)"/><circle class="cls-2" cx="1363.6" cy="261.7" r="3.2" transform="translate(863.6 1557.1) rotate(-79.8)"/><circle class="cls-2" cx="1275.2" cy="169.2" r="3.1" transform="translate(3.5 362.7) rotate(-16.2)"/><circle class="cls-2" cx="754.6" cy="189.5" r="3" transform="translate(80.8 578.4) rotate(-44.1)"/><circle class="cls-2" cx="1295.9" cy="213.2" r="3.2" transform="translate(697.4 1382.2) rotate(-72.2)"/><circle class="cls-2" cx="12.2" cy="11.7" r="3.1" transform="translate(-0.5 0.6) rotate(-2.6)"/><circle class="cls-2" cx="88.3" cy="244.8" r="3.1" transform="translate(-169.9 212.3) rotate(-63)"/><circle class="cls-2" cx="1253.6" cy="176.5" r="3.1" transform="translate(54.3 581.9) rotate(-26.7)"/><circle class="cls-2" cx="1157.3" cy="65.1" r="2.9" transform="matrix(0.85, -0.52, 0.52, 0.85, 136.57, 614.39)"/><circle class="cls-2" cx="1109.8" cy="66" r="3.2" transform="translate(134 598.7) rotate(-32)"/><circle class="cls-2" cx="1425.1" cy="34.5" r="2.9" transform="translate(208.9 778.1) rotate(-32.8)"/><circle class="cls-2" cx="653.9" cy="262.6" r="3.3" transform="translate(162.1 767.2) rotate(-67.6)"/><circle class="cls-2" cx="1263.1" cy="112.2" r="3.1" transform="translate(406.6 1047.2) rotate(-52.6)"/><circle class="cls-2" cx="54.6" cy="76.3" r="2.8" transform="translate(-10 8.3) rotate(-7.9)"/><circle class="cls-2" cx="352.9" cy="243.2" r="2.9" transform="translate(-11.9 18.2) rotate(-2.9)"/><circle class="cls-2" cx="1091.9" cy="51.6" r="2.9" transform="translate(395.3 894) rotate(-53.1)"/><circle class="cls-2" cx="1039.2" cy="146.4" r="3.3" transform="translate(-2.9 22.2) rotate(-1.2)"/><circle class="cls-2" cx="377.5" cy="242.8" r="2.8" transform="translate(-11 18.1) rotate(-2.7)"/><circle class="cls-2" cx="141" cy="76.1" r="3.1" transform="translate(-16.9 48.7) rotate(-18.5)"/><circle class="cls-2" cx="31.6" cy="236.6" r="2.8" transform="translate(-0.9 0.1) rotate(-0.2)"/><circle class="cls-2" cx="1129.5" cy="188.6" r="2.9" transform="translate(-14.4 135.5) rotate(-6.8)"/><circle class="cls-2" cx="1059.2" cy="156.9" r="3" transform="translate(454.8 1040.8) rotate(-64.1)"/><circle class="cls-2" cx="675.4" cy="166.1" r="2.8" transform="matrix(0.88, -0.48, 0.48, 0.88, 3.66, 346.49)"/><circle class="cls-2" cx="148.2" cy="148.7" r="3.1" transform="translate(-40 55.6) rotate(-18.8)"/><circle class="cls-2" cx="267.2" cy="261.8" r="2.7" transform="translate(-78.6 404.6) rotate(-66.9)"/><circle class="cls-2" cx="868.3" cy="127.5" r="3.2" transform="translate(-8.6 162.4) rotate(-10.6)"/><circle class="cls-2" cx="759.4" cy="102.9" r="2.7" transform="matrix(0.3, -0.96, 0.96, 0.3, 436.94, 798.09)"/><circle class="cls-2" cx="833.4" cy="94.6" r="3.1" transform="translate(218.8 665.4) rotate(-49.4)"/><circle class="cls-2" cx="1087.5" cy="101.5" r="2.9" transform="translate(218 762.5) rotate(-42.6)"/><circle class="cls-2" cx="312.7" cy="53" r="2.8" transform="translate(28.6 194) rotate(-36)"/><circle class="cls-2" cx="139.4" cy="262.2" r="3" transform="translate(-123.5 400.3) rotate(-89.7)"/><circle class="cls-2" cx="500.4" cy="86" r="3.1" transform="translate(139.1 442.7) rotate(-54.4)"/><circle class="cls-2" cx="1383.6" cy="262" r="3.1" transform="translate(276.4 1132) rotate(-48.9)"/><circle class="cls-2" cx="176" cy="50.8" r="2.9" transform="translate(84.6 209.5) rotate(-76.2)"/><circle class="cls-2" cx="827.7" cy="242" r="2.9" transform="translate(8.8 512.4) rotate(-34.6)"/><circle class="cls-2" cx="1374.1" cy="115.3" r="3" transform="translate(662.5 1296.4) rotate(-63.7)"/><circle class="cls-2" cx="1158.2" cy="29.2" r="2.9" transform="translate(738.1 1108.9) rotate(-70.2)"/><circle class="cls-2" cx="792" cy="216.7" r="3.3" transform="translate(76 618.7) rotate(-44.6)"/><circle class="cls-2" cx="1367.9" cy="155.8" r="2.9" transform="translate(205.6 893.7) rotate(-38.9)"/><circle class="cls-2" cx="525.4" cy="76.9" r="3.1" transform="translate(187 486.1) rotate(-58.7)"/><circle class="cls-2" cx="344.5" cy="161.5" r="2.8" transform="translate(176.4 502.9) rotate(-88.9)"/><circle class="cls-2" cx="1405.2" cy="139" r="3" transform="translate(1236.5 1541) rotate(-88.8)"/><circle class="cls-2" cx="918.1" cy="60.5" r="2.9" transform="translate(306.9 748.3) rotate(-52.1)"/><circle class="cls-2" cx="643" cy="10.6" r="2.8" transform="translate(433 618.4) rotate(-71.9)"/><circle class="cls-2" cx="875.6" cy="53.2" r="3.2" transform="translate(311.5 725) rotate(-53.5)"/><circle class="cls-2" cx="1021" cy="70.4" r="2.9" transform="translate(89.2 493.7) rotate(-28.4)"/><circle class="cls-2" cx="1274" cy="217.4" r="2.8" transform="translate(-18.3 196.6) rotate(-8.8)"/><circle class="cls-2" cx="990.6" cy="154" r="2.7" transform="translate(670.6 1104.1) rotate(-80.2)"/><circle class="cls-2" cx="849.9" cy="50.7" r="3.2" transform="translate(750.1 896.3) rotate(-86.7)"/><circle class="cls-2" cx="1068.7" cy="12.5" r="3.2" transform="translate(647.4 994.8) rotate(-67.5)"/><circle class="cls-2" cx="1400.5" cy="180.8" r="2.9" transform="translate(-7.8 284.8) rotate(-11.6)"/><circle class="cls-2" cx="282.6" cy="146.1" r="3.2" transform="translate(-2.1 288.1) rotate(-53.8)"/><circle class="cls-2" cx="1019.7" cy="259.7" r="2.8" transform="translate(34 628) rotate(-34.8)"/><circle class="cls-2" cx="394.2" cy="57.2" r="3.2" transform="translate(168.8 385.6) rotate(-63.8)"/><circle class="cls-2" cx="224.9" cy="123" r="3.1" transform="translate(-26.5 173.3) rotate(-40)"/><circle class="cls-2" cx="426" cy="196.8" r="2.8" transform="translate(-42.7 220.3) rotate(-27.7)"/><circle class="cls-2" cx="797.7" cy="114.2" r="2.9" transform="translate(-8 98.7) rotate(-7)"/><circle class="cls-2" cx="879.2" cy="12.4" r="2.7" transform="translate(107.9 434.6) rotate(-29.5)"/><circle class="cls-2" cx="409.4" cy="99.9" r="3.1" transform="translate(-8 157.8) rotate(-21.6)"/><circle class="cls-2" cx="11.8" cy="97.4" r="3.1" transform="translate(-86.1 103.8) rotate(-86.9)"/><circle class="cls-2" cx="975.4" cy="238.9" r="2.9" transform="translate(174.8 845.2) rotate(-50.9)"/><circle class="cls-2" cx="131.6" cy="111.4" r="3" transform="translate(-40.8 112.1) rotate(-40.5)"/><circle class="cls-2" cx="768.1" cy="148" r="2.9" transform="translate(360.4 815.6) rotate(-69.5)"/><circle class="cls-2" cx="1334" cy="133.6" r="3" transform="translate(61.2 555) rotate(-24)"/><circle class="cls-2" cx="307.2" cy="139.3" r="2.8" transform="translate(-11.2 28) rotate(-5.1)"/><circle class="cls-2" cx="547.1" cy="199" r="3" transform="translate(309.4 730.4) rotate(-85.9)"/><circle class="cls-2" cx="101.8" cy="87.5" r="2.9" transform="translate(-9.1 11.9) rotate(-6.4)"/><circle class="cls-2" cx="939.3" cy="218.1" r="3.1" transform="translate(183.6 817.1) rotate(-51.5)"/><circle class="cls-2" cx="1202" cy="136" r="2.9" transform="translate(225.8 850.4) rotate(-42.7)"/><circle class="cls-2" cx="99.5" cy="27.2" r="3.3" transform="translate(17.6 89.9) rotate(-52.8)"/><circle class="cls-2" cx="1001.2" cy="12.4" r="3" transform="translate(54.4 338.2) rotate(-19.7)"/><circle class="cls-2" cx="1150.6" cy="236.6" r="2.9" transform="matrix(1, -0.09, 0.09, 1, -16.45, 102.97)"/><circle class="cls-2" cx="387" cy="222.4" r="3.1" transform="translate(-47.2 326) rotate(-43.3)"/><circle class="cls-2" cx="298.1" cy="201.9" r="3.2" transform="translate(-40.8 80.3) rotate(-14.4)"/><circle class="cls-2" cx="468.9" cy="141.9" r="3.1" transform="translate(206.2 555.3) rotate(-74.4)"/><circle class="cls-2" cx="933.9" cy="78.8" r="2.9" transform="translate(159.6 606.8) rotate(-39.1)"/><circle class="cls-2" cx="49.9" cy="100.6" r="3.1" transform="translate(-62.3 101.7) rotate(-64.2)"/><circle class="cls-2" cx="109.2" cy="213.3" r="3" transform="translate(-130.2 223.8) rotate(-65.4)"/><circle class="cls-2" cx="514" cy="263.1" r="2.8" transform="translate(-55.6 168.3) rotate(-17.7)"/><circle class="cls-2" cx="126.9" cy="154.7" r="3" transform="translate(-32.3 33.5) rotate(-13.4)"/><circle class="cls-2" cx="1283.9" cy="10.3" r="2.9" transform="translate(713.8 1160.7) rotate(-64.1)"/><circle class="cls-2" cx="962.1" cy="12.8" r="3" transform="translate(915.4 973.8) rotate(-88)"/><circle class="cls-2" cx="1048.2" cy="99.7" r="2.9" transform="translate(-3.7 145.7) rotate(-7.9)"/><circle class="cls-2" cx="674.5" cy="260.8" r="2.9" transform="translate(-48.6 251.6) rotate(-20.4)"/><circle class="cls-2" cx="1006.5" cy="220.3" r="2.9" transform="translate(-12.9 70.6) rotate(-4)"/><circle class="cls-2" cx="1204.1" cy="262.5" r="2.8" transform="translate(376.5 1175.6) rotate(-60.1)"/><circle class="cls-2" cx="700.4" cy="45.9" r="2.8" transform="matrix(0.57, -0.82, 0.82, 0.57, 260.99, 593.23)"/><circle class="cls-2" cx="525.5" cy="185.2" r="3" transform="matrix(0.56, -0.83, 0.83, 0.56, 78.69, 518.08)"/><circle class="cls-2" cx="541" cy="263.7" r="2.8" transform="translate(-12.7 499.5) rotate(-49.1)"/><circle class="cls-2" cx="1325.1" cy="262.4" r="3.1" transform="translate(473 1310.7) rotate(-62.1)"/><circle class="cls-2" cx="1382.7" cy="136.9" r="2.9" transform="translate(330.4 1044.3) rotate(-46.4)"/><circle class="cls-2" cx="738.9" cy="173.9" r="2.9" transform="translate(-16.7 101.6) rotate(-7.8)"/><circle class="cls-2" cx="192.4" cy="238.5" r="2.8" transform="translate(-107 303.9) rotate(-63.4)"/><circle class="cls-2" cx="439.8" cy="260.9" r="2.8" transform="translate(-15 27.1) rotate(-3.5)"/><circle class="cls-2" cx="401.6" cy="240.6" r="3" transform="translate(-16.3 29.7) rotate(-4.1)"/><circle class="cls-2" cx="841.3" cy="31.3" r="2.7" transform="translate(110.3 449) rotate(-31.9)"/><circle class="cls-2" cx="1380.1" cy="198.1" r="2.8" transform="translate(-7.6 63.1) rotate(-2.6)"/><circle class="cls-2" cx="1046.9" cy="12.5" r="3" transform="translate(168.9 582.8) rotate(-33.7)"/><circle class="cls-2" cx="1127.1" cy="85.5" r="3" transform="translate(692.8 1129.1) rotate(-71.7)"/><circle class="cls-2" cx="486.8" cy="157.3" r="3.1" transform="translate(-3.6 11.8) rotate(-1.4)"/><circle class="cls-2" cx="356" cy="61.3" r="2.9" transform="translate(201.1 387.7) rotate(-74.4)"/><circle class="cls-2" cx="507.8" cy="11.1" r="3.1" transform="translate(75.2 277.2) rotate(-32.8)"/><circle class="cls-2" cx="117.9" cy="68.7" r="3.2" transform="matrix(0.57, -0.82, 0.82, 0.57, -5.84, 126.21)"/><circle class="cls-2" cx="793.7" cy="262.1" r="2.8" transform="translate(125.1 763.7) rotate(-55.2)"/><circle class="cls-2" cx="29.3" cy="162.8" r="2.9" transform="translate(-84.8 43.1) rotate(-33.4)"/><circle class="cls-2" cx="362.9" cy="222.9" r="2.7" transform="translate(59.6 521.9) rotate(-76.1)"/><circle class="cls-2" cx="708.3" cy="240" r="2.9" transform="translate(22.3 537.9) rotate(-42.2)"/><circle class="cls-2" cx="565.9" cy="262.1" r="2.8" transform="translate(61 628.2) rotate(-60.8)"/><circle class="cls-2" cx="915.9" cy="216.9" r="3" transform="translate(50.8 587.8) rotate(-36.5)"/><circle class="cls-2" cx="695.6" cy="261.8" r="3.1" transform="translate(-47.6 265.2) rotate(-20.9)"/><circle class="cls-2" cx="69.5" cy="211.8" r="3.2" transform="translate(-54.2 26.4) rotate(-15.5)"/><circle class="cls-2" cx="820" cy="110.6" r="3.2" transform="translate(-7.4 119.7) rotate(-8.3)"/><circle class="cls-2" cx="1046" cy="75.6" r="2.8" transform="translate(14.1 262.5) rotate(-14.4)"/><circle class="cls-2" cx="973.5" cy="32.9" r="2.8" transform="matrix(0.95, -0.32, 0.32, 0.95, 40.1, 311.34)"/><circle class="cls-2" cx="971.5" cy="167.9" r="2.7" transform="translate(380.3 956.9) rotate(-63)"/><circle class="cls-2" cx="920" cy="99.2" r="3" transform="translate(607.2 970.1) rotate(-76.4)"/><circle class="cls-2" cx="1392.3" cy="54.3" r="3" transform="translate(293.5 911.1) rotate(-40.2)"/><circle class="cls-2" cx="339.9" cy="262.8" r="2.8" transform="translate(-88.7 232.5) rotate(-33.7)"/><circle class="cls-2" cx="51.6" cy="52.6" r="2.9" transform="translate(-22.1 53.7) rotate(-46.4)"/><circle class="cls-2" cx="401.8" cy="141.3" r="3.1" transform="translate(167.3 496.8) rotate(-76)"/><circle class="cls-2" cx="416.3" cy="62.8" r="3.1" transform="translate(86.4 324.4) rotate(-47)"/><circle class="cls-2" cx="887.6" cy="159.7" r="3.2" transform="translate(649.9 1029.7) rotate(-84.9)"/><circle class="cls-2" cx="621.2" cy="98.3" r="2.9" transform="translate(361.3 671) rotate(-74.6)"/><circle class="cls-2" cx="32.7" cy="84.2" r="3.1" transform="translate(-50.6 49.2) rotate(-46)"/><circle class="cls-2" cx="245.5" cy="130.9" r="2.8" transform="translate(-31.5 157.1) rotate(-33.5)"/><circle class="cls-2" cx="1370.2" cy="240.2" r="3.2" transform="translate(232.8 1041) rotate(-45.1)"/><circle class="cls-2" cx="303.6" cy="73.6" r="3.1" transform="translate(77.9 289.6) rotate(-57.4)"/><circle class="cls-2" cx="1060.3" cy="199.1" r="2.8" transform="translate(-6.2 36.4) rotate(-2)"/><circle class="cls-2" cx="388.4" cy="159.4" r="3.1" transform="translate(-27 98.5) rotate(-14)"/><circle class="cls-2" cx="1015.9" cy="158.4" r="3.1" transform="translate(11.8 379.7) rotate(-21.3)"/><circle class="cls-2" cx="1180.2" cy="263.3" r="2.9" transform="translate(701.6 1373.8) rotate(-79.3)"/><circle class="cls-2" cx="950.6" cy="176.9" r="2.9" transform="translate(171 748.9) rotate(-46.8)"/><circle class="cls-2" cx="239.8" cy="222" r="2.8" transform="translate(-74.7 133.3) rotate(-27)"/><circle class="cls-2" cx="806.8" cy="93" r="3" transform="translate(331.5 751.6) rotate(-60.8)"/><circle class="cls-2" cx="1427.1" cy="236.4" r="2.8" transform="translate(-16.3 332.2) rotate(-13.2)"/><circle class="cls-2" cx="236.1" cy="12.2" r="2.9" transform="translate(74.6 184.8) rotate(-49.9)"/><circle class="cls-2" cx="853.4" cy="241.9" r="2.9" transform="translate(11.5 521.1) rotate(-34.2)"/><circle class="cls-2" cx="14.2" cy="32.1" r="3" transform="translate(-18.7 44.3) rotate(-86.6)"/><circle class="cls-2" cx="255.1" cy="152.5" r="2.9" transform="translate(-0.6 1) rotate(-0.2)"/><circle class="cls-2" cx="1065.9" cy="58.3" r="2.8" transform="translate(964.1 1120.9) rotate(-87.7)"/><circle class="cls-2" cx="952.1" cy="238.4" r="2.7" transform="translate(-21.9 117.2) rotate(-7)"/><circle class="cls-2" cx="355.7" cy="35.4" r="2.8" transform="translate(126.1 309.3) rotate(-55.7)"/><circle class="cls-2" cx="1387.2" cy="94.9" r="3" transform="translate(382.7 1056.2) rotate(-47.7)"/><circle class="cls-2" cx="660.6" cy="84.9" r="2.9" transform="translate(-4.3 46.6) rotate(-4)"/><circle class="cls-2" cx="213.7" cy="10.6" r="2.9" transform="translate(190.5 223.4) rotate(-86.6)"/><circle class="cls-2" cx="550" cy="71.3" r="3" transform="translate(128.5 431.7) rotate(-47.9)"/><circle class="cls-2" cx="160.5" cy="261.8" r="2.9" transform="translate(-105.2 415.7) rotate(-88.6)"/><circle class="cls-2" cx="654.9" cy="176.2" r="3.2" transform="translate(213.9 691.5) rotate(-64.5)"/><circle class="cls-2" cx="587.9" cy="261.2" r="3.2" transform="translate(-50.2 342.9) rotate(-31.3)"/><circle class="cls-2" cx="993.1" cy="39.5" r="2.8" transform="translate(562.2 935.1) rotate(-66.6)"/><circle class="cls-2" cx="386.8" cy="12" r="2.9" transform="translate(84 253) rotate(-40.3)"/><circle class="cls-2" cx="218" cy="97.2" r="3.3" transform="translate(-20.1 80.7) rotate(-20.1)"/><circle class="cls-2" cx="35.1" cy="12.4" r="2.9" transform="translate(-1.9 8.1) rotate(-12.8)"/><circle class="cls-2" cx="571.2" cy="150.1" r="3" transform="translate(150.6 564.7) rotate(-59.3)"/><circle class="cls-2" cx="533.9" cy="10.8" r="2.7" transform="translate(97 317.8) rotate(-36.3)"/><circle class="cls-2" cx="402.3" cy="79.6" r="2.9" transform="translate(219.7 446.8) rotate(-74.7)"/><circle class="cls-2" cx="1104.1" cy="30.5" r="3.3" transform="translate(129.9 551.1) rotate(-29.7)"/><circle class="cls-2" cx="856.3" cy="11.9" r="2.8" transform="matrix(0.99, -0.15, 0.15, 0.99, 8.42, 132.22)"/><circle class="cls-2" cx="467.1" cy="193.1" r="2.7" transform="translate(-37.1 228.5) rotate(-26.5)"/><circle class="cls-2" cx="49.6" cy="200.1" r="3.1" transform="translate(-156.4 194.9) rotate(-74.6)"/><circle class="cls-2" cx="126.7" cy="30.2" r="2.9" transform="translate(85 153.6) rotate(-84.8)"/><circle class="cls-2" cx="615.6" cy="142.7" r="2.7" transform="matrix(0.84, -0.55, 0.55, 0.84, 22.18, 359.89)"/><circle class="cls-2" cx="1404.3" cy="263.5" r="2.8" transform="translate(-2.3 514.4) rotate(-20.7)"/><circle class="cls-2" cx="776.8" cy="117.4" r="3" transform="translate(151 592.4) rotate(-45.8)"/><circle class="cls-2" cx="383.8" cy="180.8" r="3.3" transform="translate(163.5 543.4) rotate(-83.9)"/><circle class="cls-2" cx="85" cy="41.6" r="3" transform="translate(25.7 115.3) rotate(-77.3)"/><circle class="cls-2" cx="96.2" cy="262.8" r="2.8" transform="translate(-182.2 291.2) rotate(-75.7)"/><circle class="cls-2" cx="740.4" cy="264.7" r="3" transform="translate(103.9 726.3) rotate(-55.6)"/><circle class="cls-2" cx="584.8" cy="215.2" r="2.8" transform="translate(182.5 691.2) rotate(-70)"/><circle class="cls-2" cx="447.2" cy="34.5" r="3" transform="translate(29 196.7) rotate(-25.6)"/><circle class="cls-2" cx="292.7" cy="122" r="3.3" transform="translate(-4.7 232.2) rotate(-43)"/><circle class="cls-2" cx="827.5" cy="189.4" r="3.3" transform="translate(45 518.5) rotate(-35.7)"/><circle class="cls-2" cx="480" cy="246.9" r="3.2" transform="translate(-42.3 110.5) rotate(-12.6)"/><circle class="cls-2" cx="343" cy="12.5" r="3.1" transform="translate(14.3 111.2) rotate(-18.8)"/><circle class="cls-2" cx="187.1" cy="125.1" r="2.9" transform="translate(10.8 265) rotate(-72.2)"/><circle class="cls-2" cx="373.7" cy="51.7" r="3.1" transform="translate(27.4 201.4) rotate(-31.3)"/><circle class="cls-2" cx="900.8" cy="13.2" r="3.1" transform="translate(41.8 284.8) rotate(-18.4)"/><circle class="cls-2" cx="748.9" cy="250.3" r="3.1" transform="translate(430.4 972.8) rotate(-84.7)"/><circle class="cls-2" cx="495.3" cy="108.4" r="3.3" transform="translate(323.8 585.5) rotate(-82.6)"/><circle class="cls-2" cx="1321.3" cy="115" r="3.2" transform="translate(46.3 480.1) rotate(-21)"/><circle class="cls-2" cx="353.9" cy="140.4" r="3.1" transform="translate(61.5 384.2) rotate(-61.5)"/><circle class="cls-2" cx="299.5" cy="161.3" r="2.8" transform="translate(-40.7 163.5) rotate(-28.7)"/><circle class="cls-2" cx="889.5" cy="34.3" r="3" transform="translate(21.6 232.2) rotate(-15.1)"/><circle class="cls-2" cx="1334.8" cy="195.4" r="3.3" transform="translate(655 1360.7) rotate(-68.1)"/><circle class="cls-2" cx="768.8" cy="222.4" r="3.1" transform="translate(19.4 503.2) rotate(-36.7)"/><circle class="cls-2" cx="1204" cy="222.3" r="3.2" transform="translate(258.7 1000.4) rotate(-49.9)"/><circle class="cls-2" cx="236" cy="77.2" r="2.9" transform="translate(4.8 167.7) rotate(-39.5)"/><circle class="cls-2" cx="592.1" cy="239" r="3" transform="translate(-41.3 158.1) rotate(-14.7)"/><circle class="cls-2" cx="135" cy="52.3" r="2.8" transform="translate(-9.6 59.6) rotate(-24.1)"/><circle class="cls-2" cx="358.2" cy="182.1" r="2.9" transform="translate(-43.1 202.4) rotate(-29.8)"/><circle class="cls-2" cx="457.2" cy="75.8" r="3.1" transform="translate(18.8 226) rotate(-28.3)"/><circle class="cls-2" cx="889.8" cy="138.6" r="3.3" transform="translate(198.5 715.8) rotate(-48.7)"/><circle class="cls-2" cx="676.5" cy="214" r="3.2" transform="translate(-15.4 56.7) rotate(-4.7)"/><circle class="cls-2" cx="365.6" cy="262.7" r="2.9" transform="translate(75.6 607) rotate(-85.6)"/><circle class="cls-2" cx="1061.9" cy="262.2" r="3.1" transform="translate(261.8 1007.9) rotate(-56.9)"/><circle class="cls-2" cx="1195" cy="166.6" r="3.2" transform="translate(1026.5 1361.3) rotate(-89.9)"/><circle class="cls-2" cx="1270.7" cy="242.6" r="3.1" transform="matrix(0.54, -0.84, 0.84, 0.54, 379.6, 1180.36)"/><circle class="cls-2" cx="657.5" cy="64.2" r="2.8" transform="translate(9.7 193.8) rotate(-16.9)"/><circle class="cls-2" cx="907.5" cy="79.3" r="3.1" transform="translate(771.6 980) rotate(-86.4)"/><circle class="cls-2" cx="823.8" cy="168.4" r="3" transform="translate(500.8 944.8) rotate(-79)"/><circle class="cls-2" cx="171" cy="240.5" r="3.1" transform="translate(-122.7 269.5) rotate(-60.2)"/><circle class="cls-2" cx="1003.2" cy="88" r="2.8" transform="translate(907 1090.4) rotate(-89.5)"/><circle class="cls-2" cx="559.9" cy="111.7" r="2.8" transform="translate(-10.1 144.6) rotate(-14.6)"/><circle class="cls-2" cx="426.1" cy="45.6" r="3" transform="translate(54.1 258.2) rotate(-35.9)"/><circle class="cls-2" cx="489.4" cy="263.7" r="2.9" transform="translate(78.9 638.5) rotate(-70.7)"/><circle class="cls-2" cx="637.1" cy="80.4" r="3" transform="translate(2.5 178.8) rotate(-16)"/><circle class="cls-2" cx="513.2" cy="123.7" r="3.1" transform="translate(293.4 603.7) rotate(-78.9)"/><circle class="cls-2" cx="453" cy="96.8" r="2.9" transform="translate(-8 51.5) rotate(-6.4)"/><circle class="cls-2" cx="107.2" cy="191.5" r="3.2" transform="translate(-52.1 40.5) rotate(-17.3)"/><circle class="cls-2" cx="957.9" cy="85.9" r="2.8" transform="translate(72.6 461.7) rotate(-28.1)"/><circle class="cls-2" cx="191.5" cy="95.8" r="2.7" transform="translate(14.4 216.2) rotate(-60.8)"/><circle class="cls-2" cx="1291.4" cy="29.7" r="3.2" transform="translate(295.5 852.4) rotate(-40.9)"/><circle class="cls-2" cx="1349.5" cy="239.3" r="3.2" transform="translate(115.7 836) rotate(-35.9)"/><circle class="cls-2" cx="1251.3" cy="52.6" r="3.1" transform="translate(25.7 310.3) rotate(-14.3)"/><circle class="cls-2" cx="1289.4" cy="149.4" r="3.1" transform="translate(762.7 1335.8) rotate(-72.7)"/><circle class="cls-2" cx="11.1" cy="174.6" r="3.2" transform="translate(-96.9 36.9) rotate(-34.5)"/><circle class="cls-2" cx="110.8" cy="46" r="2.9" transform="matrix(0.07, -1, 1, 0.07, 56.95, 153.24)"/><circle class="cls-2" cx="1115.3" cy="104.9" r="3.1" transform="translate(53.5 461.9) rotate(-24)"/><circle class="cls-2" cx="272.9" cy="167.4" r="2.9" transform="matrix(0.29, -0.96, 0.96, 0.29, 33.32, 379.82)"/><circle class="cls-2" cx="873.6" cy="101.9" r="3.2" transform="translate(705.6 965.2) rotate(-85.6)"/><circle class="cls-2" cx="12" cy="74.7" r="2.7" transform="translate(-61.1 55.3) rotate(-66)"/><circle class="cls-2" cx="655" cy="128.6" r="2.8" transform="translate(85.9 477.4) rotate(-42.6)"/><circle class="cls-2" cx="702" cy="199.9" r="3.2" transform="translate(242.8 767.3) rotate(-66.9)"/><circle class="cls-2" cx="927.4" cy="239" r="2.8" transform="translate(162 814.6) rotate(-51.4)"/><circle class="cls-2" cx="408.1" cy="165.8" r="3.2" transform="translate(16.1 366.8) rotate(-49.3)"/><circle class="cls-2" cx="902.5" cy="239.1" r="3.2" transform="translate(279.4 934.3) rotate(-63)"/><circle class="cls-2" cx="778.3" cy="54.7" r="2.9" transform="translate(-1.2 20.7) rotate(-1.5)"/><circle class="cls-2" cx="1068.1" cy="112.6" r="3.1" transform="translate(-5.7 133.9) rotate(-7.2)"/><circle class="cls-2" cx="1426" cy="78.6" r="2.9" transform="translate(871.6 1394.7) rotate(-70.3)"/><circle class="cls-2" cx="1192.5" cy="242.9" r="2.8" transform="translate(500.9 1244.3) rotate(-66.9)"/><circle class="cls-2" cx="593.9" cy="50.2" r="2.8" transform="translate(-1.7 73.3) rotate(-7.1)"/><circle class="cls-2" cx="676.6" cy="143.5" r="2.9" transform="translate(287.9 715.6) rotate(-67.8)"/><circle class="cls-2" cx="476.3" cy="92.9" r="3.1" transform="translate(97.7 396.5) rotate(-49.8)"/><circle class="cls-2" cx="301.4" cy="241.8" r="2.7" transform="translate(-69.9 134.9) rotate(-22.7)"/><circle class="cls-2" cx="1177.4" cy="227" r="3.1" transform="translate(340.2 1085.4) rotate(-56.6)"/><circle class="cls-2" cx="850" cy="140.6" r="2.9" transform="translate(108.6 579.5) rotate(-40)"/><circle class="cls-2" cx="942.7" cy="12.4" r="3.2" transform="translate(307.1 708.6) rotate(-48.4)"/><circle class="cls-2" cx="890" cy="182.2" r="2.8" transform="translate(-15.3 106.5) rotate(-6.8)"/><circle class="cls-2" cx="1024.4" cy="235.5" r="2.8" transform="matrix(0.28, -0.96, 0.96, 0.28, 507.54, 1150.82)"/><circle class="cls-2" cx="841.1" cy="262.1" r="3.2" transform="translate(-39.8 275.5) rotate(-18.2)"/><circle class="cls-2" cx="554.1" cy="49.1" r="3.2" transform="translate(139.3 419.9) rotate(-46.9)"/><circle class="cls-2" cx="1149.6" cy="126.7" r="3.1" transform="translate(265.8 872.6) rotate(-46.5)"/><circle class="cls-2" cx="546.3" cy="30.3" r="2.8" transform="translate(236.7 481.4) rotate(-58.7)"/><circle class="cls-2" cx="82.8" cy="12.6" r="2.9" transform="translate(49.4 89.5) rotate(-75.2)"/><circle class="cls-2" cx="1154.3" cy="262.2" r="3.3" transform="translate(30.9 635.4) rotate(-31.2)"/><circle class="cls-2" cx="480.3" cy="226.3" r="3.3" transform="translate(-48 279.3) rotate(-31)"/><circle class="cls-2" cx="136.5" cy="11.9" r="2.8" transform="translate(13.4 72.1) rotate(-31)"/><circle class="cls-2" cx="615.2" cy="43.4" r="3" transform="translate(-1.1 20.7) rotate(-1.9)"/><circle class="cls-2" cx="142.2" cy="174" r="3" transform="translate(-53.7 284.1) rotate(-80.1)"/><circle class="cls-2" cx="166.6" cy="159.6" r="2.8" transform="translate(-28.7 36.8) rotate(-11.6)"/><circle class="cls-2" cx="942.8" cy="102.8" r="2.9" transform="translate(3.7 235.3) rotate(-14.3)"/><circle class="cls-2" cx="932.5" cy="143" r="3.2" transform="translate(201.2 739) rotate(-47.9)"/><circle class="cls-2" cx="483.9" cy="205.4" r="3.3" transform="translate(-28.5 88) rotate(-10.1)"/><circle class="cls-2" cx="680.9" cy="93.6" r="2.9" transform="translate(433.6 734.9) rotate(-76.7)"/><circle class="cls-2" cx="1265.2" cy="194.5" r="2.8" transform="translate(236.5 956.2) rotate(-45.3)"/><circle class="cls-2" cx="1084.6" cy="130.7" r="3.2" transform="translate(801.6 1185.8) rotate(-81.9)"/><circle class="cls-2" cx="767.3" cy="76.8" r="2.8" transform="translate(339.8 718.6) rotate(-62)"/><circle class="cls-2" cx="430.4" cy="81.8" r="3" transform="translate(4.2 183.4) rotate(-24.2)"/><circle class="cls-2" cx="1119.5" cy="46" r="2.7" transform="translate(954.8 1154.3) rotate(-83.9)"/><circle class="cls-2" cx="171" cy="108.6" r="2.9" transform="translate(-28.5 143.8) rotate(-42.4)"/><circle class="cls-2" cx="1225.5" cy="57.3" r="2.9" transform="translate(172.5 686.8) rotate(-33.5)"/><circle class="cls-2" cx="1328.4" cy="240.2" r="2.9" transform="translate(74.3 739.8) rotate(-32)"/><circle class="cls-2" cx="578.9" cy="127.4" r="3.1" transform="translate(217.4 597.2) rotate(-64.8)"/><circle class="cls-2" cx="1147.3" cy="10.4" r="3.2" transform="translate(1112.2 1157.2) rotate(-88.8)"/><circle class="cls-2" cx="1088.3" cy="236.4" r="2.8" transform="translate(246.4 965.3) rotate(-53.1)"/><circle class="cls-2" cx="682.5" cy="67.4" r="2.8" transform="translate(112.8 449.3) rotate(-39.5)"/><circle class="cls-2" cx="129.4" cy="221.4" r="3" transform="translate(-113.5 139.1) rotate(-41)"/><circle class="cls-2" cx="467.1" cy="169" r="3.2" transform="translate(-29.3 187.3) rotate(-22)"/><circle class="cls-2" cx="911.5" cy="37.2" r="3.3" transform="translate(245 660.1) rotate(-45.4)"/><circle class="cls-2" cx="663.9" cy="107.7" r="2.7" transform="translate(165.2 559) rotate(-51.4)"/><circle class="cls-2" cx="784.9" cy="12" r="3" transform="translate(30.9 230.4) rotate(-17)"/><circle class="cls-2" cx="1109.4" cy="246.8" r="2.8" transform="translate(458.5 1178.4) rotate(-67.6)"/><circle class="cls-2" cx="839.8" cy="225.6" r="3.3" transform="translate(8.3 480.2) rotate(-32.1)"/><circle class="cls-2" cx="32.2" cy="60.1" r="3.1" transform="translate(-30 32.2) rotate(-37.7)"/><circle class="cls-2" cx="151.9" cy="122.6" r="3.1" transform="translate(-35.6 177.1) rotate(-55.1)"/><circle class="cls-2" cx="526.6" cy="161.5" r="3.2" transform="translate(269 648.4) rotate(-79.2)"/><circle class="cls-2" cx="1078.9" cy="34" r="3.2" transform="translate(661.5 1029.5) rotate(-69.1)"/><circle class="cls-2" cx="717.3" cy="262.2" r="3" transform="translate(134.5 755.8) rotate(-60.3)"/><circle class="cls-2" cx="1065.5" cy="176.5" r="3" transform="matrix(0.6, -0.8, 0.8, 0.6, 282.09, 919.9)"/><circle class="cls-2" cx="486.8" cy="49.5" r="3" transform="translate(-2.3 62.6) rotate(-7.3)"/><circle class="cls-2" cx="1286.6" cy="192.1" r="2.8" transform="translate(109.6 746.1) rotate(-33.7)"/><circle class="cls-2" cx="287.6" cy="220.4" r="3.1" transform="translate(-68.8 285.5) rotate(-47.8)"/><circle class="cls-2" cx="629.1" cy="208.5" r="3.1" transform="translate(-33.7 210.9) rotate(-18.5)"/><circle class="cls-2" cx="1063.1" cy="136.1" r="2.8" transform="translate(775.8 1168.7) rotate(-81.7)"/><circle class="cls-2" cx="1161.6" cy="212.8" r="2.9" transform="translate(339 1060.1) rotate(-56.2)"/><circle class="cls-2" cx="376.9" cy="76.2" r="3.2" transform="translate(9.3 189.1) rotate(-28.5)"/><circle class="cls-2" cx="228.4" cy="147.4" r="3.2" transform="translate(7.1 305.2) rotate(-68.3)"/><circle class="cls-2" cx="1213.9" cy="154.7" r="2.9" transform="translate(767.7 1294.1) rotate(-75.9)"/><circle class="cls-2" cx="380.3" cy="32" r="3" transform="translate(173 352.4) rotate(-61.9)"/><circle class="cls-2" cx="631.5" cy="261.2" r="3.3" transform="matrix(0.14, -0.99, 0.99, 0.14, 285.15, 850.39)"/><circle class="cls-2" cx="227.1" cy="188" r="2.9" transform="translate(-28.1 40.4) rotate(-9.6)"/><circle class="cls-2" cx="999" cy="240.6" r="2.7" transform="translate(727.7 1231.7) rotate(-88.2)"/><circle class="cls-2" cx="1377.1" cy="73.9" r="3.2" transform="translate(232.5 843.2) rotate(-37)"/><circle class="cls-2" cx="1056.5" cy="35.3" r="2.8" transform="translate(816.2 1064.7) rotate(-78.8)"/><circle class="cls-2" cx="861.6" cy="68.6" r="2.9" transform="translate(-2.7 65.6) rotate(-4.4)"/><circle class="cls-2" cx="1151.7" cy="190.2" r="2.7" transform="translate(-5.9 39.7) rotate(-2)"/><circle class="cls-2" cx="48.1" cy="124.7" r="2.8" transform="translate(-34.6 19.7) rotate(-17.1)"/><circle class="cls-2" cx="604.7" cy="203.7" r="2.9" transform="translate(-5.4 16.7) rotate(-1.6)"/><circle class="cls-2" cx="609.3" cy="263.6" r="2.8" transform="translate(42.8 609.7) rotate(-54.8)"/><circle class="cls-2" cx="709.8" cy="64.7" r="2.9" transform="translate(-1.2 114.6) rotate(-9.2)"/><circle class="cls-2" cx="646.3" cy="243.5" r="3.1" transform="translate(-39.7 323.4) rotate(-27.3)"/><circle class="cls-2" cx="686.8" cy="239.3" r="2.8" transform="translate(180.2 761.3) rotate(-65.1)"/><circle class="cls-2" cx="984.4" cy="216.5" r="2.9" transform="translate(532.6 1117.5) rotate(-75.8)"/><circle class="cls-2" cx="999.7" cy="198" r="3.2" transform="translate(10.8 444.4) rotate(-25.2)"/><circle class="cls-2" cx="932.5" cy="195.4" r="2.8" transform="translate(305.6 912.8) rotate(-60.7)"/><circle class="cls-2" cx="1266.7" cy="28.2" r="2.7" transform="translate(772.6 1194.9) rotate(-68.3)"/><circle class="cls-2" cx="371" cy="201.5" r="3" transform="translate(-41.1 109.9) rotate(-16)"/><circle class="cls-2" cx="633.4" cy="56.9" r="3" transform="translate(555.7 688) rotate(-88.1)"/><circle class="cls-2" cx="523" cy="29.9" r="2.8" transform="translate(102.6 342.5) rotate(-39.9)"/><circle class="cls-2" cx="1139.9" cy="106.3" r="2.9" transform="translate(377.7 960.5) rotate(-53.6)"/><circle class="cls-2" cx="1046.8" cy="239.2" r="3" transform="translate(9.1 515.2) rotate(-27.8)"/><circle class="cls-2" cx="403.1" cy="36.2" r="3.2" transform="translate(199 385.7) rotate(-64.8)"/><circle class="cls-2" cx="447.6" cy="141" r="3" transform="translate(-10.2 244) rotate(-30.2)"/><circle class="cls-2" cx="1022.5" cy="133.5" r="2.9" transform="translate(856.5 1151.3) rotate(-88.2)"/><circle class="cls-2" cx="50.5" cy="223.1" r="3.1" transform="translate(-106 56.2) rotate(-30.4)"/><circle class="cls-2" cx="184.6" cy="9.8" r="3.2" transform="translate(3.9 48.9) rotate(-15.3)"/><circle class="cls-2" cx="463.4" cy="262.7" r="3.3" transform="translate(-13 24.4) rotate(-3)"/><circle class="cls-2" cx="531.1" cy="139" r="3" transform="translate(147.5 531.8) rotate(-60.3)"/><circle class="cls-2" cx="1405.8" cy="224.2" r="3.3" transform="translate(756.9 1491.3) rotate(-71.9)"/><circle class="cls-2" cx="929.5" cy="167.6" r="2.8" transform="translate(86.9 594.3) rotate(-37.1)"/><circle class="cls-2" cx="554.6" cy="133" r="3.2" transform="translate(-15.6 142.8) rotate(-14.5)"/><circle class="cls-2" cx="203.7" cy="191.6" r="2.9" transform="translate(-55 298) rotate(-65.6)"/><circle class="cls-2" cx="936" cy="52.4" r="2.8" transform="translate(406 825.7) rotate(-58.8)"/><circle class="cls-2" cx="921" cy="12.2" r="3.3" transform="translate(366.5 747.7) rotate(-53.7)"/><circle class="cls-2" cx="1166.9" cy="104.2" r="3.3" transform="translate(234.4 813.4) rotate(-42.4)"/><circle class="cls-2" cx="631.2" cy="164.8" r="2.7" transform="translate(153.1 608.7) rotate(-57.5)"/><circle class="cls-2" cx="89.5" cy="106.1" r="3.2" transform="translate(-35.6 45.9) rotate(-24.2)"/><circle class="cls-2" cx="817.3" cy="262.1" r="3.3" transform="translate(512.4 1064.5) rotate(-87)"/><circle class="cls-2" cx="1132" cy="27.3" r="3" transform="translate(316.2 812.5) rotate(-45.3)"/><circle class="cls-2" cx="545.2" cy="176.8" r="3" transform="translate(-25.3 121.5) rotate(-12.4)"/><circle class="cls-2" cx="279.3" cy="14.1" r="2.9" transform="translate(17 111.1) rotate(-23.2)"/><circle class="cls-2" cx="650.8" cy="43.7" r="2.8" transform="translate(490.2 675.9) rotate(-79.6)"/><circle class="cls-2" cx="1133.7" cy="65.1" r="3.3" transform="translate(109.3 555.1) rotate(-28.8)"/><circle class="cls-2" cx="1284.7" cy="108.4" r="3" transform="translate(1.9 237.4) rotate(-10.6)"/><circle class="cls-2" cx="593.7" cy="71.4" r="3" transform="translate(98.2 406.1) rotate(-40.9)"/><circle class="cls-2" cx="978.8" cy="78.7" r="2.8" transform="translate(87 489.7) rotate(-29.3)"/><circle class="cls-2" cx="458.7" cy="214.4" r="3.2" transform="matrix(0.84, -0.54, 0.54, 0.84, -43.47, 279.27)"/><circle class="cls-2" cx="1024.2" cy="11.3" r="3" transform="translate(687.9 978.8) rotate(-71.5)"/><circle class="cls-2" cx="745" cy="150.6" r="3.2" transform="translate(15.1 362.8) rotate(-27.6)"/><circle class="cls-2" cx="247" cy="201.2" r="2.7" transform="translate(5 408.5) rotate(-79.8)"/><circle class="cls-2" cx="1108.1" cy="226.4" r="3.2" transform="translate(566.9 1219.5) rotate(-73)"/><circle class="cls-2" cx="1069.1" cy="218.9" r="3.2" transform="translate(403.4 1083.6) rotate(-64)"/><circle class="cls-2" cx="196.9" cy="215" r="3.1" transform="matrix(0.13, -0.99, 0.99, 0.13, -41.69, 382.6)"/><circle class="cls-2" cx="11.2" cy="199" r="2.8" transform="translate(-125.5 54) rotate(-40.1)"/><circle class="cls-2" cx="1299.3" cy="171.6" r="2.9" transform="matrix(0.95, -0.32, 0.32, 0.95, 13.15, 423.58)"/><circle class="cls-2" cx="1237" cy="193.5" r="3.1" transform="translate(784.4 1360.8) rotate(-77.7)"/><circle class="cls-2" cx="963.1" cy="217.1" r="3" transform="translate(326.9 972.1) rotate(-62.6)"/><circle class="cls-2" cx="540" cy="94.4" r="3" transform="translate(-5.7 42) rotate(-4.4)"/><circle class="cls-2" cx="276.7" cy="104.9" r="2.7" transform="translate(-16.5 145.1) rotate(-28.6)"/><circle class="cls-2" cx="164.4" cy="179.9" r="3.1" transform="translate(-61.1 272.3) rotate(-69.9)"/><circle class="cls-2" cx="110.1" cy="112.9" r="2.8" transform="translate(-47 127) rotate(-50.8)"/><circle class="cls-2" cx="768.6" cy="262.9" r="2.8" transform="translate(293.6 921.9) rotate(-73.1)"/><circle class="cls-2" cx="698.4" cy="220.1" r="3.1" transform="translate(56.6 572.5) rotate(-46.3)"/><circle class="cls-2" cx="1198.1" cy="56.5" r="3.1" transform="translate(18.6 274.1) rotate(-13.2)"/><circle class="cls-2" cx="85.3" cy="151.6" r="3.1" transform="translate(-6.1 3.6) rotate(-2.3)"/><circle class="cls-2" cx="1170.3" cy="169.9" r="2.9" transform="translate(52.9 556.9) rotate(-27.4)"/><circle class="cls-2" cx="1386.3" cy="12.7" r="2.9" transform="translate(256.1 815.5) rotate(-35.9)"/><circle class="cls-2" cx="1228.6" cy="12.2" r="3.1" transform="translate(12.8 189.5) rotate(-8.9)"/><circle class="cls-2" cx="47.4" cy="150.4" r="3" transform="translate(-107.8 178.3) rotate(-82.7)"/><circle class="cls-2" cx="347.4" cy="203.4" r="3.2" transform="translate(2.8 411.6) rotate(-61.5)"/><circle class="cls-2" cx="264.5" cy="218.5" r="2.8" transform="translate(-78.1 237.4) rotate(-42.7)"/><circle class="cls-2" cx="699.6" cy="83.6" r="2.8" transform="translate(20 269.7) rotate(-22.1)"/><circle class="cls-2" cx="71.5" cy="58.8" r="3.2" transform="translate(-19.8 74.4) rotate(-49.1)"/><circle class="cls-2" cx="882" cy="78.6" r="2.9" transform="translate(9.5 230) rotate(-14.9)"/><circle class="cls-2" cx="490.8" cy="132.6" r="3.3" transform="translate(256.5 583.8) rotate(-77.7)"/><circle class="cls-2" cx="362.4" cy="99.2" r="2.9" transform="matrix(0.01, -1, 1, 0.01, 260.12, 460.73)"/><circle class="cls-2" cx="11" cy="149" r="3.3" transform="translate(-14.3 1.8) rotate(-5.5)"/><circle class="cls-2" cx="1310.4" cy="192.3" r="2.9" transform="translate(-4.7 349.6) rotate(-15.2)"/><circle class="cls-2" cx="237.9" cy="102.8" r="2.9" transform="translate(-1.1 203) rotate(-46.1)"/><circle class="cls-2" cx="867.5" cy="151.9" r="3.1" transform="translate(435.4 919.3) rotate(-70.6)"/><circle class="cls-2" cx="628.7" cy="121.5" r="3.2" transform="translate(308.2 675.9) rotate(-70.9)"/><circle class="cls-2" cx="856.5" cy="89" r="2.9" transform="translate(364.4 795.6) rotate(-61.1)"/><circle class="cls-2" cx="390.3" cy="119.4" r="2.7" transform="translate(-17.7 130.6) rotate(-18.6)"/><circle class="cls-2" cx="632.3" cy="29.6" r="3" transform="translate(123.3 405.9) rotate(-39.2)"/><circle class="cls-2" cx="905.7" cy="261.4" r="3" transform="translate(320.2 1000.3) rotate(-67.7)"/><circle class="cls-2" cx="782.7" cy="186.7" r="2.9" transform="translate(2.9 385.1) rotate(-27.7)"/><circle class="cls-2" cx="89.2" cy="129.4" r="3" transform="translate(-63 168.5) rotate(-69.8)"/><circle class="cls-2" cx="953.2" cy="127.6" r="2.9" transform="translate(506.1 979.1) rotate(-69.9)"/><circle class="cls-2" cx="1340.5" cy="53.9" r="2.9" transform="translate(144.9 662.5) rotate(-29.3)"/><circle class="cls-2" cx="636.7" cy="142.5" r="3.2" transform="translate(88.8 496.9) rotate(-45.5)"/><circle class="cls-2" cx="289" cy="181.5" r="2.8" transform="translate(-38.9 276.1) rotate(-48.2)"/><circle class="cls-2" cx="66.5" cy="139.9" r="2.8" transform="translate(-61.6 52.9) rotate(-30.4)"/><circle class="cls-2" cx="463.5" cy="52.9" r="3" transform="translate(276.5 480.4) rotate(-72.9)"/><circle class="cls-2" cx="486.7" cy="182.1" r="2.9" transform="translate(-21 293.1) rotate(-32.8)"/><circle class="cls-2" cx="29.1" cy="136.2" r="2.8" transform="translate(-104.4 96.4) rotate(-61.3)"/><circle class="cls-2" cx="385.3" cy="98" r="3.1" transform="translate(256.7 474.3) rotate(-85.4)"/><circle class="cls-2" cx="1325.7" cy="76.9" r="3.3" transform="translate(924.2 1342.7) rotate(-75.7)"/><circle class="cls-2" cx="318.1" cy="91.5" r="2.9" transform="matrix(1, -0.07, 0.07, 1, -5.37, 21.31)"/><circle class="cls-2" cx="505.4" cy="196.1" r="2.8" transform="translate(90.9 545.5) rotate(-61.3)"/><circle class="cls-2" cx="614.9" cy="185.2" r="2.9" transform="translate(325.3 758.4) rotate(-80)"/><circle class="cls-2" cx="982.1" cy="12.7" r="3.2" transform="translate(0.3 40.1) rotate(-2.3)"/><circle class="cls-2" cx="714.2" cy="179" r="3" transform="translate(124.6 620) rotate(-50.9)"/><circle class="cls-2" cx="975.8" cy="192" r="3" transform="matrix(0.66, -0.75, 0.75, 0.66, 185.92, 796.3)"/><circle class="cls-2" cx="329.9" cy="72.6" r="2.8" transform="translate(123.6 340.1) rotate(-64.8)"/><circle class="cls-2" cx="259" cy="12.7" r="3" transform="translate(33.4 140.6) rotate(-32.4)"/><circle class="cls-2" cx="300.3" cy="11.9" r="2.8" transform="translate(168.1 281.8) rotate(-66.2)"/><circle class="cls-2" cx="731.7" cy="67.5" r="3.3" transform="translate(98.1 439.7) rotate(-35.7)"/><circle class="cls-2" cx="541.6" cy="224.1" r="3.3" transform="translate(-13.4 412.6) rotate(-41.2)"/><circle class="cls-2" cx="1358.2" cy="134.9" r="3.3" transform="translate(1051.9 1464.9) rotate(-82.7)"/><circle class="cls-2" cx="655.1" cy="153.6" r="2.7" transform="translate(181.8 631.8) rotate(-58.5)"/><circle class="cls-2" cx="1272.5" cy="69.2" r="2.8" transform="translate(52.1 436.1) rotate(-19.8)"/><circle class="cls-2" cx="569.8" cy="196.5" r="3.1" transform="translate(233.3 696.5) rotate(-75.1)"/><circle class="cls-2" cx="666.8" cy="237.2" r="3" transform="translate(283.7 832.3) rotate(-76.8)"/><circle class="cls-2" cx="868.4" cy="174.9" r="3.1" transform="translate(5.4 374.9) rotate(-24.4)"/><circle class="cls-2" cx="771.8" cy="203.2" r="2.8" transform="translate(194.4 754.2) rotate(-58.4)"/><circle class="cls-2" cx="1378.3" cy="34.3" r="2.8" transform="matrix(0.73, -0.69, 0.69, 0.73, 354.44, 957.61)"/><circle class="cls-2" cx="746" cy="82.4" r="3.1" transform="translate(353.2 722) rotate(-64.8)"/><circle class="cls-2" cx="1338.5" cy="11.7" r="3.2" transform="translate(71 441.8) rotate(-19.2)"/><circle class="cls-2" cx="655.1" cy="200.2" r="3.2" transform="translate(-26.6 132.9) rotate(-11.4)"/><circle class="cls-2" cx="660.7" cy="25.9" r="3.3" transform="translate(451.8 653.2) rotate(-73.8)"/><circle class="cls-2" cx="1250.9" cy="211.3" r="3.2" transform="translate(523.2 1250.5) rotate(-64.6)"/><circle class="cls-2" cx="1145.8" cy="46.1" r="2.8" transform="translate(231.3 737.9) rotate(-39.4)"/><circle class="cls-2" cx="1227.3" cy="82" r="2.8" transform="translate(52.4 446.1) rotate(-21)"/><circle class="cls-2" cx="1213.4" cy="100.7" r="3.1" transform="translate(98.8 590.6) rotate(-28.5)"/><circle class="cls-2" cx="1067" cy="86.2" r="2.8" transform="translate(14.7 282.8) rotate(-15.2)"/><circle class="cls-2" cx="1118.2" cy="167.5" r="3.1" transform="matrix(0.54, -0.84, 0.84, 0.54, 376.87, 1021.29)"/><circle class="cls-2" cx="1093.4" cy="170.9" r="3.1" transform="translate(854.3 1251.5) rotate(-86.4)"/><circle class="cls-2" cx="1194" cy="115.5" r="3.2" transform="matrix(0.28, -0.96, 0.96, 0.28, 750.77, 1230.15)"/><circle class="cls-2" cx="745.3" cy="31.8" r="2.8" transform="translate(19.5 204.2) rotate(-15.8)"/><circle class="cls-2" cx="1236" cy="165.5" r="2.8" transform="translate(506 1176.6) rotate(-61.8)"/><circle class="cls-2" cx="759.7" cy="128.7" r="2.9" transform="translate(449.9 834.2) rotate(-75.9)"/><circle class="cls-2" cx="1258.1" cy="151.2" r="3.3" transform="translate(-0.7 296.7) rotate(-13.4)"/><circle class="cls-2" cx="832.5" cy="11.6" r="3.2" transform="translate(482 766.9) rotate(-65.9)"/><circle class="cls-2" cx="1016" cy="49.9" r="3" transform="translate(1.3 121.5) rotate(-6.8)"/><circle class="cls-2" cx="128.7" cy="243.2" r="3.2" transform="translate(-129.9 149.2) rotate(-42.1)"/><circle class="cls-2" cx="95.7" cy="63.1" r="2.8" transform="translate(-15.1 33.8) rotate(-18.6)"/><circle class="cls-2" cx="1082" cy="153.7" r="3" transform="matrix(1, -0.07, 0.07, 1, -7.94, 73.85)"/><circle class="cls-2" cx="1173.2" cy="191.7" r="2.8" transform="translate(283.9 980.5) rotate(-50.9)"/><circle class="cls-2" cx="457.4" cy="12.1" r="3.1" transform="translate(70.9 257.1) rotate(-33.9)"/><circle class="cls-2" cx="1026.4" cy="111.4" r="3" transform="translate(-5.9 128.4) rotate(-7.1)"/><circle class="cls-2" cx="447.5" cy="161.4" r="2.8" transform="translate(106.9 493.5) rotate(-64.1)"/><circle class="cls-2" cx="423.3" cy="239.4" r="2.8" transform="translate(175 657.5) rotate(-88.8)"/><circle class="cls-2" cx="110.8" cy="10.9" r="3.3" transform="translate(32.7 90.2) rotate(-51)"/><circle class="cls-2" cx="1402.4" cy="34.9" r="3.2" transform="matrix(1, -0.06, 0.06, 1, 0.21, 77.33)"/><circle class="cls-2" cx="1426.2" cy="12.5" r="3.1" transform="translate(0 28.2) rotate(-1.1)"/><circle class="cls-2" cx="862.4" cy="218" r="3.2" transform="translate(561.4 1055.1) rotate(-84.4)"/><circle class="cls-2" cx="764.3" cy="241.2" r="3" transform="translate(101.9 692.4) rotate(-51.8)"/><circle class="cls-2" cx="199.3" cy="22.7" r="2.8" transform="matrix(0.97, -0.25, 0.25, 0.97, 0.77, 51.33)"/><circle class="cls-2" cx="1273.5" cy="47.2" r="3" transform="translate(113.7 575.3) rotate(-26.6)"/><circle class="cls-2" cx="506" cy="171.6" r="3" transform="translate(-7.7 24.6) rotate(-2.8)"/><circle class="cls-2" cx="393.5" cy="202.4" r="3.1" transform="translate(-20.7 357.9) rotate(-47.8)"/><circle class="cls-2" cx="30.2" cy="110" r="2.9" transform="translate(-82 130.7) rotate(-85.1)"/><circle class="cls-2" cx="531.3" cy="53.7" r="2.8" transform="translate(-2 27.2) rotate(-2.9)"/><circle class="cls-2" cx="911.6" cy="145.7" r="2.8" transform="translate(169.2 694.4) rotate(-45.5)"/><circle class="cls-2" cx="1253.5" cy="232.9" r="2.7" transform="translate(195.6 944.4) rotate(-44.4)"/><circle class="cls-2" cx="442.9" cy="236" r="2.9" transform="translate(-56.6 187.9) rotate(-22.6)"/><circle class="cls-2" cx="607.3" cy="165" r="3.2" transform="translate(343.9 736.5) rotate(-80.5)"/><circle class="cls-2" cx="590.3" cy="187.5" r="3.2" transform="translate(-21.2 285.7) rotate(-26.7)"/><circle class="cls-2" cx="1350.7" cy="74.4" r="2.8" transform="translate(269.3 887.2) rotate(-40.1)"/><circle class="cls-2" cx="1311.6" cy="137.4" r="3" transform="translate(9.3 345.2) rotate(-15)"/><circle class="cls-2" cx="104.8" cy="158.1" r="3.2" transform="translate(-75.5 99.2) rotate(-38.4)"/><circle class="cls-2" cx="698.9" cy="156.5" r="2.8" transform="translate(130.1 591.7) rotate(-50)"/><circle class="cls-2" cx="693" cy="178.8" r="2.8" transform="translate(-17.9 261.8) rotate(-21.1)"/><circle class="cls-2" cx="453.4" cy="119.2" r="2.8" transform="translate(-8.6 199.1) rotate(-24.5)"/><circle class="cls-2" cx="222.9" cy="261.8" r="2.9" transform="translate(-113.1 188.9) rotate(-37.3)"/><circle class="cls-2" cx="342.7" cy="119.3" r="3.2" transform="translate(-14.7 182.4) rotate(-29.2)"/><circle class="cls-2" cx="1301.1" cy="74.1" r="3" transform="translate(982 1337.7) rotate(-79.1)"/><circle class="cls-2" cx="1344.4" cy="261.6" r="2.8" transform="translate(433.8 1284.6) rotate(-59.3)"/><circle class="cls-2" cx="352.1" cy="81" r="2.8" transform="translate(-8.8 64.9) rotate(-10.4)"/><circle class="cls-2" cx="1426.1" cy="261.5" r="2.8" transform="translate(408.3 1294.1) rotate(-55.8)"/><circle class="cls-2" cx="1326.5" cy="175" r="3.2" transform="translate(286.5 1016.8) rotate(-46.5)"/><circle class="cls-2" cx="214" cy="234.5" r="2.9" transform="matrix(0.56, -0.83, 0.83, 0.56, -100.18, 280.28)"/><circle class="cls-2" cx="560.4" cy="11.9" r="2.9" transform="translate(1.5 55) rotate(-5.6)"/><circle class="cls-2" cx="1183" cy="148.5" r="2.9" transform="translate(765.4 1265.3) rotate(-76.7)"/><circle class="cls-2" cx="1091.9" cy="211.6" r="2.7" transform="translate(693.1 1249.9) rotate(-80)"/><circle class="cls-2" cx="1179.4" cy="29.1" r="2.9" transform="translate(458.1 962.6) rotate(-53.7)"/><circle class="cls-2" cx="629.9" cy="231.4" r="3.2" transform="translate(95 636.6) rotate(-57.3)"/><circle class="cls-2" cx="67.2" cy="164.4" r="2.8" transform="translate(-101.9 218.4) rotate(-85.5)"/><circle class="cls-2" cx="673.1" cy="9.8" r="3" transform="translate(503.6 661.3) rotate(-76.3)"/><circle class="cls-2" cx="256.6" cy="111.4" r="3.2" transform="translate(52.6 302.9) rotate(-66.7)"/><circle class="cls-2" cx="474" cy="116.3" r="3" transform="translate(97.4 426.7) rotate(-53.3)"/><circle class="cls-2" cx="243.3" cy="53.1" r="2.9" transform="translate(-5.5 62.3) rotate(-14.4)"/><circle class="cls-2" cx="1410.7" cy="245.1" r="3.3" transform="translate(353.7 1211) rotate(-52.3)"/><circle class="cls-2" cx="784.6" cy="241" r="3" transform="translate(-32.6 163.9) rotate(-11.7)"/><circle class="cls-2" cx="816.7" cy="73.9" r="2.9" transform="translate(40.2 337.4) rotate(-23.9)"/><circle class="cls-2" cx="377.4" cy="139.7" r="3" transform="translate(34.8 350.8) rotate(-52)"/><circle class="cls-2" cx="572.8" cy="59.9" r="2.8" transform="translate(18.8 217.3) rotate(-21.8)"/><circle class="cls-2" cx="285.6" cy="57.6" r="2.9" transform="matrix(0.8, -0.6, 0.6, 0.8, 22.75, 183.31)"/><circle class="cls-2" cx="80.7" cy="78.9" r="2.8" transform="translate(-5.1 152.3) rotate(-84.9)"/><circle class="cls-2" cx="1004.9" cy="113.2" r="3.2" transform="translate(1.8 241.2) rotate(-13.7)"/><circle class="cls-2" cx="614.1" cy="244.9" r="2.9" transform="translate(-44.8 299.5) rotate(-26.5)"/><circle class="cls-2" cx="204.9" cy="114.8" r="3" transform="translate(-14.1 29.8) rotate(-8)"/><circle class="cls-2" cx="1226.5" cy="262.3" r="2.9" transform="translate(443.7 1242.3) rotate(-63.5)"/><circle class="cls-2" cx="176" cy="29.8" r="3.2" transform="translate(142.6 205.2) rotate(-88.8)"/><circle class="cls-2" cx="502.2" cy="242.9" r="3" transform="translate(146.8 672.9) rotate(-76.2)"/><circle class="cls-2" cx="1273.5" cy="133" r="2.9" transform="translate(358.9 1029) rotate(-50.4)"/><circle class="cls-2" cx="431.6" cy="104.1" r="3" transform="translate(280.6 521.6) rotate(-83.7)"/><circle class="cls-2" cx="152.2" cy="35.8" r="2.8" transform="translate(94.1 181) rotate(-81.4)"/><circle class="cls-2" cx="802.8" cy="53.8" r="3" transform="translate(211.4 599.4) rotate(-46.5)"/><circle class="cls-2" cx="130.1" cy="197.3" r="3.2" transform="translate(-19.5 14.3) rotate(-5.9)"/><circle class="cls-2" cx="159.8" cy="12.4" r="3.1" transform="translate(8.1 64) rotate(-23.2)"/><circle class="cls-2" cx="716.2" cy="27.7" r="3" transform="translate(198.8 523.6) rotate(-46)"/><circle class="cls-2" cx="805.1" cy="198.4" r="2.7" transform="translate(39.4 516.6) rotate(-36.4)"/><circle class="cls-2" cx="737.8" cy="104.5" r="2.9" transform="translate(629.1 841.7) rotate(-89.7)"/><circle class="cls-2" cx="961.3" cy="261.2" r="3" transform="translate(-34.8 247.8) rotate(-14.4)"/><circle class="cls-2" cx="11.5" cy="263.2" r="2.9" transform="translate(-11.1 0.7) rotate(-2.4)"/><circle class="cls-2" cx="1232.7" cy="142.6" r="2.9" transform="translate(569.3 1191.3) rotate(-64.3)"/><circle class="cls-2" cx="1023.6" cy="207.4" r="2.8" transform="translate(466.5 1090.8) rotate(-69.2)"/><circle class="cls-2" cx="759.5" cy="11.9" r="3.1" transform="translate(82 355.4) rotate(-27.8)"/><circle class="cls-2" cx="1118.2" cy="10.9" r="3.2" transform="translate(633.4 1018.6) rotate(-64.9)"/><circle class="cls-2" cx="520.1" cy="228.6" r="2.8" transform="translate(49.2 546.4) rotate(-57.7)"/><circle class="cls-2" cx="875.1" cy="199.4" r="2.8" transform="translate(546.2 1034.4) rotate(-81.3)"/><circle class="cls-2" cx="432.6" cy="126.4" r="2.7" transform="translate(16 298.2) rotate(-38.7)"/><circle class="cls-2" cx="1308.4" cy="96.9" r="3" transform="translate(96.8 600.1) rotate(-26.8)"/><circle class="cls-2" cx="471" cy="31.2" r="3.1" transform="translate(61.2 265.5) rotate(-33.6)"/><circle class="cls-2" cx="209.8" cy="166.5" r="2.8" transform="translate(-57 190.7) rotate(-43.6)"/><circle class="cls-2" cx="1040.6" cy="191.1" r="3.3" transform="translate(104.2 683.6) rotate(-38.1)"/><circle class="cls-2" cx="805.8" cy="153.4" r="3.1" transform="translate(453.5 894.1) rotate(-75.3)"/><circle class="cls-2" cx="1365.5" cy="54.2" r="2.8" transform="translate(131.5 641.3) rotate(-27.7)"/><circle class="cls-2" cx="1187.7" cy="208" r="2.8" transform="translate(504.8 1201.8) rotate(-65.4)"/><circle class="cls-2" cx="73.3" cy="261.4" r="3.2" transform="translate(-58 23.8) rotate(-13.3)"/><circle class="cls-2" cx="721.3" cy="139.4" r="2.9" transform="translate(180 636) rotate(-53.5)"/><circle class="cls-2" cx="1202.7" cy="12.3" r="2.9" transform="translate(281.4 785.5) rotate(-40.6)"/><circle class="cls-2" cx="688.2" cy="26.2" r="3.2" transform="translate(54.1 295) rotate(-25.2)"/><circle class="cls-2" cx="851.7" cy="111.8" r="2.9" transform="translate(205.3 677.5) rotate(-48.7)"/><circle class="cls-2" cx="30.8" cy="212.4" r="2.9" transform="translate(-141.1 83.9) rotate(-45)"/><circle class="cls-2" cx="1045.4" cy="122.9" r="2.9" transform="translate(718.8 1123.6) rotate(-78.6)"/><circle class="cls-2" cx="995.3" cy="175.5" r="3.2" transform="translate(61 560.7) rotate(-32.4)"/><circle class="cls-2" cx="1331.3" cy="32.4" r="2.8" transform="translate(734.1 1222.7) rotate(-64.7)"/><circle class="cls-2" cx="888" cy="117.5" r="3" transform="translate(168.1 650.6) rotate(-44.1)"/><circle class="cls-2" cx="699.3" cy="133.4" r="3" transform="translate(426.6 791) rotate(-78.3)"/><circle class="cls-2" cx="1362.2" cy="94.3" r="3.1" transform="translate(293.9 944.7) rotate(-42.5)"/><circle class="cls-2" cx="1108" cy="264.5" r="3" transform="translate(636.2 1301.4) rotate(-79)"/><circle class="cls-2" cx="1424.3" cy="151.2" r="3" transform="translate(501.8 1246.8) rotate(-56)"/><circle class="cls-2" cx="1085" cy="260.8" r="3.2" transform="translate(669.3 1296.4) rotate(-81.6)"/><circle class="cls-2" cx="954.4" cy="63.5" r="2.8" transform="translate(-0.4 5.5) rotate(-0.3)"/><circle class="cls-2" cx="651.2" cy="220.7" r="2.8" transform="translate(3.9 452.6) rotate(-38.4)"/><circle class="cls-2" cx="608.5" cy="223.4" r="2.8" transform="translate(111 638.9) rotate(-60)"/><circle class="cls-2" cx="188.3" cy="151.5" r="3.1" transform="translate(-8.3 292.1) rotate(-74.4)"/><circle class="cls-2" cx="220.4" cy="210.5" r="2.9" transform="translate(-73.8 131.1) rotate(-28.6)"/><circle class="cls-2" cx="506" cy="65.3" r="3" transform="translate(45.1 284.1) rotate(-32.7)"/><circle class="cls-2" cx="1425.7" cy="104.8" r="3" transform="translate(143.6 737) rotate(-30.5)"/><circle class="cls-2" cx="1131.8" cy="260.1" r="2.9" transform="translate(79.2 750.6) rotate(-37.9)"/><circle class="cls-2" cx="732.8" cy="11.5" r="2.9" transform="translate(458.8 691.2) rotate(-68.9)"/><circle class="cls-2" cx="1011.9" cy="29.6" r="2.7" transform="translate(49.5 343.5) rotate(-19.7)"/><circle class="cls-2" cx="310.7" cy="31.7" r="3" transform="translate(189.1 319.3) rotate(-72.9)"/><circle class="cls-2" cx="817.6" cy="32.4" r="3" transform="translate(547.8 804.9) rotate(-73)"/><circle class="cls-2" cx="699.2" cy="107.3" r="2.8" transform="translate(173 580.1) rotate(-50.7)"/><circle class="cls-2" cx="366.4" cy="119.7" r="3.1" transform="translate(-7.2 24.7) rotate(-3.8)"/><circle class="cls-2" cx="311.6" cy="182.3" r="2.9" transform="translate(9.2 379.6) rotate(-63.4)"/><circle class="cls-2" cx="157.8" cy="61.7" r="3.1" transform="translate(74.8 209.5) rotate(-82)"/><circle class="cls-2" cx="1081.9" cy="192.3" r="2.9" transform="translate(861.1 1268.7) rotate(-88.5)"/><circle class="cls-2" cx="1068" cy="241.3" r="3" transform="translate(305.8 1027.4) rotate(-58.6)"/><circle class="cls-2" cx="722.3" cy="218.2" r="3.1" transform="translate(-26.3 312.4) rotate(-24)"/><circle class="cls-2" cx="782.3" cy="95.1" r="3.2" transform="translate(100.2 489.8) rotate(-37)"/><circle class="cls-2" cx="1169.3" cy="246" r="3.1" transform="translate(807.6 1384.9) rotate(-84.3)"/><circle class="cls-2" cx="277.4" cy="240.6" r="3" transform="matrix(1, -0.09, 0.09, 1, -21.36, 27.1)"/><circle class="cls-2" cx="1408.9" cy="94.4" r="3.1" transform="translate(730.5 1332.8) rotate(-65.1)"/><circle class="cls-2" cx="1124.4" cy="127" r="2.9" transform="matrix(0.36, -0.93, 0.93, 0.36, 604.41, 1131.98)"/><circle class="cls-2" cx="586.3" cy="11.2" r="3.3" transform="translate(48.6 245.2) rotate(-24.6)"/><circle class="cls-2" cx="1159.1" cy="148.4" r="2.9" transform="translate(-8.8 110.5) rotate(-5.4)"/><circle class="cls-2" cx="338" cy="98.4" r="3.1" transform="translate(13.6 235.1) rotate(-39.1)"/><circle class="cls-2" cx="1311.7" cy="12.5" r="2.9" transform="translate(404.5 960) rotate(-46.8)"/><circle class="cls-2" cx="1357.3" cy="195.8" r="2.8" transform="translate(189.7 915) rotate(-39.8)"/><circle class="cls-2" cx="643.4" cy="104.1" r="2.9" transform="translate(116.8 488.1) rotate(-45.3)"/><circle class="cls-2" cx="108.4" cy="237.9" r="3" transform="translate(-152.9 229.5) rotate(-63.7)"/><circle class="cls-2" cx="897" cy="98.2" r="3" transform="translate(406.8 855.8) rotate(-63.3)"/><circle class="cls-2" cx="1221.7" cy="122" r="3.1" transform="translate(637.8 1202.1) rotate(-67.3)"/><circle class="cls-2" cx="1402.7" cy="73.1" r="3.1" transform="translate(6.6 227.5) rotate(-9.3)"/><circle class="cls-2" cx="914.6" cy="187.5" r="3" transform="translate(7.1 406.8) rotate(-25.2)"/><circle class="cls-2" cx="198.4" cy="60.7" r="3" transform="translate(-1.9 6.8) rotate(-1.9)"/><circle class="cls-2" cx="11.7" cy="243.3" r="3" transform="translate(-188 103.8) rotate(-52.3)"/><circle class="cls-2" cx="744.7" cy="228.7" r="3" transform="translate(375.9 914.9) rotate(-78.8)"/><circle class="cls-2" cx="1215" cy="240.9" r="3" transform="translate(797.8 1407.2) rotate(-81.5)"/><circle class="cls-2" cx="29.8" cy="188.4" r="3" transform="translate(-158.3 157.1) rotate(-71.6)"/><circle class="cls-2" cx="1383.9" cy="220.1" r="3" transform="translate(966.9 1557.9) rotate(-81.7)"/><circle class="cls-2" cx="885.7" cy="261" r="3.1" transform="translate(172.1 847) rotate(-55.8)"/><circle class="cls-2" cx="508.3" cy="147.3" r="3.2" transform="translate(-20.8 134.1) rotate(-14.7)"/><circle class="cls-2" cx="846.1" cy="167" r="2.9" transform="translate(-11.1 262) rotate(-17.5)"/><circle class="cls-2" cx="896.7" cy="58" r="2.8" transform="translate(740.4 942.9) rotate(-83.7)"/><circle class="cls-2" cx="51.6" cy="245.2" r="2.9" transform="translate(-99.7 45.4) rotate(-25.2)"/><circle class="cls-2" cx="407.7" cy="187.7" r="3.3" transform="translate(-25.7 70.8) rotate(-9.6)"/><circle class="cls-2" cx="337.3" cy="52.2" r="3" transform="translate(186.6 358.4) rotate(-72.6)"/><circle class="cls-2" cx="1407" cy="12.7" r="3" transform="translate(313.2 897.8) rotate(-39.5)"/><circle class="cls-2" cx="865.7" cy="32.9" r="2.8" transform="translate(260.9 653.2) rotate(-47.9)"/><circle class="cls-2" cx="769.7" cy="33.4" r="2.8" transform="translate(505.5 757.1) rotate(-72.4)"/><circle class="cls-2" cx="598.4" cy="28.4" r="2.9" transform="translate(261.7 523.9) rotate(-58.5)"/><circle class="cls-2" cx="272.2" cy="196.4" r="3.3" transform="translate(36.4 435.2) rotate(-81.2)"/><circle class="cls-2" cx="1363.4" cy="12.3" r="3" transform="translate(431 1007.1) rotate(-47.4)"/><circle class="cls-2" cx="269.2" cy="129.9" r="3.1" transform="translate(-16.7 42.7) rotate(-8.8)"/><circle class="cls-2" cx="930.2" cy="121.4" r="2.8" transform="translate(-7.4 150) rotate(-9.2)"/><circle class="cls-2" cx="1018.3" cy="182.7" r="3.3" transform="translate(398.7 1011.2) rotate(-63.4)"/><circle class="cls-2" cx="312.7" cy="222.8" r="3.1" transform="translate(14.9 465.2) rotate(-74.6)"/><circle class="cls-2" cx="1084.7" cy="73.4" r="2.8" transform="translate(107.5 550) rotate(-29.9)"/><circle class="cls-2" cx="323" cy="203.6" r="3.1" transform="translate(68 487.8) rotate(-80.3)"/><circle class="cls-2" cx="1290.3" cy="237.3" r="3.2" transform="translate(270.3 1062.3) rotate(-49.4)"/><circle class="cls-2" cx="942.6" cy="260.3" r="2.7" transform="translate(348.7 1037.1) rotate(-68)"/><circle class="cls-2" cx="109.7" cy="136.3" r="3.1" transform="translate(-59.7 180.3) rotate(-65.7)"/><circle class="cls-2" cx="1247.8" cy="127.1" r="3.1" transform="translate(188.7 799) rotate(-38.2)"/><circle class="cls-2" cx="794" cy="33.1" r="2.7" transform="translate(104.3 427.8) rotate(-32.2)"/><circle class="cls-2" cx="1424.5" cy="192.5" r="2.8" transform="translate(344.7 1141.3) rotate(-49)"/><circle class="cls-2" cx="864.2" cy="262" r="2.8" transform="translate(468 1073.4) rotate(-80.8)"/><circle class="cls-2" cx="31.6" cy="260.9" r="3.3" transform="translate(-231.1 252.9) rotate(-81.3)"/><circle class="cls-2" cx="246.2" cy="31.7" r="2.9" transform="translate(190.1 273.5) rotate(-84.3)"/><circle class="cls-2" cx="182.9" cy="73.9" r="3.2" transform="translate(-14.4 72.8) rotate(-21.7)"/><circle class="cls-2" cx="1197.2" cy="35.1" r="2.9" transform="matrix(1, -0.05, 0.05, 1, -0.23, 61.44)"/><circle class="cls-2" cx="817.5" cy="217.1" r="2.9" transform="translate(-2.1 426.3) rotate(-29.2)"/><circle class="cls-2" cx="502" cy="219" r="3" transform="translate(-45.7 221.2) rotate(-23.8)"/><circle class="cls-2" cx="888.2" cy="220.6" r="3.1" transform="translate(274.4 899.5) rotate(-61.8)"/><circle class="cls-2" cx="1395.7" cy="159.2" r="2.9" transform="translate(730.4 1396.4) rotate(-68.2)"/><circle class="cls-2" cx="551.3" cy="243.7" r="3.2" transform="translate(-43.1 143.6) rotate(-14.3)"/><circle class="cls-2" cx="829.4" cy="147.8" r="3.3" transform="translate(241.4 751.1) rotate(-55.8)"/><circle class="cls-2" cx="509.7" cy="45.4" r="2.7" transform="translate(188.3 443.6) rotate(-56.2)"/><circle class="cls-2" cx="1425.1" cy="214.1" r="2.8" transform="translate(174.6 930.4) rotate(-38.4)"/><circle class="cls-2" cx="876.2" cy="239.5" r="3.1" transform="translate(-31.4 276) rotate(-17.6)"/><circle class="cls-2" cx="1316.4" cy="156.2" r="3.1" transform="translate(517 1213.7) rotate(-59.7)"/><circle class="cls-2" cx="48.1" cy="175.9" r="3" transform="translate(-111.5 87.6) rotate(-45.8)"/><circle class="cls-2" cx="222.6" cy="34" r="2.8" transform="translate(7.8 101.4) rotate(-26.1)"/><circle class="cls-2" cx="423.8" cy="26.9" r="2.8" transform="translate(211.8 394.8) rotate(-63.7)"/><circle class="cls-2" cx="728.4" cy="195.9" r="3.3" transform="translate(-24.5 242.3) rotate(-18.6)"/><circle class="cls-2" cx="528.3" cy="246.5" r="3.3" transform="translate(250.4 759) rotate(-86.5)"/><circle class="cls-2" cx="123.7" cy="91.3" r="2.9" transform="translate(-12.6 162.4) rotate(-64)"/><circle class="cls-2" cx="1001.7" cy="136.8" r="3.3" transform="translate(338.3 899.6) rotate(-56.8)"/><circle class="cls-2" cx="899.3" cy="202.5" r="3.1" transform="translate(353.3 945.2) rotate(-66.4)"/><circle class="cls-2" cx="1217.5" cy="178.7" r="3" transform="translate(24.5 480.3) rotate(-22.5)"/><circle class="cls-2" cx="834.9" cy="124.9" r="3" transform="translate(-2.6 18.6) rotate(-1.3)"/><circle class="cls-2" cx="1339.4" cy="218" r="3.3" transform="matrix(0.09, -1, 1, 0.09, 1004.85, 1533.18)"/><circle class="cls-2" cx="415.4" cy="262" r="2.7" transform="translate(-28.1 51.1) rotate(-6.8)"/><circle class="cls-2" cx="1241.8" cy="32.7" r="2.8" transform="translate(184.9 685.4) rotate(-33.2)"/><circle class="cls-2" cx="255.2" cy="240.2" r="2.9" transform="translate(-71.5 367.2) rotate(-64.5)"/><circle class="cls-2" cx="839.8" cy="206.6" r="2.8" transform="translate(356.5 923.8) rotate(-69.8)"/><circle class="cls-2" cx="676" cy="191" r="3.2" transform="translate(396 835.3) rotate(-82.3)"/><circle class="cls-2" cx="953.5" cy="37.2" r="2.9" transform="translate(156.8 562.4) rotate(-35.6)"/><circle class="cls-2" cx="117.3" cy="262.1" r="2.9" transform="translate(-113.2 90.9) rotate(-29.3)"/><circle class="cls-2" cx="1287.9" cy="261.7" r="2.8" transform="matrix(0.28, -0.96, 0.96, 0.28, 674.41, 1423.99)"/><circle class="cls-2" cx="1026.1" cy="90.9" r="3.2" transform="translate(111.2 564.2) rotate(-32.4)"/><circle class="cls-2" cx="434.4" cy="10.9" r="3.1" transform="translate(50.8 215.2) rotate(-29.5)"/><circle class="cls-2" cx="70.2" cy="95.4" r="2.8" transform="translate(-34.3 39.7) rotate(-25.6)"/><circle class="cls-2" cx="322.5" cy="161" r="2.8" transform="translate(75.7 423.7) rotate(-73.3)"/><circle class="cls-2" cx="165.8" cy="85.3" r="3.1" transform="translate(30.7 213.8) rotate(-70.8)"/><circle class="cls-2" cx="970.8" cy="143" r="3.1" transform="translate(318.9 876.4) rotate(-56.7)"/><circle class="cls-2" cx="965.1" cy="108.2" r="3.3" transform="translate(279.6 796.2) rotate(-51.5)"/><circle class="cls-2" cx="413.1" cy="122.2" r="3.1" transform="translate(-17.7 119.9) rotate(-16.2)"/><circle class="cls-2" cx="809.1" cy="11.9" r="3.2" transform="translate(0.8 50) rotate(-3.5)"/><circle class="cls-2" cx="1152.4" cy="85.9" r="3.2" transform="translate(351.1 918.5) rotate(-50.4)"/><circle class="cls-2" cx="131.1" cy="132.5" r="2.8" transform="translate(-12.9 250.9) rotate(-84.7)"/><circle class="cls-2" cx="747.1" cy="209.3" r="3" transform="translate(274.8 824.8) rotate(-68.1)"/><circle class="cls-2" cx="1354.4" cy="33.1" r="2.8" transform="translate(44.2 377.8) rotate(-16.1)"/><circle class="cls-2" cx="1390.9" cy="241.6" r="2.9" transform="translate(680.2 1461.3) rotate(-69.6)"/><circle class="cls-2" cx="788.2" cy="137.3" r="3.2" transform="translate(57.4 462.9) rotate(-33.9)"/><circle class="cls-2" cx="367" cy="161.4" r="2.9" transform="translate(51.3 408.5) rotate(-61.8)"/><circle class="cls-2" cx="334.2" cy="183" r="2.7" transform="translate(2.2 369.9) rotate(-58.1)"/><circle class="cls-2" cx="1318.6" cy="213.5" r="3" transform="translate(21.9 534.3) rotate(-23.1)"/><circle class="cls-2" cx="1103" cy="86.1" r="2.8" transform="translate(171.4 683) rotate(-37.1)"/><circle class="cls-2" cx="12.2" cy="52.3" r="3" transform="translate(-40.8 61.4) rotate(-86.7)"/><circle class="cls-2" cx="1247.1" cy="74.5" r="2.9"/><circle class="cls-2" cx="1205.4" cy="76.5" r="2.8" transform="matrix(0.65, -0.76, 0.76, 0.65, 369.04, 947.94)"/><circle class="cls-2" cx="253.4" cy="179.5" r="2.8" transform="translate(-50.8 117.4) rotate(-23.8)"/><circle class="cls-2" cx="1235.6" cy="241.2" r="3.3" transform="translate(117 818.9) rotate(-38.4)"/><circle class="cls-2" cx="337.9" cy="223.7" r="3.2" transform="matrix(0.54, -0.84, 0.84, 0.54, -33.77, 385.13)"/><circle class="cls-2" cx="1311.2" cy="36.4" r="3.1" transform="translate(1116 1333.5) rotate(-83)"/><circle class="cls-2" cx="1139.8" cy="213" r="3" transform="translate(77.2 677.1) rotate(-34.2)"/><circle class="cls-2" cx="982.1" cy="124.7" r="3.2" transform="translate(11.3 318.7) rotate(-18.5)"/><circle class="cls-2" cx="1218.2" cy="35" r="2.7" transform="matrix(0.98, -0.19, 0.19, 0.98, 15.61, 232.55)"/><circle class="cls-2" cx="924.3" cy="261.5" r="2.8" transform="translate(398.4 1065.4) rotate(-72.6)"/><circle class="cls-2" cx="615" cy="12.1" r="2.7" transform="translate(68.7 294.8) rotate(-28.5)"/><circle class="cls-2" cx="812" cy="132.1" r="3.3" transform="translate(368.9 825.1) rotate(-66.6)"/><circle class="cls-2" cx="1351.2" cy="174.3" r="3.3" transform="translate(-11.1 186.2) rotate(-7.9)"/><circle class="cls-2" cx="87.9" cy="199" r="2.8" transform="translate(-128.5 221.6) rotate(-72.1)"/><circle class="cls-2" cx="518.2" cy="100.6" r="3" transform="translate(-4.9 29.7) rotate(-3.3)"/><circle class="cls-2" cx="149.9" cy="239.6" r="3.1" transform="translate(-78 72.4) rotate(-21.7)"/><circle class="cls-2" cx="954.1" cy="198" r="3" transform="translate(-18.4 137.4) rotate(-8.2)"/><circle class="cls-2" cx="1040.6" cy="54.3" r="2.9" transform="translate(423.8 894.1) rotate(-56.7)"/><circle class="cls-2" cx="1000.5" cy="262.6" r="3.3" transform="translate(396.6 1102.4) rotate(-69)"/><circle class="cls-2" cx="332.2" cy="32.4" r="3.2" transform="translate(30.9 176) rotate(-31.1)"/><circle class="cls-2" cx="728.4" cy="242.3" r="3" transform="translate(138.5 733.6) rotate(-58.2)"/><circle class="cls-2" cx="89.7" cy="175.3" r="3.1" transform="translate(-106.6 160.8) rotate(-58.7)"/><circle class="cls-2" cx="89.3" cy="222.6" r="2.9" transform="translate(-143 162.9) rotate(-53.7)"/><circle class="cls-2" cx="321.9" cy="11.7" r="3.1" transform="matrix(0.55, -0.83, 0.83, 0.55, 133.73, 273.19)"/><circle class="cls-2" cx="221.2" cy="57.1" r="3.2" transform="translate(3.4 126) rotate(-32)"/><circle class="cls-2" cx="206.9" cy="140.2" r="2.8" transform="translate(-36.8 195.4) rotate(-46.9)"/><circle class="cls-2" cx="290.2" cy="35.9" r="3.3"/><circle class="cls-2" cx="460.8" cy="239.7" r="2.9" transform="translate(-52.1 321.5) rotate(-36.5)"/><circle class="cls-2" cx="1361.5" cy="217.8" r="3.1" transform="translate(783.8 1469.7) rotate(-74.3)"/><circle class="cls-2" cx="997" cy="64.1" r="3.3" transform="translate(383.8 852.8) rotate(-55.8)"/><circle class="cls-2" cx="839.2" cy="72.3" r="3.1" transform="translate(51.6 370.9) rotate(-25.7)"/><circle class="cls-2" cx="703.5" cy="10.1" r="2.7" transform="translate(212.1 513.7) rotate(-46.5)"/><circle class="cls-2" cx="1039.3" cy="169.2" r="3" transform="translate(562.1 1107.9) rotate(-72.3)"/><circle class="cls-2" cx="148.5" cy="98.3" r="3" transform="translate(-22.1 47.3) rotate(-16.9)"/><circle class="cls-2" cx="261.9" cy="64.5" r="3" transform="translate(124.8 296.9) rotate(-73.3)"/><circle class="cls-2" cx="1118.2" cy="209" r="3" transform="translate(22.7 515.6) rotate(-26.2)"/><circle class="cls-2" cx="408.5" cy="11.8" r="2.9" transform="translate(309 408.2) rotate(-77.6)"/><circle class="cls-2" cx="70" cy="236" r="2.9" transform="translate(-130.4 93) rotate(-38)"/><circle class="cls-2" cx="290" cy="262.1" r="2.8" transform="translate(-83.3 146.2) rotate(-24.9)"/><circle class="cls-2" cx="390.6" cy="262.3" r="2.8" transform="translate(-27.6 46.8) rotate(-6.6)"/><circle class="cls-2" cx="153.3" cy="197.6" r="3" transform="translate(-89.6 137.9) rotate(-38.4)"/><circle class="cls-2" cx="980.8" cy="261.2" r="3.3" transform="translate(-14.7 458.9) rotate(-26.1)"/><circle class="cls-2" cx="1239.4" cy="103" r="3.1" transform="translate(128.7 662.5) rotate(-31.5)"/><circle class="cls-2" cx="1309.7" cy="233.8" r="3.1" transform="translate(450.3 1249.3) rotate(-59.9)"/><circle class="cls-2" cx="1092" cy="11.9" r="2.8" transform="translate(600.4 987) rotate(-63.9)"/><circle class="cls-2" cx="1261.4" cy="91.2" r="3.2" transform="translate(70.1 515.8) rotate(-23.8)"/><circle class="cls-2" cx="1421.8" cy="55.9" r="3" transform="translate(236 842.3) rotate(-35.8)"/><circle class="cls-2" cx="1178.3" cy="75.7" r="3.1" transform="translate(189.8 721.4) rotate(-36.8)"/><circle class="cls-2" cx="1189.2" cy="94.3" r="3" transform="translate(555 1104.7) rotate(-62.4)"/><circle class="cls-2" cx="560.6" cy="91" r="3.1" transform="translate(164.5 497.9) rotate(-55)"/><circle class="cls-2" cx="1129.3" cy="234.8" r="2.8" transform="translate(193.3 909) rotate(-47.5)"/><circle class="cls-2" cx="233.3" cy="242.8" r="3.2" transform="matrix(0.11, -0.99, 0.99, 0.11, -33.84, 447.69)"/><circle class="cls-2" cx="257.4" cy="87.8" r="3.2" transform="translate(-14.2 102.5) rotate(-21.9)"/><circle class="cls-2" cx="680" cy="121.2" r="3.1" transform="translate(4.5 265.2) rotate(-22.1)"/><circle class="cls-2" cx="1400.4" cy="116.5" r="2.9" transform="translate(295.8 985.2) rotate(-42.9)"/><circle class="cls-2" cx="614.7" cy="70.9" r="2.7" transform="translate(12.6 213.5) rotate(-19.9)"/><circle class="cls-2" cx="1105.7" cy="190.2" r="3.1" transform="translate(151.7 780.7) rotate(-41.5)"/><circle class="cls-2" cx="792" cy="74.4" r="3.2" transform="translate(236 643.3) rotate(-51)"/></g></g></svg>