<?xml version="1.0" encoding="UTF-8" standalone="no"?>
<!DOCTYPE svg PUBLIC "-//W3C//DTD SVG 1.1//EN" "http://www.w3.org/Graphics/SVG/1.1/DTD/svg11.dtd">
<svg width="100%" height="100%" viewBox="0 0 5479 6555" version="1.1" xmlns="http://www.w3.org/2000/svg" xmlns:xlink="http://www.w3.org/1999/xlink" xml:space="preserve" style="fill-rule:evenodd;clip-rule:evenodd;stroke-linejoin:round;stroke-miterlimit:1.41421;">
    <g transform="matrix(1,0,0,1,-5999.85,-7873.72)">
        <g id="画板1" transform="matrix(1.53602,0,0,1.31205,6052.07,7881.59)">
            <rect x="-34" y="-6" width="3567" height="4996" style="fill:none;"/>
            <clipPath id="_clip1">
                <rect x="-34" y="-6" width="3567" height="4996"/>
            </clipPath>
            <g clip-path="url(#_clip1)">
                <g transform="matrix(0.768378,-0.177008,0.129151,0.768378,-397.927,489.528)">
                    <g>
                        <g transform="matrix(0.422641,0,0,0.494789,-159.101,-3407.27)">
                            <path d="M2493.5,10109C3217.34,10109 3805,10590.9 3805,11184.5C3805,11778.1 3217.34,11854.7 2493.5,11854.7C1769.66,11854.7 1182,11778.1 1182,11184.5C1182,10590.9 1769.66,10109 2493.5,10109Z" style="fill:rgb(191,83,64);"/>
                        </g>
                        <g transform="matrix(0.422641,0,0,0.494789,-261.987,-2652.27)">
                            <path d="M1851,9481C1721.89,9658.13 2132.07,9818.97 2866,9776C3599.93,9733.03 3489.45,9409.01 3309,9331C3128.55,9253 3206.56,9505.3 2656,9535C2068.51,9566.69 2083.41,9162.12 1851,9481Z" style="fill:url(#_Linear2);"/>
                        </g>
                        <g transform="matrix(0.651031,0,0,0.762166,-483.863,-4820.39)">
                            <circle cx="1734" cy="9347" r="33" style="fill:white;"/>
                        </g>
                        <g transform="matrix(0.651031,0,0,0.762166,-232.895,-4807.21)">
                            <circle cx="1734" cy="9347" r="33" style="fill:white;"/>
                        </g>
                        <g transform="matrix(-0.295645,-0.353584,0.302026,-0.346113,-1301.6,6048.73)">
                            <path d="M1647.66,9703.1C1652.55,9620.33 1418.85,9649.62 1496.71,9318.49C1570.4,9005.1 1666.97,9069.03 1734.63,8984.1C1735.74,8982.71 1807.18,8941.36 1825.63,8895.93C1841.76,8856.22 1830.82,8807.46 1734.63,8927.1C1703.11,8966.31 1773.37,8817.64 1759.31,8774.87C1738.5,8711.54 1713.97,8801.25 1695.63,8826.87C1682.83,8844.77 1650.94,8917.22 1647.66,8914.08C1612.03,8879.82 1714.61,8768.28 1705.63,8751.87C1690.69,8724.57 1677.75,8729.22 1647.66,8751.87C1606.23,8783.06 1532.03,8852.78 1505.31,8895.93C1362.02,9127.37 1267.1,9346.83 1287.35,9622.17C1294.3,9716.56 1353.36,9821.43 1467.39,9815.08C1489.35,9813.86 1643.49,9773.72 1647.66,9703.1Z" style="fill:url(#_Linear3);"/>
                        </g>
                        <g transform="matrix(0.000103781,0.494789,-0.422641,0.000121497,4365.6,1570.01)">
                            <path d="M1006.99,9360.34C1013.94,9454.73 981.739,9600.14 1308.17,9504.43C1688.57,9392.89 1666.97,9069.03 1734.63,8984.1C1735.74,8982.71 1807.18,8941.36 1825.63,8895.93C1841.76,8856.22 1830.82,8807.46 1734.63,8927.1C1703.11,8966.31 1773.37,8817.64 1759.31,8774.87C1738.5,8711.54 1713.97,8801.25 1695.63,8826.87C1682.83,8844.77 1650.94,8917.22 1647.66,8914.08C1612.03,8879.82 1714.61,8768.28 1705.63,8751.87C1690.69,8724.57 1677.75,8729.22 1647.66,8751.87C1606.23,8783.06 1501.29,8845.34 1505.31,8895.93C1549.69,9453.56 986.742,9085.01 1006.99,9360.34Z" style="fill:url(#_Linear4);"/>
                        </g>
                    </g>
                </g>
                <g transform="matrix(0.310648,-0.669803,0.572136,0.363678,-4689.85,-999.973)">
                    <path d="M1152.74,10719C1192.63,10922.3 866.085,11699 1392.09,11699C1467.39,11699 1606.32,11720 1647,11602C1672.41,11528.3 1620.61,11434.7 1546,11413C1348.33,11355.5 1299.29,11466.6 1299.29,11452.5C1299.29,11254.6 1283.6,11047.5 1314.13,10851.8C1325.79,10777.1 1350.49,10703 1350.49,10626.9C1350.49,10462.3 1311.05,10431.6 1152.74,10479C1103.13,10493.9 1137.34,10640.5 1152.74,10719Z" style="fill:url(#_Linear5);"/>
                </g>
                <g id="图层.-1" transform="matrix(8.00236,0,0,9.36841,555.258,707.598)">
                    <path d="M138.385,174.416C129.441,168.276 117.12,173.035 114.625,183.593C111.084,198.573 90.199,199.711 85.053,185.203C81.426,174.979 68.661,171.586 60.437,178.661C48.767,188.7 31.202,177.345 35.566,162.582C38.642,152.178 30.309,141.932 19.496,142.821C4.155,144.083 -3.381,124.572 8.826,115.194C17.43,108.585 16.711,95.397 7.442,89.761C-5.713,81.765 -0.341,61.551 15.048,61.139C25.893,60.849 33.064,49.758 28.876,39.749C22.935,25.548 39.162,12.352 51.854,21.064C60.798,27.204 73.118,22.446 75.614,11.888C79.155,-3.093 100.039,-4.23 105.186,10.277C108.813,20.502 121.577,23.894 129.802,16.819C141.472,6.78 159.036,18.136 154.673,32.898C151.597,43.302 159.93,53.549 170.742,52.659C186.084,51.397 193.619,70.908 181.412,80.286L181.412,80.287C172.809,86.895 173.528,100.083 182.797,105.719C195.951,113.716 190.579,133.93 175.191,134.342C164.346,134.632 157.175,145.723 161.363,155.731C167.304,169.932 151.076,183.128 138.385,174.416" style="fill:url(#_Linear6);fill-rule:nonzero;"/>
                    <path d="M143.777,133.626C144.477,138.851 139.471,145.141 132.596,147.675C125.72,150.209 119.579,148.028 118.879,142.803C118.178,137.578 124.452,139.867 131.328,137.333C138.203,134.799 143.076,128.401 143.777,133.626" style="fill:rgb(242,242,242);fill-rule:nonzero;"/>
                    <path d="M105.619,131.24C105.619,134.001 103.381,136.24 100.619,136.24C97.857,136.24 95.619,134.001 95.619,131.24C95.619,128.479 97.857,126.24 100.619,126.24C103.381,126.24 105.619,128.479 105.619,131.24" style="fill:rgb(242,242,242);fill-rule:nonzero;"/>
                    <path d="M153.619,111.24C153.619,114.001 151.381,116.24 148.619,116.24C145.857,116.24 143.619,114.001 143.619,111.24C143.619,108.479 145.857,106.24 148.619,106.24C151.381,106.24 153.619,108.479 153.619,111.24" style="fill:rgb(242,242,242);fill-rule:nonzero;"/>
                </g>
                <g transform="matrix(2.06306,-1.03855,0.786369,2.14095,-11250.7,-19142)">
                    <circle cx="2479.5" cy="11969.5" r="220.5" style="fill:url(#_Linear7);"/>
                </g>
                <g transform="matrix(1.85712,-0.934878,0.658701,1.79337,-9069.92,-16290.5)">
                    <circle cx="2479.5" cy="11969.5" r="220.5" style="fill:url(#_Linear8);"/>
                </g>
                <g transform="matrix(2.06306,-1.03855,0.786369,2.14095,-14242.6,-19166.6)">
                    <circle cx="2479.5" cy="11969.5" r="220.5" style="fill:url(#_Linear9);"/>
                </g>
                <g transform="matrix(1.63247,-0.82179,0.648804,1.76642,-10322.1,-14664.3)">
                    <circle cx="2479.5" cy="11969.5" r="220.5" style="fill:url(#_Linear10);"/>
                </g>
                <g transform="matrix(1.01704,-0.511978,0.402026,1.09455,-5097.96,-8479.84)">
                    <circle cx="2479.5" cy="11969.5" r="220.5" style="fill:url(#_Linear11);"/>
                </g>
                <g transform="matrix(1.27533,1.02535,-0.107393,0.183074,-2302.19,-3660.68)">
                    <rect x="4215" y="9167" width="40" height="4701" style="fill:url(#_Linear12);"/>
                </g>
                <g transform="matrix(1.27533,1.02535,-0.107393,0.183074,-1486.57,-4776.49)">
                    <rect x="4215" y="9167" width="40" height="4701" style="fill:url(#_Linear13);"/>
                </g>
                <g transform="matrix(0.651031,0,0,0.762166,138.596,-6007.08)">
                    <path d="M1771.13,11076.3C1881.04,11183.1 1989.76,11296.1 2119.69,11378.5C2241.6,11455.8 3024.76,11747 3112.47,11493.3C3136.12,11424.9 3068.16,11325.2 3002.38,11304.7C2858.57,11259.9 2835.2,11373.7 2738.29,11392.7C2532.98,11432.9 2114.89,11143.5 1943.28,11031.4C1892.65,10998.3 1814.26,10965.9 1752.11,10981C1731.82,10985.9 1702.65,11004.2 1686.02,11017.9C1683.36,11020.1 1679.94,11026.8 1681.39,11022.5" style="fill:rgb(55,147,165);"/>
                </g>
                <g transform="matrix(0.98146,0.224388,-0.163721,0.98146,368.549,-519.954)">
                    <g transform="matrix(0.651031,0,0,0.762166,-34.3613,-5988.37)">
                        <path d="M3775.14,9107.75C3635.41,9047.63 3421.99,9139.38 3298.14,9060.26C3162.56,8973.66 3157.39,8676.91 2876.49,8563.34C2718.1,8499.3 2272.71,8523.52 2092.26,8508.58C1997.67,8500.75 1918.8,8491.63 1845.01,8425.22C1698.42,8293.29 1639.91,7977.67 1756.39,7809.01C1974.9,7492.63 3116.76,7301.15 3467.96,7404.7C3581.89,7438.29 3497.79,7710.38 3638.61,7716.82C3776.25,7723.12 3929.73,7638.34 4056.94,7596.77C4359.22,7497.98 4754.63,7499.49 4963.98,7768.19C5171.33,8034.32 4799.42,8328.49 4772.56,8425.22C4719.3,8616.92 4615.42,9650.43 4321.56,9574.44" style="fill:url(#_Linear14);"/>
                    </g>
                    <g transform="matrix(0.790145,0.29431,-0.197385,0.726292,1449.41,-6785.67)">
                        <ellipse cx="4090.5" cy="8343" rx="268.5" ry="1102" style="fill:url(#_Linear15);"/>
                    </g>
                </g>
                <g transform="matrix(0.424586,0,0,0.577665,-3.4991,-4461.32)">
                    <path d="M580,10931C580,10931 672,11072.4 672,11145.5C672,11218.6 630.776,11278 580,11278C529.224,11278 488,11218.6 488,11145.5C488,11072.4 580,10931 580,10931Z" style="fill:white;"/>
                </g>
            </g>
        </g>
    </g>
    <defs>
        <linearGradient id="_Linear2" x1="0" y1="0" x2="1" y2="0" gradientUnits="userSpaceOnUse" gradientTransform="matrix(12,269,-269,12,2786.44,9506.1)"><stop offset="0" style="stop-color:rgb(191,83,64);stop-opacity:1"/><stop offset="1" style="stop-color:rgb(115,50,38);stop-opacity:1"/></linearGradient>
        <linearGradient id="_Linear3" x1="0" y1="0" x2="1" y2="0" gradientUnits="userSpaceOnUse" gradientTransform="matrix(425.144,-961.924,961.924,425.144,1338.25,9496.52)"><stop offset="0" style="stop-color:rgb(191,83,64);stop-opacity:1"/><stop offset="1" style="stop-color:rgb(115,50,38);stop-opacity:1"/></linearGradient>
        <linearGradient id="_Linear4" x1="0" y1="0" x2="1" y2="0" gradientUnits="userSpaceOnUse" gradientTransform="matrix(669.079,-839.805,839.805,669.079,1241.11,9501.31)"><stop offset="0" style="stop-color:rgb(191,83,64);stop-opacity:1"/><stop offset="1" style="stop-color:rgb(115,50,38);stop-opacity:1"/></linearGradient>
        <linearGradient id="_Linear5" x1="0" y1="0" x2="1" y2="0" gradientUnits="userSpaceOnUse" gradientTransform="matrix(272.896,1229.82,-1229.82,272.896,1137.97,10930.2)"><stop offset="0" style="stop-color:rgb(74,160,177);stop-opacity:1"/><stop offset="1" style="stop-color:rgb(145,198,209);stop-opacity:1"/></linearGradient>
        <linearGradient id="_Linear6" x1="0" y1="0" x2="1" y2="0" gradientUnits="userSpaceOnUse" gradientTransform="matrix(81,99,-99,81,64,31)"><stop offset="0" style="stop-color:rgb(127,198,212);stop-opacity:1"/><stop offset="1" style="stop-color:rgb(55,147,165);stop-opacity:1"/></linearGradient>
        <linearGradient id="_Linear7" x1="0" y1="0" x2="1" y2="0" gradientUnits="userSpaceOnUse" gradientTransform="matrix(-73.5056,-640.847,568.069,-82.9227,2497.06,12316.8)"><stop offset="0" style="stop-color:rgb(89,83,107);stop-opacity:1"/><stop offset="1" style="stop-color:rgb(146,140,165);stop-opacity:1"/></linearGradient>
        <linearGradient id="_Linear8" x1="0" y1="0" x2="1" y2="0" gradientUnits="userSpaceOnUse" gradientTransform="matrix(-73.5056,-640.847,568.069,-82.9227,2497.06,12316.8)"><stop offset="0" style="stop-color:rgb(89,83,107);stop-opacity:1"/><stop offset="1" style="stop-color:rgb(146,140,165);stop-opacity:1"/></linearGradient>
        <linearGradient id="_Linear9" x1="0" y1="0" x2="1" y2="0" gradientUnits="userSpaceOnUse" gradientTransform="matrix(-73.5056,-640.847,568.069,-82.9227,2497.06,12316.8)"><stop offset="0" style="stop-color:rgb(89,83,107);stop-opacity:1"/><stop offset="1" style="stop-color:rgb(146,140,165);stop-opacity:1"/></linearGradient>
        <linearGradient id="_Linear10" x1="0" y1="0" x2="1" y2="0" gradientUnits="userSpaceOnUse" gradientTransform="matrix(-73.5056,-640.847,568.069,-82.9227,2497.06,12316.8)"><stop offset="0" style="stop-color:rgb(89,83,107);stop-opacity:1"/><stop offset="1" style="stop-color:rgb(146,140,165);stop-opacity:1"/></linearGradient>
        <linearGradient id="_Linear11" x1="0" y1="0" x2="1" y2="0" gradientUnits="userSpaceOnUse" gradientTransform="matrix(-73.5056,-640.847,568.069,-82.9227,2497.06,12316.8)"><stop offset="0" style="stop-color:rgb(89,83,107);stop-opacity:1"/><stop offset="1" style="stop-color:rgb(146,140,165);stop-opacity:1"/></linearGradient>
        <linearGradient id="_Linear12" x1="0" y1="0" x2="1" y2="0" gradientUnits="userSpaceOnUse" gradientTransform="matrix(19.3274,4656.18,-87.0997,1033.2,4218.49,10951.8)"><stop offset="0" style="stop-color:rgb(74,160,177);stop-opacity:1"/><stop offset="1" style="stop-color:rgb(145,198,209);stop-opacity:1"/></linearGradient>
        <linearGradient id="_Linear13" x1="0" y1="0" x2="1" y2="0" gradientUnits="userSpaceOnUse" gradientTransform="matrix(133.375,-5617.91,688.856,1087.73,4219.79,14519)"><stop offset="0" style="stop-color:rgb(74,160,177);stop-opacity:1"/><stop offset="1" style="stop-color:rgb(145,198,209);stop-opacity:1"/></linearGradient>
        <linearGradient id="_Linear14" x1="0" y1="0" x2="1" y2="0" gradientUnits="userSpaceOnUse" gradientTransform="matrix(-2706,-727,727,-2706,3864.55,8679.44)"><stop offset="0" style="stop-color:rgb(128,128,128);stop-opacity:1"/><stop offset="1" style="stop-color:rgb(128,128,128);stop-opacity:0"/></linearGradient>
        <linearGradient id="_Linear15" x1="0" y1="0" x2="1" y2="0" gradientUnits="userSpaceOnUse" gradientTransform="matrix(-453.809,-1.48036,1.48036,-453.809,4277.7,8261.06)"><stop offset="0" style="stop-color:rgb(128,128,128);stop-opacity:1"/><stop offset="1" style="stop-color:rgb(77,77,77);stop-opacity:1"/></linearGradient>
    </defs>
</svg>
