<?xml version="1.0" encoding="UTF-8" standalone="no"?>
<!DOCTYPE svg PUBLIC "-//W3C//DTD SVG 1.1//EN" "http://www.w3.org/Graphics/SVG/1.1/DTD/svg11.dtd">
<svg width="100%" height="100%" viewBox="0 0 5479 6555" version="1.1" xmlns="http://www.w3.org/2000/svg" xmlns:xlink="http://www.w3.org/1999/xlink" xml:space="preserve" style="fill-rule:evenodd;clip-rule:evenodd;stroke-linejoin:round;stroke-miterlimit:1.41421;">
    <g transform="matrix(1,0,0,1,4.47642e-13,-7873.72)">
        <g id="画板1" transform="matrix(1.53602,0,0,1.31205,52.2248,7881.59)">
            <rect x="-34" y="-6" width="3567" height="4996" style="fill:none;"/>
            <clipPath id="_clip1">
                <rect x="-34" y="-6" width="3567" height="4996"/>
            </clipPath>
            <g clip-path="url(#_clip1)">
                <g transform="matrix(0.651031,0,0,1.29654,-115.379,-14709.5)">
                    <path d="M4726,12353C3617.18,11770.6 3471.79,12589.9 2420,12571.7C1784.53,12560.7 2018.23,11846.5 981,12353C574.313,12551.6 1641.79,13177 981,13688C610.746,13974.3 1604.62,14396.4 2113,14405.8C3553.09,14432.2 2933.8,14042.3 3472,13853.2C3866.66,13714.5 3952.74,14192 4726,13918.4C4960.65,13835.4 4481,13351.7 4481,13090.7C4481,12831.6 4947.29,12469.2 4726,12353Z" style="fill:url(#_Linear2);"/>
                </g>
                <g transform="matrix(3.15193,2.48797,-2.10777,3.65974,2770.95,1478.53)">
                    <g>
                        <g id="cell3">
                            <path d="M180.734,59.63C188.499,97.452 147.894,87.856 98.344,98.028C48.794,108.201 9.062,134.29 1.297,96.467C-6.467,58.645 21.126,12.176 70.676,2.004C120.226,-8.168 172.969,21.808 180.734,59.63" style="fill:url(#_Linear3);fill-rule:nonzero;"/>
                            <path d="M57.656,75.243C57.656,77.041 56.199,78.498 54.401,78.498C52.603,78.498 51.146,77.041 51.146,75.243C51.146,73.445 52.603,71.988 54.401,71.988C56.199,71.988 57.656,73.445 57.656,75.243" style="fill:white;fill-rule:nonzero;"/>
                            <path d="M112.992,60.595C112.992,62.393 111.535,63.85 109.737,63.85C107.939,63.85 106.482,62.393 106.482,60.595C106.482,58.797 107.939,57.34 109.737,57.34C111.535,57.34 112.992,58.797 112.992,60.595" style="fill:white;fill-rule:nonzero;"/>
                            <path d="M70.235,78.533C70.286,78.723 70.321,78.913 70.379,79.103C72.944,87.47 81.806,92.174 90.173,89.609C98.541,87.044 103.244,78.182 100.679,69.814C100.621,69.625 100.544,69.448 100.478,69.262L70.235,78.533Z" style="fill:white;fill-rule:nonzero;"/>
                        </g>
                    </g>
                </g>
                <g transform="matrix(4.78464,1.76275,-1.49337,5.55549,3192.19,1273.06)">
                    <g>
                        <g id="cell31">
                            <path d="M180.734,59.63C188.499,97.452 147.894,87.856 98.344,98.028C48.794,108.201 9.062,134.29 1.297,96.467C-6.467,58.645 21.126,12.176 70.676,2.004C120.226,-8.168 172.969,21.808 180.734,59.63" style="fill:url(#_Linear4);fill-rule:nonzero;"/>
                            <path d="M57.656,75.243C57.656,77.041 56.199,78.498 54.401,78.498C52.603,78.498 51.146,77.041 51.146,75.243C51.146,73.445 52.603,71.988 54.401,71.988C56.199,71.988 57.656,73.445 57.656,75.243" style="fill:white;fill-rule:nonzero;"/>
                            <path d="M70.235,78.533C70.286,78.723 70.321,78.913 70.379,79.103C72.944,87.47 81.806,92.174 90.173,89.609C98.541,87.044 103.244,78.182 100.679,69.814C100.621,69.625 100.544,69.448 100.478,69.262L70.235,78.533Z" style="fill:white;fill-rule:nonzero;"/>
                        </g>
                    </g>
                </g>
                <g transform="matrix(4.76364,0,0,5.53111,2464.66,1018.57)">
                    <g>
                        <g id="cell32">
                            <path d="M180.734,59.63C188.499,97.452 147.894,87.856 98.344,98.028C48.794,108.201 9.062,134.29 1.297,96.467C-6.467,58.645 21.126,12.176 70.676,2.004C120.226,-8.168 172.969,21.808 180.734,59.63" style="fill:url(#_Linear5);fill-rule:nonzero;"/>
                            <path d="M57.656,75.243C57.656,77.041 56.199,78.498 54.401,78.498C52.603,78.498 51.146,77.041 51.146,75.243C51.146,73.445 52.603,71.988 54.401,71.988C56.199,71.988 57.656,73.445 57.656,75.243" style="fill:white;fill-rule:nonzero;"/>
                            <path d="M112.992,60.595C112.992,62.393 111.535,63.85 109.737,63.85C107.939,63.85 106.482,62.393 106.482,60.595C106.482,58.797 107.939,57.34 109.737,57.34C111.535,57.34 112.992,58.797 112.992,60.595" style="fill:white;fill-rule:nonzero;"/>
                            <path d="M70.235,78.533C70.286,78.723 70.321,78.913 70.379,79.103C72.944,87.47 81.806,92.174 90.173,89.609C98.541,87.044 103.244,78.182 100.679,69.814C100.621,69.625 100.544,69.448 100.478,69.262L70.235,78.533Z" style="fill:white;fill-rule:nonzero;"/>
                        </g>
                    </g>
                </g>
                <g transform="matrix(7.22808,0,0,8.3926,2500.97,-84.6064)">
                    <g>
                        <g id="cell33">
                            <g transform="matrix(1,0,0,1,11.8189,1.12793)">
                                <path d="M180.734,59.63C188.499,97.452 147.894,87.856 98.344,98.028C48.794,108.201 9.062,134.29 1.297,96.467C-6.467,58.645 21.126,12.176 70.676,2.004C120.226,-8.168 172.969,21.808 180.734,59.63" style="fill:url(#_Linear6);fill-rule:nonzero;"/>
                            </g>
                            <path d="M57.656,75.243C57.656,77.041 56.199,78.498 54.401,78.498C52.603,78.498 51.146,77.041 51.146,75.243C51.146,73.445 52.603,71.988 54.401,71.988C56.199,71.988 57.656,73.445 57.656,75.243" style="fill:white;fill-rule:nonzero;"/>
                            <path d="M112.992,60.595C112.992,62.393 111.535,63.85 109.737,63.85C107.939,63.85 106.482,62.393 106.482,60.595C106.482,58.797 107.939,57.34 109.737,57.34C111.535,57.34 112.992,58.797 112.992,60.595" style="fill:white;fill-rule:nonzero;"/>
                            <path d="M70.235,78.533C70.286,78.723 70.321,78.913 70.379,79.103C72.944,87.47 81.806,92.174 90.173,89.609C98.541,87.044 103.244,78.182 100.679,69.814C100.621,69.625 100.544,69.448 100.478,69.262L70.235,78.533Z" style="fill:white;fill-rule:nonzero;"/>
                        </g>
                    </g>
                </g>
                <g transform="matrix(5.90382,0,0,6.85499,2340.31,2249.47)">
                    <g>
                        <g id="cell34">
                            <path d="M180.734,59.63C188.499,97.452 147.894,87.856 98.344,98.028C48.794,108.201 9.062,134.29 1.297,96.467C-6.467,58.645 21.126,12.176 70.676,2.004C120.226,-8.168 172.969,21.808 180.734,59.63" style="fill:url(#_Linear7);fill-rule:nonzero;"/>
                            <path d="M57.656,75.243C57.656,77.041 56.199,78.498 54.401,78.498C52.603,78.498 51.146,77.041 51.146,75.243C51.146,73.445 52.603,71.988 54.401,71.988C56.199,71.988 57.656,73.445 57.656,75.243" style="fill:white;fill-rule:nonzero;"/>
                            <path d="M112.992,60.595C112.992,62.393 111.535,63.85 109.737,63.85C107.939,63.85 106.482,62.393 106.482,60.595C106.482,58.797 107.939,57.34 109.737,57.34C111.535,57.34 112.992,58.797 112.992,60.595" style="fill:white;fill-rule:nonzero;"/>
                            <path d="M70.235,78.533C70.286,78.723 70.321,78.913 70.379,79.103C72.944,87.47 81.806,92.174 90.173,89.609C98.541,87.044 103.244,78.182 100.679,69.814C100.621,69.625 100.544,69.448 100.478,69.262L70.235,78.533Z" style="fill:white;fill-rule:nonzero;"/>
                        </g>
                    </g>
                </g>
                <g transform="matrix(5.90382,0,0,6.85499,1447.1,959.881)">
                    <g>
                        <g id="cell35">
                            <path d="M180.734,59.63C188.499,97.452 147.894,87.856 98.344,98.028C48.794,108.201 9.062,134.29 1.297,96.467C-6.467,58.645 21.126,12.176 70.676,2.004C120.226,-8.168 172.969,21.808 180.734,59.63" style="fill:url(#_Linear8);fill-rule:nonzero;"/>
                            <path d="M57.656,75.243C57.656,77.041 56.199,78.498 54.401,78.498C52.603,78.498 51.146,77.041 51.146,75.243C51.146,73.445 52.603,71.988 54.401,71.988C56.199,71.988 57.656,73.445 57.656,75.243" style="fill:white;fill-rule:nonzero;"/>
                            <path d="M112.992,60.595C112.992,62.393 111.535,63.85 109.737,63.85C107.939,63.85 106.482,62.393 106.482,60.595C106.482,58.797 107.939,57.34 109.737,57.34C111.535,57.34 112.992,58.797 112.992,60.595" style="fill:white;fill-rule:nonzero;"/>
                            <path d="M70.235,78.533C70.286,78.723 70.321,78.913 70.379,79.103C72.944,87.47 81.806,92.174 90.173,89.609C98.541,87.044 103.244,78.182 100.679,69.814C100.621,69.625 100.544,69.448 100.478,69.262L70.235,78.533Z" style="fill:white;fill-rule:nonzero;"/>
                        </g>
                    </g>
                </g>
                <g transform="matrix(3.46943,3.58002,-3.03293,4.02839,2771.03,2751.67)">
                    <g>
                        <g id="cell36">
                            <path d="M180.734,59.63C188.499,97.452 147.894,87.856 98.344,98.028C48.794,108.201 9.062,134.29 1.297,96.467C-6.467,58.645 21.126,12.176 70.676,2.004C120.226,-8.168 172.969,21.808 180.734,59.63" style="fill:url(#_Linear9);fill-rule:nonzero;"/>
                            <path d="M57.656,75.243C57.656,77.041 56.199,78.498 54.401,78.498C52.603,78.498 51.146,77.041 51.146,75.243C51.146,73.445 52.603,71.988 54.401,71.988C56.199,71.988 57.656,73.445 57.656,75.243" style="fill:white;fill-rule:nonzero;"/>
                            <path d="M112.992,60.595C112.992,62.393 111.535,63.85 109.737,63.85C107.939,63.85 106.482,62.393 106.482,60.595C106.482,58.797 107.939,57.34 109.737,57.34C111.535,57.34 112.992,58.797 112.992,60.595" style="fill:white;fill-rule:nonzero;"/>
                            <path d="M70.235,78.533C70.286,78.723 70.321,78.913 70.379,79.103C72.944,87.47 81.806,92.174 90.173,89.609C98.541,87.044 103.244,78.182 100.679,69.814C100.621,69.625 100.544,69.448 100.478,69.262L70.235,78.533Z" style="fill:white;fill-rule:nonzero;"/>
                        </g>
                    </g>
                </g>
                <g transform="matrix(2.46606,2.54467,-2.1558,2.86337,2001.89,2955.6)">
                    <g>
                        <g id="cell37">
                            <path d="M180.734,59.63C188.499,97.452 147.894,87.856 98.344,98.028C48.794,108.201 9.062,134.29 1.297,96.467C-6.467,58.645 21.126,12.176 70.676,2.004C120.226,-8.168 172.969,21.808 180.734,59.63" style="fill:url(#_Linear10);fill-rule:nonzero;"/>
                            <path d="M57.656,75.243C57.656,77.041 56.199,78.498 54.401,78.498C52.603,78.498 51.146,77.041 51.146,75.243C51.146,73.445 52.603,71.988 54.401,71.988C56.199,71.988 57.656,73.445 57.656,75.243" style="fill:white;fill-rule:nonzero;"/>
                            <path d="M112.992,60.595C112.992,62.393 111.535,63.85 109.737,63.85C107.939,63.85 106.482,62.393 106.482,60.595C106.482,58.797 107.939,57.34 109.737,57.34C111.535,57.34 112.992,58.797 112.992,60.595" style="fill:white;fill-rule:nonzero;"/>
                            <path d="M70.235,78.533C70.286,78.723 70.321,78.913 70.379,79.103C72.944,87.47 81.806,92.174 90.173,89.609C98.541,87.044 103.244,78.182 100.679,69.814C100.621,69.625 100.544,69.448 100.478,69.262L70.235,78.533Z" style="fill:white;fill-rule:nonzero;"/>
                        </g>
                    </g>
                </g>
                <g transform="matrix(5.68586,3.12528,-2.64768,6.60191,2348.24,3663.22)">
                    <g>
                        <g id="cell38">
                            <path d="M180.734,59.63C188.499,97.452 147.894,87.856 98.344,98.028C48.794,108.201 9.062,134.29 1.297,96.467C-6.467,58.645 21.126,12.176 70.676,2.004C120.226,-8.168 172.969,21.808 180.734,59.63" style="fill:url(#_Linear11);fill-rule:nonzero;"/>
                            <path d="M57.656,75.243C57.656,77.041 56.199,78.498 54.401,78.498C52.603,78.498 51.146,77.041 51.146,75.243C51.146,73.445 52.603,71.988 54.401,71.988C56.199,71.988 57.656,73.445 57.656,75.243" style="fill:white;fill-rule:nonzero;"/>
                            <path d="M112.992,60.595C112.992,62.393 111.535,63.85 109.737,63.85C107.939,63.85 106.482,62.393 106.482,60.595C106.482,58.797 107.939,57.34 109.737,57.34C111.535,57.34 112.992,58.797 112.992,60.595" style="fill:white;fill-rule:nonzero;"/>
                            <path d="M70.235,78.533C70.286,78.723 70.321,78.913 70.379,79.103C72.944,87.47 81.806,92.174 90.173,89.609C98.541,87.044 103.244,78.182 100.679,69.814C100.621,69.625 100.544,69.448 100.478,69.262L70.235,78.533Z" style="fill:white;fill-rule:nonzero;"/>
                        </g>
                    </g>
                </g>
                <g transform="matrix(-7.06026,0,0,8.19774,1482.5,2382.85)">
                    <g>
                        <g id="cell39">
                            <path d="M180.734,59.63C188.499,97.452 147.894,87.856 98.344,98.028C48.794,108.201 9.062,134.29 1.297,96.467C-6.467,58.645 21.126,12.176 70.676,2.004C120.226,-8.168 172.969,21.808 180.734,59.63" style="fill:url(#_Linear12);fill-rule:nonzero;"/>
                            <path d="M57.656,75.243C57.656,77.041 56.199,78.498 54.401,78.498C52.603,78.498 51.146,77.041 51.146,75.243C51.146,73.445 52.603,71.988 54.401,71.988C56.199,71.988 57.656,73.445 57.656,75.243" style="fill:white;fill-rule:nonzero;"/>
                            <path d="M112.992,60.595C112.992,62.393 111.535,63.85 109.737,63.85C107.939,63.85 106.482,62.393 106.482,60.595C106.482,58.797 107.939,57.34 109.737,57.34C111.535,57.34 112.992,58.797 112.992,60.595" style="fill:white;fill-rule:nonzero;"/>
                            <path d="M70.235,78.533C70.286,78.723 70.321,78.913 70.379,79.103C72.944,87.47 81.806,92.174 90.173,89.609C98.541,87.044 103.244,78.182 100.679,69.814C100.621,69.625 100.544,69.448 100.478,69.262L70.235,78.533Z" style="fill:white;fill-rule:nonzero;"/>
                        </g>
                    </g>
                </g>
                <g transform="matrix(-7.06026,0,0,8.19774,1410.89,1372.21)">
                    <g>
                        <g id="cell310">
                            <path d="M180.734,59.63C188.499,97.452 147.894,87.856 98.344,98.028C48.794,108.201 9.062,134.29 1.297,96.467C-6.467,58.645 21.126,12.176 70.676,2.004C120.226,-8.168 172.969,21.808 180.734,59.63" style="fill:url(#_Linear13);fill-rule:nonzero;"/>
                            <path d="M57.656,75.243C57.656,77.041 56.199,78.498 54.401,78.498C52.603,78.498 51.146,77.041 51.146,75.243C51.146,73.445 52.603,71.988 54.401,71.988C56.199,71.988 57.656,73.445 57.656,75.243" style="fill:white;fill-rule:nonzero;"/>
                            <path d="M112.992,60.595C112.992,62.393 111.535,63.85 109.737,63.85C107.939,63.85 106.482,62.393 106.482,60.595C106.482,58.797 107.939,57.34 109.737,57.34C111.535,57.34 112.992,58.797 112.992,60.595" style="fill:white;fill-rule:nonzero;"/>
                            <path d="M70.235,78.533C70.286,78.723 70.321,78.913 70.379,79.103C72.944,87.47 81.806,92.174 90.173,89.609C98.541,87.044 103.244,78.182 100.679,69.814C100.621,69.625 100.544,69.448 100.478,69.262L70.235,78.533Z" style="fill:white;fill-rule:nonzero;"/>
                        </g>
                    </g>
                </g>
                <g transform="matrix(-5.47153,0,0,6.35305,1076.66,3229.61)">
                    <g>
                        <g id="cell311">
                            <path d="M180.734,59.63C188.499,97.452 147.894,87.856 98.344,98.028C48.794,108.201 9.062,134.29 1.297,96.467C-6.467,58.645 21.126,12.176 70.676,2.004C120.226,-8.168 172.969,21.808 180.734,59.63" style="fill:url(#_Linear14);fill-rule:nonzero;"/>
                            <path d="M57.656,75.243C57.656,77.041 56.199,78.498 54.401,78.498C52.603,78.498 51.146,77.041 51.146,75.243C51.146,73.445 52.603,71.988 54.401,71.988C56.199,71.988 57.656,73.445 57.656,75.243" style="fill:white;fill-rule:nonzero;"/>
                            <path d="M112.992,60.595C112.992,62.393 111.535,63.85 109.737,63.85C107.939,63.85 106.482,62.393 106.482,60.595C106.482,58.797 107.939,57.34 109.737,57.34C111.535,57.34 112.992,58.797 112.992,60.595" style="fill:white;fill-rule:nonzero;"/>
                            <path d="M70.235,78.533C70.286,78.723 70.321,78.913 70.379,79.103C72.944,87.47 81.806,92.174 90.173,89.609C98.541,87.044 103.244,78.182 100.679,69.814C100.621,69.625 100.544,69.448 100.478,69.262L70.235,78.533Z" style="fill:white;fill-rule:nonzero;"/>
                        </g>
                    </g>
                </g>
            </g>
        </g>
    </g>
    <defs>
        <linearGradient id="_Linear2" x1="0" y1="0" x2="1" y2="0" gradientUnits="userSpaceOnUse" gradientTransform="matrix(2073,-1457.86,2480,1218.61,1854,14166.5)"><stop offset="0" style="stop-color:rgb(82,16,16);stop-opacity:1"/><stop offset="1" style="stop-color:rgb(202,100,100);stop-opacity:1"/></linearGradient>
        <linearGradient id="_Linear3" x1="0" y1="0" x2="1" y2="0" gradientUnits="userSpaceOnUse" gradientTransform="matrix(19,-91,91,19,87.9997,121)"><stop offset="0" style="stop-color:rgb(128,14,7);stop-opacity:1"/><stop offset="1" style="stop-color:rgb(242,32,19);stop-opacity:1"/></linearGradient>
        <linearGradient id="_Linear4" x1="0" y1="0" x2="1" y2="0" gradientUnits="userSpaceOnUse" gradientTransform="matrix(19,-91,91,19,87.9997,121)"><stop offset="0" style="stop-color:rgb(128,14,7);stop-opacity:1"/><stop offset="1" style="stop-color:rgb(242,32,19);stop-opacity:1"/></linearGradient>
        <linearGradient id="_Linear5" x1="0" y1="0" x2="1" y2="0" gradientUnits="userSpaceOnUse" gradientTransform="matrix(19,-91,91,19,87.9997,121)"><stop offset="0" style="stop-color:rgb(128,14,7);stop-opacity:1"/><stop offset="1" style="stop-color:rgb(242,32,19);stop-opacity:1"/></linearGradient>
        <linearGradient id="_Linear6" x1="0" y1="0" x2="1" y2="0" gradientUnits="userSpaceOnUse" gradientTransform="matrix(19,-91,91,19,87.9997,121)"><stop offset="0" style="stop-color:rgb(128,14,7);stop-opacity:1"/><stop offset="1" style="stop-color:rgb(242,32,19);stop-opacity:1"/></linearGradient>
        <linearGradient id="_Linear7" x1="0" y1="0" x2="1" y2="0" gradientUnits="userSpaceOnUse" gradientTransform="matrix(19,-91,91,19,87.9997,121)"><stop offset="0" style="stop-color:rgb(128,14,7);stop-opacity:1"/><stop offset="1" style="stop-color:rgb(242,32,19);stop-opacity:1"/></linearGradient>
        <linearGradient id="_Linear8" x1="0" y1="0" x2="1" y2="0" gradientUnits="userSpaceOnUse" gradientTransform="matrix(19,-91,91,19,87.9997,121)"><stop offset="0" style="stop-color:rgb(128,14,7);stop-opacity:1"/><stop offset="1" style="stop-color:rgb(242,32,19);stop-opacity:1"/></linearGradient>
        <linearGradient id="_Linear9" x1="0" y1="0" x2="1" y2="0" gradientUnits="userSpaceOnUse" gradientTransform="matrix(19,-91,91,19,87.9997,121)"><stop offset="0" style="stop-color:rgb(128,14,7);stop-opacity:1"/><stop offset="1" style="stop-color:rgb(242,32,19);stop-opacity:1"/></linearGradient>
        <linearGradient id="_Linear10" x1="0" y1="0" x2="1" y2="0" gradientUnits="userSpaceOnUse" gradientTransform="matrix(19,-91,91,19,87.9997,121)"><stop offset="0" style="stop-color:rgb(128,14,7);stop-opacity:1"/><stop offset="1" style="stop-color:rgb(242,32,19);stop-opacity:1"/></linearGradient>
        <linearGradient id="_Linear11" x1="0" y1="0" x2="1" y2="0" gradientUnits="userSpaceOnUse" gradientTransform="matrix(19,-91,91,19,87.9997,121)"><stop offset="0" style="stop-color:rgb(128,14,7);stop-opacity:1"/><stop offset="1" style="stop-color:rgb(242,32,19);stop-opacity:1"/></linearGradient>
        <linearGradient id="_Linear12" x1="0" y1="0" x2="1" y2="0" gradientUnits="userSpaceOnUse" gradientTransform="matrix(19,-91,91,19,87.9997,121)"><stop offset="0" style="stop-color:rgb(128,14,7);stop-opacity:1"/><stop offset="1" style="stop-color:rgb(242,32,19);stop-opacity:1"/></linearGradient>
        <linearGradient id="_Linear13" x1="0" y1="0" x2="1" y2="0" gradientUnits="userSpaceOnUse" gradientTransform="matrix(19,-91,91,19,87.9997,121)"><stop offset="0" style="stop-color:rgb(128,14,7);stop-opacity:1"/><stop offset="1" style="stop-color:rgb(242,32,19);stop-opacity:1"/></linearGradient>
        <linearGradient id="_Linear14" x1="0" y1="0" x2="1" y2="0" gradientUnits="userSpaceOnUse" gradientTransform="matrix(19,-91,91,19,87.9997,121)"><stop offset="0" style="stop-color:rgb(128,14,7);stop-opacity:1"/><stop offset="1" style="stop-color:rgb(242,32,19);stop-opacity:1"/></linearGradient>
    </defs>
</svg>
