<svg xmlns="http://www.w3.org/2000/svg" viewBox="0 0 863.5 275.9"><defs><style>.cls-1{fill:none;}.cls-2{fill:#faebc3;}</style></defs><title>资源 7</title><g id="图层_2" data-name="图层 2"><g id="图层_1-2" data-name="图层 1"><rect class="cls-1" width="863.5" height="275.88"/><circle class="cls-2" cx="780.5" cy="264.9" r="5.5"/><circle class="cls-2" cx="39.9" cy="265.5" r="5.5"/><circle class="cls-2" cx="301.5" cy="173.9" r="5.5"/><circle class="cls-2" cx="552.4" cy="24.8" r="5.5"/><circle class="cls-2" cx="836" cy="9.9" r="5.5"/><circle class="cls-2" cx="707.3" cy="221.4" r="5.5"/><circle class="cls-2" cx="479.4" cy="50.8" r="5.5"/><circle class="cls-2" cx="595.5" cy="151" r="5.5"/><circle class="cls-2" cx="45.4" cy="124.5" r="5.5"/><circle class="cls-2" cx="536.1" cy="78.8" r="5.5"/><circle class="cls-2" cx="320.5" cy="163.6" r="5.5"/><circle class="cls-2" cx="58.7" cy="109.6" r="5.5"/><circle class="cls-2" cx="835.3" cy="159.2" r="5.5"/><circle class="cls-2" cx="211.6" cy="100.8" r="5.5"/><circle class="cls-2" cx="30.4" cy="33.9" r="5.5"/><circle class="cls-2" cx="428.2" cy="38.5" r="5.5"/><circle class="cls-2" cx="12.9" cy="52.6" r="5.5"/><circle class="cls-2" cx="812.3" cy="53.7" r="5.5"/><circle class="cls-2" cx="635.1" cy="153.9" r="5.5"/><circle class="cls-2" cx="562.3" cy="97.6" r="5.5"/><circle class="cls-2" cx="587.1" cy="10.9" r="5.5"/><circle class="cls-2" cx="582.5" cy="246.2" r="5.5"/><circle class="cls-2" cx="200.3" cy="221.5" r="5.5"/><circle class="cls-2" cx="757.2" cy="11.9" r="5.5"/><circle class="cls-2" cx="226.5" cy="46.3" r="5.5"/><circle class="cls-2" cx="62.9" cy="264.4" r="5.5"/><circle class="cls-2" cx="171.1" cy="98.5" r="5.5"/><circle class="cls-2" cx="542.9" cy="59.3" r="5.5"/><circle class="cls-2" cx="686.4" cy="97.6" r="5.5"/><circle class="cls-2" cx="323.9" cy="73.1" r="5.5"/><circle class="cls-2" cx="851.7" cy="82.7" r="5.5"/><circle class="cls-2" cx="687.7" cy="231.1" r="5.5"/><circle class="cls-2" cx="307.8" cy="104.9" r="5.5"/><circle class="cls-2" cx="75.2" cy="11.6" r="5.5"/><circle class="cls-2" cx="218.6" cy="10.3" r="5.5"/><circle class="cls-2" cx="101" cy="106" r="5.5"/><circle class="cls-2" cx="11" cy="146.7" r="5.5"/><circle class="cls-2" cx="760.4" cy="123.9" r="5.5"/><circle class="cls-2" cx="657.1" cy="70.2" r="5.5"/><circle class="cls-2" cx="615.8" cy="161.7" r="5.5"/><circle class="cls-2" cx="346.9" cy="88.4" r="5.5"/><circle class="cls-2" cx="678.9" cy="158.5" r="5.5"/><circle class="cls-2" cx="269.1" cy="123.5" r="5.5"/><circle class="cls-2" cx="190.9" cy="90.1" r="5.5"/><circle class="cls-2" cx="281.7" cy="140.4" r="5.5"/><circle class="cls-2" cx="680.1" cy="117.4" r="5.5"/><circle class="cls-2" cx="603.1" cy="50.7" r="5.5"/><circle class="cls-2" cx="835.5" cy="115" r="5.5"/><circle class="cls-2" cx="809.1" cy="126.7" r="5.5"/><circle class="cls-2" cx="482" cy="163.4" r="5.5"/><circle class="cls-2" cx="337.9" cy="11.5" r="5.5"/><circle class="cls-2" cx="263.5" cy="66" r="5.5"/><circle class="cls-2" cx="638.4" cy="44.8" r="5.5"/><circle class="cls-2" cx="481.9" cy="142.8" r="5.5"/><circle class="cls-2" cx="540.7" cy="40.4" r="5.5"/><circle class="cls-2" cx="629.4" cy="11.9" r="5.5"/><circle class="cls-2" cx="756.2" cy="37.1" r="5.5"/><circle class="cls-2" cx="303.6" cy="129.5" r="5.5"/><circle class="cls-2" cx="376.9" cy="53.6" r="5.5"/><circle class="cls-2" cx="648.6" cy="240.5" r="5.5"/><circle class="cls-2" cx="707.7" cy="244.4" r="5.5"/><circle class="cls-2" cx="248.5" cy="174.1" r="5.5"/><circle class="cls-2" cx="129.1" cy="133.9" r="5.5"/><circle class="cls-2" cx="214" cy="263.4" r="5.5"/><circle class="cls-2" cx="259.5" cy="264.1" r="5.5"/><circle class="cls-2" cx="220.2" cy="64.4" r="5.5"/><circle class="cls-2" cx="455.9" cy="179.7" r="5.5"/><circle class="cls-2" cx="597.8" cy="31" r="5.5"/><circle class="cls-2" cx="672.1" cy="178.3" r="5.5"/><circle class="cls-2" cx="561.5" cy="43" r="5.5"/><circle class="cls-2" cx="724.1" cy="146.6" r="5.5"/><circle class="cls-2" cx="117.6" cy="71" r="5.5"/><circle class="cls-2" cx="339" cy="244" r="5.5"/><circle class="cls-2" cx="780.8" cy="202.7" r="5.5"/><circle class="cls-2" cx="29.6" cy="135.9" r="5.5"/><circle class="cls-2" cx="650" cy="189.6" r="5.5"/><circle class="cls-2" cx="621.6" cy="52.3" r="5.5"/><circle class="cls-2" cx="687.7" cy="211" r="5.5"/><circle class="cls-2" cx="280.1" cy="181.7" r="5.5"/><circle class="cls-2" cx="832.7" cy="92.3" r="5.5"/><circle class="cls-2" cx="464.3" cy="159.7" r="5.5"/><circle class="cls-2" cx="818.4" cy="172.6" r="5.5"/><circle class="cls-2" cx="309.6" cy="54.6" r="5.5"/><circle class="cls-2" cx="350.9" cy="266" r="5.5"/><circle class="cls-2" cx="483.4" cy="72.7" r="5.5"/><circle class="cls-2" cx="421.4" cy="246" r="5.5"/><circle class="cls-2" cx="616.2" cy="139.2" r="5.5"/><circle class="cls-2" cx="853.1" cy="103.4" r="5.5"/><circle class="cls-2" cx="167.6" cy="51.3" r="5.5"/><circle class="cls-2" cx="186.7" cy="111.7" r="5.5"/><circle class="cls-2" cx="196" cy="11" r="5.5"/><circle class="cls-2" cx="640.1" cy="109.6" r="5.5"/><circle class="cls-2" cx="123.8" cy="249.7" r="5.5"/><circle class="cls-2" cx="548.6" cy="227.4" r="5.5"/><circle class="cls-2" cx="46.6" cy="192.6" r="5.5"/><circle class="cls-2" cx="523.8" cy="194" r="5.5"/><circle class="cls-2" cx="596.9" cy="129.6" r="5.5"/><circle class="cls-2" cx="422.8" cy="265.8" r="5.5"/><circle class="cls-2" cx="834.1" cy="50.5" r="5.5"/><circle class="cls-2" cx="394.9" cy="128.3" r="5.5"/><circle class="cls-2" cx="815.4" cy="149.5" r="5.5"/><circle class="cls-2" cx="144.2" cy="198.3" r="5.5"/><circle class="cls-2" cx="140.6" cy="155.5" r="5.5"/><circle class="cls-2" cx="359.7" cy="228.9" r="5.5"/><circle class="cls-2" cx="458.3" cy="46.8" r="5.5"/><circle class="cls-2" cx="338.6" cy="177.6" r="5.5"/><circle class="cls-2" cx="706.8" cy="198.1" r="5.5"/><circle class="cls-2" cx="804.3" cy="265.9" r="5.5"/><circle class="cls-2" cx="161" cy="233.2" r="5.5"/><circle class="cls-2" cx="814.7" cy="248.1" r="5.5"/><circle class="cls-2" cx="776.1" cy="136.9" r="5.5"/><circle class="cls-2" cx="208.7" cy="28.6" r="5.5"/><circle class="cls-2" cx="527.9" cy="25.2" r="5.5"/><circle class="cls-2" cx="688.3" cy="249.9" r="5.5"/><circle class="cls-2" cx="360.5" cy="11.7" r="5.5"/><circle class="cls-2" cx="213" cy="135.8" r="5.5"/><circle class="cls-2" cx="607.2" cy="92" r="5.5"/><circle class="cls-2" cx="521" cy="44.7" r="5.5"/><circle class="cls-2" cx="585.5" cy="92.3" r="5.5"/><circle class="cls-2" cx="359.9" cy="209" r="5.5"/><circle class="cls-2" cx="762.1" cy="193.3" r="5.5"/><circle class="cls-2" cx="727.5" cy="120.8" r="5.5"/><circle class="cls-2" cx="817.5" cy="12.6" r="5.5"/><circle class="cls-2" cx="258.8" cy="140.6" r="5.5"/><circle class="cls-2" cx="58.7" cy="12" r="5.5"/><circle class="cls-2" cx="719.9" cy="262.7" r="5.5"/><circle class="cls-2" cx="358.8" cy="167.5" r="5.5"/><circle class="cls-2" cx="122.2" cy="169.3" r="5.5"/><circle class="cls-2" cx="163.7" cy="188.3" r="5.5"/><circle class="cls-2" cx="626.6" cy="244.3" r="5.5"/><circle class="cls-2" cx="798.1" cy="105.2" r="5.5"/><circle class="cls-2" cx="401.3" cy="211.4" r="5.5"/><circle class="cls-2" cx="778" cy="69.2" r="5.5"/><circle class="cls-2" cx="657.1" cy="49.8" r="5.5"/><circle class="cls-2" cx="481.6" cy="264.5" r="5.5"/><circle class="cls-2" cx="450.2" cy="79.4" r="5.5"/><circle class="cls-2" cx="135.8" cy="83.2" r="5.5"/><circle class="cls-2" cx="287.6" cy="64.8" r="5.5"/><circle class="cls-2" cx="50.3" cy="73.1" r="5.5"/><circle class="cls-2" cx="597.1" cy="109.9" r="5.5"/><circle class="cls-2" cx="30.8" cy="157.2" r="5.5"/><circle class="cls-2" cx="699" cy="174.6" r="5.5"/><circle class="cls-2" cx="117.1" cy="151" r="5.5"/><circle class="cls-2" cx="732.3" cy="9.3" r="5.5"/><circle class="cls-2" cx="559.7" cy="246.9" r="5.5"/><circle class="cls-2" cx="427.4" cy="12.1" r="5.5"/><circle class="cls-2" cx="637.2" cy="68.3" r="5.5"/><circle class="cls-2" cx="853.9" cy="197.9" r="5.5"/><circle class="cls-2" cx="318" cy="228.6" r="5.5"/><circle class="cls-2" cx="575.4" cy="111.8" r="5.5"/><circle class="cls-2" cx="403.1" cy="10" r="5.5"/><circle class="cls-2" cx="149.3" cy="101.5" r="5.5"/><circle class="cls-2" cx="449.5" cy="11" r="5.5"/><circle class="cls-2" cx="277.2" cy="227.3" r="5.5"/><circle class="cls-2" cx="778.7" cy="158.6" r="5.5"/><circle class="cls-2" cx="25.2" cy="12.5" r="5.5"/><circle class="cls-2" cx="668.5" cy="13.1" r="5.5"/><circle class="cls-2" cx="705.6" cy="89.4" r="5.5"/><circle class="cls-2" cx="278.6" cy="204.9" r="5.5"/><circle class="cls-2" cx="175.9" cy="249" r="5.5"/><circle class="cls-2" cx="122.4" cy="34.3" r="5.5"/><circle class="cls-2" cx="28.9" cy="86.1" r="5.5"/><circle class="cls-2" cx="161.9" cy="165.5" r="5.5"/><circle class="cls-2" cx="495.3" cy="91.1" r="5.5"/><circle class="cls-2" cx="146.4" cy="45.2" r="5.5"/><circle class="cls-2" cx="468.5" cy="89.6" r="5.5"/><circle class="cls-2" cx="305" cy="264.9" r="5.5"/><circle class="cls-2" cx="500" cy="50.7" r="5.5"/><circle class="cls-2" cx="237.2" cy="134.5" r="5.5"/><circle class="cls-2" cx="49" cy="168" r="5.5"/><circle class="cls-2" cx="575.5" cy="75.7" r="5.5"/><circle class="cls-2" cx="342.9" cy="111" r="5.5"/><circle class="cls-2" cx="615.9" cy="72" r="5.5"/><circle class="cls-2" cx="242.7" cy="66.5" r="5.5"/><circle class="cls-2" cx="780.7" cy="180.4" r="5.5"/><circle class="cls-2" cx="818.1" cy="108.4" r="5.5"/><circle class="cls-2" cx="164.2" cy="210.5" r="5.5"/><circle class="cls-2" cx="537.2" cy="209.3" r="5.5"/><circle class="cls-2" cx="205.5" cy="47.8" r="5.5"/><circle class="cls-2" cx="853.7" cy="172" r="5.5"/><circle class="cls-2" cx="302.7" cy="30.2" r="5.5"/><circle class="cls-2" cx="239" cy="208.4" r="5.5"/><circle class="cls-2" cx="185.9" cy="30.9" r="5.5"/><circle class="cls-2" cx="663.1" cy="103.5" r="5.5"/><circle class="cls-2" cx="654.5" cy="167.1" r="5.5"/><circle class="cls-2" cx="66" cy="89.1" r="5.5"/><circle class="cls-2" cx="276.4" cy="82.1" r="5.5"/><circle class="cls-2" cx="852.8" cy="147.5" r="5.5"/><circle class="cls-2" cx="837.2" cy="209.4" r="5.5"/><circle class="cls-2" cx="112.2" cy="123.3" r="5.5"/><circle class="cls-2" cx="501.7" cy="263.1" r="5.5"/><circle class="cls-2" cx="150.7" cy="251.2" r="5.5"/><circle class="cls-2" cx="551.4" cy="118.6" r="5.5"/><circle class="cls-2" cx="481.5" cy="104.5" r="5.5"/><circle class="cls-2" cx="174.3" cy="11.2" r="5.5"/><circle class="cls-2" cx="96.5" cy="69" r="5.5"/><circle class="cls-2" cx="461.3" cy="266.2" r="5.5"/><circle class="cls-2" cx="236.7" cy="267.1" r="5.5"/><circle class="cls-2" cx="254.7" cy="27.9" r="5.5"/><circle class="cls-2" cx="614.4" cy="185.8" r="5.5"/><circle class="cls-2" cx="104.9" cy="181.5" r="5.5"/><circle class="cls-2" cx="9.3" cy="11.4" r="5.5"/><circle class="cls-2" cx="143.2" cy="177.2" r="5.5"/><circle class="cls-2" cx="186.3" cy="51.5" r="5.5"/><circle class="cls-2" cx="45.2" cy="96.2" r="5.5"/><circle class="cls-2" cx="278.1" cy="27.3" r="5.5"/><circle class="cls-2" cx="182.8" cy="181" r="5.5"/><circle class="cls-2" cx="323.5" cy="118.9" r="5.5"/><circle class="cls-2" cx="851.9" cy="62.8" r="5.5"/><circle class="cls-2" cx="427.9" cy="117.7" r="5.5"/><circle class="cls-2" cx="720.1" cy="27.9" r="5.5"/><circle class="cls-2" cx="854.1" cy="39.9" r="5.5"/><circle class="cls-2" cx="92.5" cy="226.6" r="5.5"/><circle class="cls-2" cx="570.6" cy="227.6" r="5.5"/><circle class="cls-2" cx="769.7" cy="104.4" r="5.5"/><circle class="cls-2" cx="668.6" cy="200.7" r="5.5"/><circle class="cls-2" cx="593.9" cy="226.1" r="5.5"/><circle class="cls-2" cx="741.2" cy="158.8" r="5.5"/><circle class="cls-2" cx="657.2" cy="124" r="5.5"/><circle class="cls-2" cx="257.1" cy="239.7" r="5.5"/><circle class="cls-2" cx="445.2" cy="100.3" r="5.5"/><circle class="cls-2" cx="674" cy="34.8" r="5.5"/><circle class="cls-2" cx="790.8" cy="50.2" r="5.5"/><circle class="cls-2" cx="10.6" cy="98.3" r="5.5"/><circle class="cls-2" cx="288.1" cy="116.9" r="5.5"/><circle class="cls-2" cx="744.2" cy="203.2" r="5.5"/><circle class="cls-2" cx="515.4" cy="101.9" r="5.5"/><circle class="cls-2" cx="240.1" cy="190.6" r="5.5"/><circle class="cls-2" cx="500.6" cy="114.5" r="5.5"/><circle class="cls-2" cx="266.6" cy="10.1" r="5.5"/><circle class="cls-2" cx="85.8" cy="50.3" r="5.5"/><circle class="cls-2" cx="64.6" cy="181.5" r="5.5"/><circle class="cls-2" cx="355.2" cy="51.2" r="5.5"/><circle class="cls-2" cx="389.5" cy="33.7" r="5.5"/><circle class="cls-2" cx="71.9" cy="163" r="5.5"/><circle class="cls-2" cx="130.9" cy="11" r="5.5"/><circle class="cls-2" cx="459.7" cy="201.5" r="5.5"/><circle class="cls-2" cx="109" cy="50.9" r="5.5"/><circle class="cls-2" cx="268.3" cy="46.5" r="5.5"/><circle class="cls-2" cx="296.8" cy="241.9" r="5.5"/><circle class="cls-2" cx="605.1" cy="244.8" r="5.5"/><circle class="cls-2" cx="69.4" cy="225.4" r="5.5"/><circle class="cls-2" cx="506.3" cy="29.7" r="5.5"/><circle class="cls-2" cx="425.8" cy="224" r="5.5"/><circle class="cls-2" cx="168.4" cy="144.1" r="5.5"/><circle class="cls-2" cx="851.2" cy="245.7" r="5.5"/><circle class="cls-2" cx="521.5" cy="63.3" r="5.5"/><circle class="cls-2" cx="421.6" cy="59.8" r="5.5"/><circle class="cls-2" cx="526.2" cy="117.6" r="5.5"/><circle class="cls-2" cx="435.8" cy="174.9" r="5.5"/><circle class="cls-2" cx="30.8" cy="248.4" r="5.5"/><circle class="cls-2" cx="399.1" cy="169.6" r="5.5"/><circle class="cls-2" cx="598.6" cy="172.8" r="5.5"/><circle class="cls-2" cx="31" cy="227.6" r="5.5"/><circle class="cls-2" cx="804.2" cy="230.6" r="5.5"/><circle class="cls-2" cx="471.5" cy="10.7" r="5.5"/><circle class="cls-2" cx="398.4" cy="149.3" r="5.5"/><circle class="cls-2" cx="152.7" cy="10.6" r="5.5"/><circle class="cls-2" cx="10.9" cy="193.4" r="5.5"/><circle class="cls-2" cx="231.1" cy="83.2" r="5.5"/><circle class="cls-2" cx="289.9" cy="95.8" r="5.5"/><circle class="cls-2" cx="687.7" cy="11.6" r="5.5"/><circle class="cls-2" cx="29.4" cy="204.4" r="5.5"/><circle class="cls-2" cx="736.6" cy="44.8" r="5.5"/><circle class="cls-2" cx="338.9" cy="221.6" r="5.5"/><circle class="cls-2" cx="592.9" cy="265.2" r="5.5"/><circle class="cls-2" cx="444.4" cy="30.4" r="5.5"/><circle class="cls-2" cx="387.7" cy="74.2" r="5.5"/><circle class="cls-2" cx="88.5" cy="87.6" r="5.5"/><circle class="cls-2" cx="11" cy="218" r="5.5"/><circle class="cls-2" cx="595.3" cy="71.3" r="5.5"/><circle class="cls-2" cx="10.6" cy="32.3" r="5.5"/><circle class="cls-2" cx="49.2" cy="217.3" r="5.5"/><circle class="cls-2" cx="838" cy="29.1" r="5.5"/><circle class="cls-2" cx="113.7" cy="229.1" r="5.5"/><circle class="cls-2" cx="559.5" cy="207.6" r="5.5"/><circle class="cls-2" cx="124.1" cy="191" r="5.5"/><circle class="cls-2" cx="377" cy="265.1" r="5.5"/><circle class="cls-2" cx="578.7" cy="169.6" r="5.5"/><circle class="cls-2" cx="463.9" cy="246.5" r="5.5"/><circle class="cls-2" cx="141.9" cy="27.4" r="5.5"/><circle class="cls-2" cx="62.3" cy="52.1" r="5.5"/><circle class="cls-2" cx="84.9" cy="185.3" r="5.5"/><circle class="cls-2" cx="190.3" cy="265.8" r="5.5"/><circle class="cls-2" cx="297.7" cy="218.6" r="5.5"/><circle class="cls-2" cx="11" cy="241.8" r="5.5"/><circle class="cls-2" cx="668.4" cy="244.9" r="5.5"/><circle class="cls-2" cx="164.2" cy="266.6" r="5.5"/><circle class="cls-2" cx="853" cy="125.7" r="5.5"/><circle class="cls-2" cx="636.1" cy="223.9" r="5.5"/><circle class="cls-2" cx="614.7" cy="264.8" r="5.5"/><circle class="cls-2" cx="493.2" cy="10.9" r="5.5"/><circle class="cls-2" cx="710.8" cy="132.3" r="5.5"/><circle class="cls-2" cx="446.6" cy="123.2" r="5.5"/><circle class="cls-2" cx="636.2" cy="131.3" r="5.5"/><circle class="cls-2" cx="539.4" cy="9.5" r="5.5"/><circle class="cls-2" cx="742.4" cy="134.5" r="5.5"/><circle class="cls-2" cx="379.8" cy="202" r="5.5"/><circle class="cls-2" cx="818.3" cy="33.8" r="5.5"/><circle class="cls-2" cx="675.3" cy="59.8" r="5.5"/><circle class="cls-2" cx="479" cy="204.8" r="5.5"/><circle class="cls-2" cx="378.6" cy="160" r="5.5"/><circle class="cls-2" cx="100.2" cy="247.1" r="5.5"/><circle class="cls-2" cx="318.2" cy="208.2" r="5.5"/><circle class="cls-2" cx="703.8" cy="112.3" r="5.5"/><circle class="cls-2" cx="647.9" cy="88.7" r="5.5"/><circle class="cls-2" cx="76.9" cy="245.6" r="5.5"/><circle class="cls-2" cx="443.8" cy="239.4" r="5.5"/><circle class="cls-2" cx="829.6" cy="263.5" r="5.5"/><circle class="cls-2" cx="766.2" cy="241.9" r="5.5"/><circle class="cls-2" cx="10.9" cy="122.9" r="5.5"/><circle class="cls-2" cx="158.7" cy="83.3" r="5.5"/><circle class="cls-2" cx="633.4" cy="176.7" r="5.5"/><circle class="cls-2" cx="819.5" cy="217.4" r="5.5"/><circle class="cls-2" cx="539.2" cy="99.8" r="5.5"/><circle class="cls-2" cx="442.2" cy="262.5" r="5.5"/><circle class="cls-2" cx="831.5" cy="135.5" r="5.5"/><circle class="cls-2" cx="378.4" cy="137.9" r="5.5"/><circle class="cls-2" cx="202.9" cy="154" r="5.5"/><circle class="cls-2" cx="104.9" cy="204.6" r="5.5"/><circle class="cls-2" cx="223.6" cy="152.7" r="5.5"/><circle class="cls-2" cx="175.9" cy="72.7" r="5.5"/><circle class="cls-2" cx="265.4" cy="163" r="5.5"/><circle class="cls-2" cx="434.8" cy="140.2" r="5.5"/><circle class="cls-2" cx="690.5" cy="74.2" r="5.5"/><circle class="cls-2" cx="635.5" cy="264.2" r="5.5"/><circle class="cls-2" cx="575.3" cy="130.2" r="5.5"/><circle class="cls-2" cx="709.1" cy="10.9" r="5.5"/><circle class="cls-2" cx="203.8" cy="119.2" r="5.5"/><circle class="cls-2" cx="86.7" cy="265.4" r="5.5"/><circle class="cls-2" cx="136.7" cy="266.5" r="5.5"/><circle class="cls-2" cx="582.6" cy="51.2" r="5.5"/><circle class="cls-2" cx="465.8" cy="29.2" r="5.5"/><circle class="cls-2" cx="515.1" cy="10.2" r="5.5"/><circle class="cls-2" cx="523.9" cy="266" r="5.5"/><circle class="cls-2" cx="405.1" cy="230.3" r="5.5"/><circle class="cls-2" cx="534.9" cy="172.5" r="5.5"/><circle class="cls-2" cx="40.8" cy="51.3" r="5.5"/><circle class="cls-2" cx="242.4" cy="10.2" r="5.5"/><circle class="cls-2" cx="770.2" cy="50.5" r="5.5"/><circle class="cls-2" cx="52.1" cy="32.3" r="5.5"/><circle class="cls-2" cx="724.6" cy="100.6" r="5.5"/><circle class="cls-2" cx="181.1" cy="227.6" r="5.5"/><circle class="cls-2" cx="74.4" cy="32.1" r="5.5"/><circle class="cls-2" cx="414.8" cy="135.7" r="5.5"/><circle class="cls-2" cx="382.6" cy="112.1" r="5.5"/><circle class="cls-2" cx="182.7" cy="204.4" r="5.5"/><circle class="cls-2" cx="11" cy="169.5" r="5.5"/><circle class="cls-2" cx="467.3" cy="225.2" r="5.5"/><circle class="cls-2" cx="246.8" cy="46.7" r="5.5"/><circle class="cls-2" cx="499" cy="194.9" r="5.5"/><circle class="cls-2" cx="739" cy="266.2" r="5.5"/><circle class="cls-2" cx="497.5" cy="173.5" r="5.5"/><circle class="cls-2" cx="398.1" cy="58" r="5.5"/><circle class="cls-2" cx="649.5" cy="28.6" r="5.5"/><circle class="cls-2" cx="507.9" cy="133.2" r="5.5"/><circle class="cls-2" cx="95.1" cy="162.5" r="5.5"/><circle class="cls-2" cx="261.2" cy="191.7" r="5.5"/><circle class="cls-2" cx="411.1" cy="25.6" r="5.5"/><circle class="cls-2" cx="761" cy="170.8" r="5.5"/><circle class="cls-2" cx="608.2" cy="11.6" r="5.5"/><circle class="cls-2" cx="378.1" cy="242.2" r="5.5"/><circle class="cls-2" cx="581.2" cy="208.7" r="5.5"/><circle class="cls-2" cx="325.9" cy="94.7" r="5.5"/><circle class="cls-2" cx="78.5" cy="144.7" r="5.5"/><circle class="cls-2" cx="785.2" cy="119.5" r="5.5"/><circle class="cls-2" cx="408.5" cy="43.8" r="5.5"/><circle class="cls-2" cx="284.9" cy="160.7" r="5.5"/><circle class="cls-2" cx="714.5" cy="46.6" r="5.5"/><circle class="cls-2" cx="188.1" cy="135.2" r="5.5"/><circle class="cls-2" cx="315.1" cy="11.2" r="5.5"/><circle class="cls-2" cx="441.9" cy="57.3" r="5.5"/><circle class="cls-2" cx="399.3" cy="190.9" r="5.5"/><circle class="cls-2" cx="407.2" cy="113.3" r="5.5"/><circle class="cls-2" cx="125.5" cy="212.6" r="5.5"/><circle class="cls-2" cx="502.7" cy="70.9" r="5.5"/><circle class="cls-2" cx="460.3" cy="138.2" r="5.5"/><circle class="cls-2" cx="526.2" cy="227.6" r="5.5"/><circle class="cls-2" cx="150.4" cy="138.1" r="5.5"/><circle class="cls-2" cx="490.5" cy="219.9" r="5.5"/><circle class="cls-2" cx="29.1" cy="65.8" r="5.5"/><circle class="cls-2" cx="203.4" cy="175.1" r="5.5"/><circle class="cls-2" cx="304.2" cy="80.1" r="5.5"/><circle class="cls-2" cx="615.9" cy="223.4" r="5.5"/><circle class="cls-2" cx="798.8" cy="165" r="5.5"/><circle class="cls-2" cx="100.2" cy="141.2" r="5.5"/><circle class="cls-2" cx="800.2" cy="209" r="5.5"/><circle class="cls-2" cx="143" cy="119.1" r="5.5"/><circle class="cls-2" cx="98.4" cy="32" r="5.5"/><circle class="cls-2" cx="618.1" cy="115.2" r="5.5"/><circle class="cls-2" cx="211.1" cy="82.2" r="5.5"/><circle class="cls-2" cx="268.8" cy="102.9" r="5.5"/><circle class="cls-2" cx="84.7" cy="207.6" r="5.5"/><circle class="cls-2" cx="486.1" cy="30.7" r="5.5"/><circle class="cls-2" cx="243.8" cy="155" r="5.5"/><circle class="cls-2" cx="218.3" cy="238.3" r="5.5"/><circle class="cls-2" cx="365" cy="73.4" r="5.5"/><circle class="cls-2" cx="146" cy="218.4" r="5.5"/><circle class="cls-2" cx="359.6" cy="146.1" r="5.5"/><circle class="cls-2" cx="401.7" cy="265.7" r="5.5"/><circle class="cls-2" cx="13.6" cy="264.9" r="5.5"/><circle class="cls-2" cx="691.8" cy="134.7" r="5.5"/><circle class="cls-2" cx="746.5" cy="107.2" r="5.5"/><circle class="cls-2" cx="345.3" cy="31.6" r="5.5"/><circle class="cls-2" cx="359.8" cy="249.5" r="5.5"/><circle class="cls-2" cx="851.6" cy="265.6" r="5.5"/><circle class="cls-2" cx="518" cy="84.6" r="5.5"/><circle class="cls-2" cx="344" cy="68.7" r="5.5"/><circle class="cls-2" cx="398.3" cy="94.7" r="5.5"/><circle class="cls-2" cx="431.5" cy="79" r="5.5"/><circle class="cls-2" cx="377.2" cy="90.9" r="5.5"/><circle class="cls-2" cx="111.8" cy="88.9" r="5.5"/><circle class="cls-2" cx="382.1" cy="12.2" r="5.5"/><circle class="cls-2" cx="723.6" cy="80" r="5.5"/><circle class="cls-2" cx="725.7" cy="236" r="5.5"/><circle class="cls-2" cx="673" cy="138.5" r="5.5"/><circle class="cls-2" cx="238.4" cy="228.5" r="5.5"/><circle class="cls-2" cx="759.3" cy="148.2" r="5.5"/><circle class="cls-2" cx="698.7" cy="266.3" r="5.5"/><circle class="cls-2" cx="166.4" cy="121.1" r="5.5"/><circle class="cls-2" cx="73.8" cy="69.6" r="5.5"/><circle class="cls-2" cx="854.4" cy="13.9" r="5.5"/><circle class="cls-2" cx="253.8" cy="87.7" r="5.5"/><circle class="cls-2" cx="331.8" cy="51.2" r="5.5"/><circle class="cls-2" cx="763.5" cy="217.3" r="5.5"/><circle class="cls-2" cx="753.7" cy="63.1" r="5.5"/><circle class="cls-2" cx="742.4" cy="180.4" r="5.5"/><circle class="cls-2" cx="567.3" cy="187.5" r="5.5"/><circle class="cls-2" cx="504.4" cy="234.3" r="5.5"/><circle class="cls-2" cx="92.7" cy="11.8" r="5.5"/><circle class="cls-2" cx="396.6" cy="247.8" r="5.5"/><circle class="cls-2" cx="28.8" cy="110.5" r="5.5"/><circle class="cls-2" cx="340.2" cy="155.3" r="5.5"/><circle class="cls-2" cx="604.8" cy="205.2" r="5.5"/><circle class="cls-2" cx="516.7" cy="247.7" r="5.5"/><circle class="cls-2" cx="569.7" cy="265.6" r="5.5"/><circle class="cls-2" cx="485.6" cy="242.8" r="5.5"/><circle class="cls-2" cx="655.2" cy="263.9" r="5.5"/><circle class="cls-2" cx="779" cy="10.8" r="5.5"/><circle class="cls-2" cx="445.8" cy="217.5" r="5.5"/><circle class="cls-2" cx="151.2" cy="65.7" r="5.5"/><circle class="cls-2" cx="692.5" cy="49.8" r="5.5"/><circle class="cls-2" cx="574.3" cy="150.1" r="5.5"/><circle class="cls-2" cx="338.9" cy="200" r="5.5"/><circle class="cls-2" cx="741.3" cy="25.2" r="5.5"/><circle class="cls-2" cx="323.3" cy="32.1" r="5.5"/><circle class="cls-2" cx="362.2" cy="102.3" r="5.5"/><circle class="cls-2" cx="589" cy="190.2" r="5.5"/><circle class="cls-2" cx="519.3" cy="154.6" r="5.5"/><circle class="cls-2" cx="477" cy="183.8" r="5.5"/><circle class="cls-2" cx="726" cy="212.3" r="5.5"/><circle class="cls-2" cx="743.3" cy="84.9" r="5.5"/><circle class="cls-2" cx="378.9" cy="181.1" r="5.5"/><circle class="cls-2" cx="546.5" cy="265.6" r="5.5"/><circle class="cls-2" cx="723.9" cy="189.2" r="5.5"/><circle class="cls-2" cx="420.5" cy="203.6" r="5.5"/><circle class="cls-2" cx="650.2" cy="211.4" r="5.5"/><circle class="cls-2" cx="819.6" cy="195.2" r="5.5"/><circle class="cls-2" cx="557.3" cy="166.2" r="5.5"/><circle class="cls-2" cx="438.8" cy="196.2" r="5.5"/><circle class="cls-2" cx="236.1" cy="101.1" r="5.5"/><circle class="cls-2" cx="629" cy="201.9" r="5.5"/><circle class="cls-2" cx="798.8" cy="10.8" r="5.5"/><circle class="cls-2" cx="763.2" cy="84.7" r="5.5"/><circle class="cls-2" cx="328.2" cy="265.5" r="5.5"/><circle class="cls-2" cx="697" cy="30" r="5.5"/><circle class="cls-2" cx="675.6" cy="265.9" r="5.5"/><circle class="cls-2" cx="112" cy="12.9" r="5.5"/><circle class="cls-2" cx="832.1" cy="235.5" r="5.5"/><circle class="cls-2" cx="795.1" cy="142.6" r="5.5"/><circle class="cls-2" cx="563.5" cy="61.3" r="5.5"/><circle class="cls-2" cx="317.7" cy="247.7" r="5.5"/><circle class="cls-2" cx="219.9" cy="192.4" r="5.5"/><circle class="cls-2" cx="258.4" cy="215.6" r="5.5"/><circle class="cls-2" cx="291.5" cy="10.7" r="5.5"/><circle class="cls-2" cx="786" cy="89" r="5.5"/><circle class="cls-2" cx="358.5" cy="188.3" r="5.5"/><circle class="cls-2" cx="52.6" cy="242.3" r="5.5"/><circle class="cls-2" cx="576.2" cy="29" r="5.5"/><circle class="cls-2" cx="745.5" cy="226.4" r="5.5"/><circle class="cls-2" cx="853" cy="223.2" r="5.5"/><circle class="cls-2" cx="687.6" cy="190.5" r="5.5"/><circle class="cls-2" cx="319.5" cy="186.6" r="5.5"/><circle class="cls-2" cx="554.8" cy="80.1" r="5.5"/><circle class="cls-2" cx="225.6" cy="172.1" r="5.5"/><circle class="cls-2" cx="200.9" cy="197.8" r="5.5"/><circle class="cls-2" cx="759.9" cy="264.2" r="5.5"/><circle class="cls-2" cx="837.1" cy="183.9" r="5.5"/><circle class="cls-2" cx="701.7" cy="153.6" r="5.5"/><circle class="cls-2" cx="130.8" cy="57.3" r="5.5"/><circle class="cls-2" cx="225.6" cy="117.9" r="5.5"/><circle class="cls-2" cx="66.9" cy="128.2" r="5.5"/><circle class="cls-2" cx="464.1" cy="66.5" r="5.5"/><circle class="cls-2" cx="183.4" cy="159.1" r="5.5"/><circle class="cls-2" cx="790" cy="247.1" r="5.5"/><circle class="cls-2" cx="621.2" cy="30.8" r="5.5"/><circle class="cls-2" cx="555.6" cy="139.6" r="5.5"/><circle class="cls-2" cx="532.2" cy="135.5" r="5.5"/><circle class="cls-2" cx="409.9" cy="77.4" r="5.5"/><circle class="cls-2" cx="798" cy="30.8" r="5.5"/><circle class="cls-2" cx="515.2" cy="176.4" r="5.5"/><circle class="cls-2" cx="283.5" cy="265.5" r="5.5"/><circle class="cls-2" cx="444.5" cy="157.1" r="5.5"/><circle class="cls-2" cx="52.9" cy="146.4" r="5.5"/><circle class="cls-2" cx="298.7" cy="195.8" r="5.5"/><circle class="cls-2" cx="125.9" cy="105.5" r="5.5"/><circle class="cls-2" cx="419.9" cy="158.3" r="5.5"/><circle class="cls-2" cx="41.7" cy="12.3" r="5.5"/><circle class="cls-2" cx="564.4" cy="10" r="5.5"/><circle class="cls-2" cx="231.6" cy="27.7" r="5.5"/><circle class="cls-2" cx="463.4" cy="113.2" r="5.5"/><circle class="cls-2" cx="29.6" cy="179.9" r="5.5"/><circle class="cls-2" cx="499.9" cy="151.9" r="5.5"/><circle class="cls-2" cx="78.9" cy="106.8" r="5.5"/><circle class="cls-2" cx="671.3" cy="83.6" r="5.5"/><circle class="cls-2" cx="827.7" cy="71.2" r="5.5"/><circle class="cls-2" cx="649.3" cy="10" r="5.5"/><circle class="cls-2" cx="511.8" cy="212.1" r="5.5"/><circle class="cls-2" cx="111" cy="266.1" r="5.5"/><circle class="cls-2" cx="367.7" cy="32.2" r="5.5"/><circle class="cls-2" cx="322.7" cy="141.1" r="5.5"/><circle class="cls-2" cx="163.9" cy="30.5" r="5.5"/><circle class="cls-2" cx="382.4" cy="222.9" r="5.5"/><circle class="cls-2" cx="537.8" cy="246.6" r="5.5"/><circle class="cls-2" cx="800.2" cy="187.2" r="5.5"/><circle class="cls-2" cx="302.8" cy="150.6" r="5.5"/><circle class="cls-2" cx="88.8" cy="124.4" r="5.5"/><circle class="cls-2" cx="655" cy="146.4" r="5.5"/><circle class="cls-2" cx="627.2" cy="91.7" r="5.5"/><circle class="cls-2" cx="720.3" cy="168.4" r="5.5"/><circle class="cls-2" cx="417.8" cy="181.5" r="5.5"/><circle class="cls-2" cx="708.7" cy="65.5" r="5.5"/><circle class="cls-2" cx="800.6" cy="70.7" r="5.5"/><circle class="cls-2" cx="10.3" cy="74.9" r="5.5"/><circle class="cls-2" cx="422" cy="97.1" r="5.5"/><circle class="cls-2" cx="198.3" cy="245" r="5.5"/><circle class="cls-2" cx="775.8" cy="30" r="5.5"/><circle class="cls-2" cx="743.4" cy="247.5" r="5.5"/><circle class="cls-2" cx="482" cy="124.9" r="5.5"/><circle class="cls-2" cx="342.5" cy="132.8" r="5.5"/><circle class="cls-2" cx="732.3" cy="63.3" r="5.5"/><circle class="cls-2" cx="237.1" cy="249.6" r="5.5"/><circle class="cls-2" cx="197.4" cy="68.3" r="5.5"/><circle class="cls-2" cx="666.9" cy="223.4" r="5.5"/><circle class="cls-2" cx="811" cy="87.6" r="5.5"/><circle class="cls-2" cx="289.6" cy="45.2" r="5.5"/><circle class="cls-2" cx="362.7" cy="123.6" r="5.5"/><circle class="cls-2" cx="783" cy="225.9" r="5.5"/><circle class="cls-2" cx="136.6" cy="234.7" r="5.5"/><circle class="cls-2" cx="540.9" cy="153.5" r="5.5"/><circle class="cls-2" cx="218.9" cy="214.6" r="5.5"/><circle class="cls-2" cx="65.6" cy="202.4" r="5.5"/><circle class="cls-2" cx="546.3" cy="188.9" r="5.5"/><circle class="cls-2" cx="250" cy="115.9" r="5.5"/><circle class="cls-2" cx="276.2" cy="248" r="5.5"/></g></g></svg>