<svg xmlns="http://www.w3.org/2000/svg" viewBox="0 0 1015.8 275.9"><defs><style>.cls-1{fill:none;}.cls-2{fill:#faebc3;}</style></defs><title>资源 8</title><g id="图层_2" data-name="图层 2"><g id="图层_1-2" data-name="图层 1"><rect class="cls-1" width="1015.8" height="275.88"/><circle class="cls-2" cx="961.4" cy="77.5" r="5.5"/><circle class="cls-2" cx="396.3" cy="195.7" r="5.5"/><circle class="cls-2" cx="264.1" cy="134.4" r="5.5"/><circle class="cls-2" cx="413.4" cy="239.6" r="5.5"/><circle class="cls-2" cx="578.1" cy="206.7" r="5.5"/><circle class="cls-2" cx="413.6" cy="178.1" r="5.5"/><circle class="cls-2" cx="277.5" cy="14.1" r="5.5"/><circle class="cls-2" cx="367.7" cy="138.7" r="5.5"/><circle class="cls-2" cx="390.6" cy="245.1" r="5.5"/><circle class="cls-2" cx="603.3" cy="200.4" r="5.5"/><circle class="cls-2" cx="730.1" cy="132.9" r="5.5"/><circle class="cls-2" cx="744.5" cy="112.3" r="5.5"/><circle class="cls-2" cx="138.6" cy="58.1" r="5.5"/><circle class="cls-2" cx="637.3" cy="62.6" r="5.5"/><circle class="cls-2" cx="818.4" cy="220.5" r="5.5"/><circle class="cls-2" cx="409.1" cy="214.8" r="5.5"/><circle class="cls-2" cx="568.5" cy="261.8" r="5.5"/><circle class="cls-2" cx="833.2" cy="11" r="5.5"/><circle class="cls-2" cx="666.2" cy="241.8" r="5.5"/><circle class="cls-2" cx="1004.7" cy="83.2" r="5.5"/><circle class="cls-2" cx="642.6" cy="205.7" r="5.5"/><circle class="cls-2" cx="928.1" cy="34.3" r="5.5"/><circle class="cls-2" cx="286.7" cy="151.2" r="5.5"/><circle class="cls-2" cx="305.6" cy="235.2" r="5.5"/><circle class="cls-2" cx="322.7" cy="33.6" r="5.5"/><circle class="cls-2" cx="806.4" cy="203.4" r="5.5"/><circle class="cls-2" cx="211.2" cy="167.9" r="5.5"/><circle class="cls-2" cx="145.8" cy="198.3" r="5.5"/><circle class="cls-2" cx="135.8" cy="220.7" r="5.5"/><circle class="cls-2" cx="91" cy="33.3" r="5.5"/><circle class="cls-2" cx="539.8" cy="131.4" r="5.5"/><circle class="cls-2" cx="416.7" cy="66.5" r="5.5"/><circle class="cls-2" cx="984.9" cy="197.1" r="5.5"/><circle class="cls-2" cx="417.5" cy="132.6" r="5.5"/><circle class="cls-2" cx="681.9" cy="81.6" r="5.5"/><circle class="cls-2" cx="429" cy="85" r="5.5"/><circle class="cls-2" cx="1006.2" cy="37" r="5.5"/><circle class="cls-2" cx="980" cy="240.4" r="5.5"/><circle class="cls-2" cx="190.9" cy="12.1" r="5.5"/><circle class="cls-2" cx="728.3" cy="263.8" r="5.5"/><circle class="cls-2" cx="15.6" cy="141.7" r="5.5"/><circle class="cls-2" cx="701" cy="263.4" r="5.5"/><circle class="cls-2" cx="985" cy="262.9" r="5.5"/><circle class="cls-2" cx="437.5" cy="56.1" r="5.5"/><circle class="cls-2" cx="198.8" cy="129.2" r="5.5"/><circle class="cls-2" cx="227.1" cy="203.2" r="5.5"/><circle class="cls-2" cx="971.8" cy="216.3" r="5.5"/><circle class="cls-2" cx="331.8" cy="219.8" r="5.5"/><circle class="cls-2" cx="462.2" cy="242.4" r="5.5"/><circle class="cls-2" cx="328.7" cy="161.3" r="5.5"/><circle class="cls-2" cx="746.3" cy="178.6" r="5.5"/><circle class="cls-2" cx="732.7" cy="66.5" r="5.5"/><circle class="cls-2" cx="753.4" cy="139.8" r="5.5"/><circle class="cls-2" cx="198.7" cy="241.1" r="5.5"/><circle class="cls-2" cx="283.1" cy="174.4" r="5.5"/><circle class="cls-2" cx="916.8" cy="244.8" r="5.5"/><circle class="cls-2" cx="61.3" cy="182.9" r="5.5"/><circle class="cls-2" cx="232.8" cy="262.4" r="5.5"/><circle class="cls-2" cx="127.5" cy="179.5" r="5.5"/><circle class="cls-2" cx="736.9" cy="13.7" r="5.5"/><circle class="cls-2" cx="764.9" cy="189.7" r="5.5"/><circle class="cls-2" cx="55.4" cy="81.4" r="5.5"/><circle class="cls-2" cx="592.9" cy="93.6" r="5.5"/><circle class="cls-2" cx="855.2" cy="47.3" r="5.5"/><circle class="cls-2" cx="120.1" cy="77.1" r="5.5"/><circle class="cls-2" cx="332.4" cy="54.9" r="5.5"/><circle class="cls-2" cx="507" cy="107" r="5.5"/><circle class="cls-2" cx="348" cy="124.9" r="5.5"/><circle class="cls-2" cx="907.3" cy="35.9" r="5.5"/><circle class="cls-2" cx="921" cy="55.7" r="5.5"/><circle class="cls-2" cx="837.2" cy="264.5" r="5.5"/><circle class="cls-2" cx="782.3" cy="264" r="5.5"/><circle class="cls-2" cx="114.4" cy="117.2" r="5.5"/><circle class="cls-2" cx="943.4" cy="264.4" r="5.5"/><circle class="cls-2" cx="448.3" cy="199.7" r="5.5"/><circle class="cls-2" cx="955.3" cy="12.5" r="5.5"/><circle class="cls-2" cx="870.9" cy="120.2" r="5.5"/><circle class="cls-2" cx="144.4" cy="80.6" r="5.5"/><circle class="cls-2" cx="263.4" cy="156.1" r="5.5"/><circle class="cls-2" cx="267.6" cy="224.6" r="5.5"/><circle class="cls-2" cx="304" cy="261.8" r="5.5"/><circle class="cls-2" cx="919.1" cy="264.4" r="5.5"/><circle class="cls-2" cx="888.6" cy="187.5" r="5.5"/><circle class="cls-2" cx="865.3" cy="264.6" r="5.5"/><circle class="cls-2" cx="608.6" cy="242.4" r="5.5"/><circle class="cls-2" cx="172" cy="162" r="5.5"/><circle class="cls-2" cx="1004.4" cy="179.3" r="5.5"/><circle class="cls-2" cx="82.8" cy="220.1" r="5.5"/><circle class="cls-2" cx="97.5" cy="77.1" r="5.5"/><circle class="cls-2" cx="674" cy="171.9" r="5.5"/><circle class="cls-2" cx="760.1" cy="11.2" r="5.5"/><circle class="cls-2" cx="756.2" cy="263.1" r="5.5"/><circle class="cls-2" cx="570.2" cy="67.2" r="5.5"/><circle class="cls-2" cx="485.6" cy="43.1" r="5.5"/><circle class="cls-2" cx="254.7" cy="263.9" r="5.5"/><circle class="cls-2" cx="375.8" cy="263" r="5.5"/><circle class="cls-2" cx="406.7" cy="13.9" r="5.5"/><circle class="cls-2" cx="507.8" cy="238.3" r="5.5"/><circle class="cls-2" cx="561.3" cy="189.1" r="5.5"/><circle class="cls-2" cx="596.4" cy="222.5" r="5.5"/><circle class="cls-2" cx="323.2" cy="115.5" r="5.5"/><circle class="cls-2" cx="194.1" cy="152.5" r="5.5"/><circle class="cls-2" cx="932.1" cy="80.9" r="5.5"/><circle class="cls-2" cx="425" cy="196.6" r="5.5"/><circle class="cls-2" cx="651.6" cy="155.8" r="5.5"/><circle class="cls-2" cx="802.7" cy="157.6" r="5.5"/><circle class="cls-2" cx="53.2" cy="58.5" r="5.5"/><circle class="cls-2" cx="89.4" cy="120" r="5.5"/><circle class="cls-2" cx="704.2" cy="220.1" r="5.5"/><circle class="cls-2" cx="483.7" cy="106.2" r="5.5"/><circle class="cls-2" cx="349.7" cy="198.6" r="5.5"/><circle class="cls-2" cx="713.1" cy="55.5" r="5.5"/><circle class="cls-2" cx="134.1" cy="35.1" r="5.5"/><circle class="cls-2" cx="323.6" cy="242.7" r="5.5"/><circle class="cls-2" cx="893.2" cy="110.4" r="5.5"/><circle class="cls-2" cx="167.6" cy="11.9" r="5.5"/><circle class="cls-2" cx="937.6" cy="132.4" r="5.5"/><circle class="cls-2" cx="888.4" cy="36.1" r="5.5"/><circle class="cls-2" cx="612.3" cy="103.4" r="5.5"/><circle class="cls-2" cx="69.9" cy="29" r="5.5"/><circle class="cls-2" cx="828" cy="171.7" r="5.5"/><circle class="cls-2" cx="705.9" cy="130" r="5.5"/><circle class="cls-2" cx="287.2" cy="53.8" r="5.5"/><circle class="cls-2" cx="594.4" cy="264" r="5.5"/><circle class="cls-2" cx="270.1" cy="65" r="5.5"/><circle class="cls-2" cx="848.9" cy="114.6" r="5.5"/><circle class="cls-2" cx="246.4" cy="33.3" r="5.5"/><circle class="cls-2" cx="529.1" cy="14.9" r="5.5"/><circle class="cls-2" cx="910.7" cy="12.7" r="5.5"/><circle class="cls-2" cx="715.6" cy="242.9" r="5.5"/><circle class="cls-2" cx="809.6" cy="263.2" r="5.5"/><circle class="cls-2" cx="527.7" cy="114" r="5.5"/><circle class="cls-2" cx="942.9" cy="60.4" r="5.5"/><circle class="cls-2" cx="727.5" cy="221.3" r="5.5"/><circle class="cls-2" cx="697.8" cy="35.2" r="5.5"/><circle class="cls-2" cx="1002.8" cy="244.2" r="5.5"/><circle class="cls-2" cx="75.2" cy="72.2" r="5.5"/><circle class="cls-2" cx="1004.3" cy="156.5" r="5.5"/><circle class="cls-2" cx="173.6" cy="242.6" r="5.5"/><circle class="cls-2" cx="441.4" cy="125.3" r="5.5"/><circle class="cls-2" cx="682.5" cy="125.6" r="5.5"/><circle class="cls-2" cx="634" cy="89.6" r="5.5"/><circle class="cls-2" cx="862" cy="139" r="5.5"/><circle class="cls-2" cx="124.4" cy="12.3" r="5.5"/><circle class="cls-2" cx="937.3" cy="180.2" r="5.5"/><circle class="cls-2" cx="429.4" cy="219.6" r="5.5"/><circle class="cls-2" cx="983.5" cy="69.7" r="5.5"/><circle class="cls-2" cx="730" cy="90.8" r="5.5"/><circle class="cls-2" cx="513.5" cy="132.4" r="5.5"/><circle class="cls-2" cx="841.3" cy="137" r="5.5"/><circle class="cls-2" cx="130.5" cy="138.6" r="5.5"/><circle class="cls-2" cx="612.5" cy="54.8" r="5.5"/><circle class="cls-2" cx="270.5" cy="110.9" r="5.5"/><circle class="cls-2" cx="724.1" cy="178.2" r="5.5"/><circle class="cls-2" cx="985.9" cy="48" r="5.5"/><circle class="cls-2" cx="511.2" cy="214.2" r="5.5"/><circle class="cls-2" cx="110.4" cy="159.2" r="5.5"/><circle class="cls-2" cx="112.1" cy="33" r="5.5"/><circle class="cls-2" cx="630.5" cy="245.3" r="5.5"/><circle class="cls-2" cx="584.8" cy="184.1" r="5.5"/><circle class="cls-2" cx="10.7" cy="163.6" r="5.5"/><circle class="cls-2" cx="570.6" cy="94.2" r="5.5"/><circle class="cls-2" cx="183.8" cy="223" r="5.5"/><circle class="cls-2" cx="796.8" cy="35.9" r="5.5"/><circle class="cls-2" cx="377.7" cy="120.7" r="5.5"/><circle class="cls-2" cx="63.4" cy="204.6" r="5.5"/><circle class="cls-2" cx="468.9" cy="86.6" r="5.5"/><circle class="cls-2" cx="871.9" cy="201.1" r="5.5"/><circle class="cls-2" cx="376.7" cy="56.7" r="5.5"/><circle class="cls-2" cx="574.8" cy="14.3" r="5.5"/><circle class="cls-2" cx="249.7" cy="77.8" r="5.5"/><circle class="cls-2" cx="571" cy="37.7" r="5.5"/><circle class="cls-2" cx="12.3" cy="11.6" r="5.5"/><circle class="cls-2" cx="893.1" cy="263.7" r="5.5"/><circle class="cls-2" cx="480.8" cy="149.7" r="5.5"/><circle class="cls-2" cx="103.8" cy="180.7" r="5.5"/><circle class="cls-2" cx="689.8" cy="195.9" r="5.5"/><circle class="cls-2" cx="978.3" cy="10.3" r="5.5"/><circle class="cls-2" cx="103" cy="237" r="5.5"/><circle class="cls-2" cx="807.1" cy="180.8" r="5.5"/><circle class="cls-2" cx="472.4" cy="263.1" r="5.5"/><circle class="cls-2" cx="428" cy="13" r="5.5"/><circle class="cls-2" cx="256.9" cy="12.6" r="5.5"/><circle class="cls-2" cx="169.1" cy="263.2" r="5.5"/><circle class="cls-2" cx="529.2" cy="152.8" r="5.5"/><circle class="cls-2" cx="552.5" cy="11.2" r="5.5"/><circle class="cls-2" cx="103.1" cy="98.3" r="5.5"/><circle class="cls-2" cx="715.1" cy="154.1" r="5.5"/><circle class="cls-2" cx="66.3" cy="139.2" r="5.5"/><circle class="cls-2" cx="227.9" cy="73.5" r="5.5"/><circle class="cls-2" cx="692.5" cy="151.5" r="5.5"/><circle class="cls-2" cx="189.7" cy="262.7" r="5.5"/><circle class="cls-2" cx="509" cy="32.8" r="5.5"/><circle class="cls-2" cx="284.9" cy="127.9" r="5.5"/><circle class="cls-2" cx="459.4" cy="159.1" r="5.5"/><circle class="cls-2" cx="384.7" cy="12.4" r="5.5"/><circle class="cls-2" cx="530.4" cy="66.6" r="5.5"/><circle class="cls-2" cx="318.8" cy="12.2" r="5.5"/><circle class="cls-2" cx="958.2" cy="238.3" r="5.5"/><circle class="cls-2" cx="674.3" cy="263.2" r="5.5"/><circle class="cls-2" cx="32.2" cy="47.6" r="5.5"/><circle class="cls-2" cx="11.8" cy="77" r="5.5"/><circle class="cls-2" cx="958.8" cy="145.5" r="5.5"/><circle class="cls-2" cx="862.9" cy="224.7" r="5.5"/><circle class="cls-2" cx="851.6" cy="90.7" r="5.5"/><circle class="cls-2" cx="663.7" cy="59.5" r="5.5"/><circle class="cls-2" cx="884.9" cy="222.3" r="5.5"/><circle class="cls-2" cx="869.4" cy="175.6" r="5.5"/><circle class="cls-2" cx="128.7" cy="263.3" r="5.5"/><circle class="cls-2" cx="207.4" cy="193" r="5.5"/><circle class="cls-2" cx="737.9" cy="157.2" r="5.5"/><circle class="cls-2" cx="101.6" cy="11.9" r="5.5"/><circle class="cls-2" cx="872" cy="99.6" r="5.5"/><circle class="cls-2" cx="246" cy="118.9" r="5.5"/><circle class="cls-2" cx="235.1" cy="12.3" r="5.5"/><circle class="cls-2" cx="373.7" cy="186.1" r="5.5"/><circle class="cls-2" cx="520.6" cy="193" r="5.5"/><circle class="cls-2" cx="348.9" cy="151" r="5.5"/><circle class="cls-2" cx="812.3" cy="56.1" r="5.5"/><circle class="cls-2" cx="464.5" cy="114.2" r="5.5"/><circle class="cls-2" cx="29.5" cy="27.4" r="5.5"/><circle class="cls-2" cx="656.7" cy="82" r="5.5"/><circle class="cls-2" cx="948.1" cy="36.3" r="5.5"/><circle class="cls-2" cx="35.9" cy="10.5" r="5.5"/><circle class="cls-2" cx="322.2" cy="197.2" r="5.5"/><circle class="cls-2" cx="750.7" cy="223.6" r="5.5"/><circle class="cls-2" cx="806.9" cy="106.3" r="5.5"/><circle class="cls-2" cx="83.1" cy="167.2" r="5.5"/><circle class="cls-2" cx="87.5" cy="245.3" r="5.5"/><circle class="cls-2" cx="231" cy="223.2" r="5.5"/><circle class="cls-2" cx="228.5" cy="98.6" r="5.5"/><circle class="cls-2" cx="10.1" cy="234.1" r="5.5"/><circle class="cls-2" cx="696.8" cy="103.8" r="5.5"/><circle class="cls-2" cx="227.3" cy="51.3" r="5.5"/><circle class="cls-2" cx="308.5" cy="150.9" r="5.5"/><circle class="cls-2" cx="982.4" cy="176.3" r="5.5"/><circle class="cls-2" cx="166.8" cy="207" r="5.5"/><circle class="cls-2" cx="462.6" cy="136.2" r="5.5"/><circle class="cls-2" cx="352.7" cy="263" r="5.5"/><circle class="cls-2" cx="750.8" cy="83.2" r="5.5"/><circle class="cls-2" cx="588.2" cy="51.6" r="5.5"/><circle class="cls-2" cx="876.5" cy="154.1" r="5.5"/><circle class="cls-2" cx="625.2" cy="191.5" r="5.5"/><circle class="cls-2" cx="769.2" cy="213.2" r="5.5"/><circle class="cls-2" cx="93.7" cy="55.4" r="5.5"/><circle class="cls-2" cx="368.5" cy="34.9" r="5.5"/><circle class="cls-2" cx="46.6" cy="243.2" r="5.5"/><circle class="cls-2" cx="640.9" cy="13.7" r="5.5"/><circle class="cls-2" cx="689" cy="59" r="5.5"/><circle class="cls-2" cx="459.9" cy="180" r="5.5"/><circle class="cls-2" cx="80.6" cy="264.1" r="5.5"/><circle class="cls-2" cx="484.5" cy="172.4" r="5.5"/><circle class="cls-2" cx="32.9" cy="88.3" r="5.5"/><circle class="cls-2" cx="188.2" cy="94.8" r="5.5"/><circle class="cls-2" cx="874.7" cy="77.1" r="5.5"/><circle class="cls-2" cx="1006" cy="130.8" r="5.5"/><circle class="cls-2" cx="246.6" cy="190.9" r="5.5"/><circle class="cls-2" cx="715" cy="198.8" r="5.5"/><circle class="cls-2" cx="719" cy="109.7" r="5.5"/><circle class="cls-2" cx="440.6" cy="34.2" r="5.5"/><circle class="cls-2" cx="308.6" cy="53.9" r="5.5"/><circle class="cls-2" cx="820.4" cy="32.4" r="5.5"/><circle class="cls-2" cx="354.6" cy="220.9" r="5.5"/><circle class="cls-2" cx="933.2" cy="224.8" r="5.5"/><circle class="cls-2" cx="353.9" cy="173.8" r="5.5"/><circle class="cls-2" cx="786.5" cy="116" r="5.5"/><circle class="cls-2" cx="1005.3" cy="106.1" r="5.5"/><circle class="cls-2" cx="921.2" cy="144.1" r="5.5"/><circle class="cls-2" cx="671.7" cy="146.8" r="5.5"/><circle class="cls-2" cx="287.8" cy="217.3" r="5.5"/><circle class="cls-2" cx="598.8" cy="32.4" r="5.5"/><circle class="cls-2" cx="828.4" cy="197.5" r="5.5"/><circle class="cls-2" cx="449.3" cy="76" r="5.5"/><circle class="cls-2" cx="507" cy="10.4" r="5.5"/><circle class="cls-2" cx="339.9" cy="99.9" r="5.5"/><circle class="cls-2" cx="128.3" cy="97.5" r="5.5"/><circle class="cls-2" cx="112.7" cy="220.1" r="5.5"/><circle class="cls-2" cx="783.7" cy="171.6" r="5.5"/><circle class="cls-2" cx="792.9" cy="65.5" r="5.5"/><circle class="cls-2" cx="346.2" cy="34.8" r="5.5"/><circle class="cls-2" cx="912.6" cy="185.6" r="5.5"/><circle class="cls-2" cx="741.1" cy="244.1" r="5.5"/><circle class="cls-2" cx="59.2" cy="161" r="5.5"/><circle class="cls-2" cx="886.9" cy="12.3" r="5.5"/><circle class="cls-2" cx="844.3" cy="29.2" r="5.5"/><circle class="cls-2" cx="741.7" cy="201" r="5.5"/><circle class="cls-2" cx="912.5" cy="123.9" r="5.5"/><circle class="cls-2" cx="550.5" cy="80.6" r="5.5"/><circle class="cls-2" cx="423.6" cy="108.8" r="5.5"/><circle class="cls-2" cx="762.1" cy="31.9" r="5.5"/><circle class="cls-2" cx="99.3" cy="203.7" r="5.5"/><circle class="cls-2" cx="239" cy="164" r="5.5"/><circle class="cls-2" cx="33" cy="68" r="5.5"/><circle class="cls-2" cx="147.6" cy="243.3" r="5.5"/><circle class="cls-2" cx="364.3" cy="80.5" r="5.5"/><circle class="cls-2" cx="1004.8" cy="60.6" r="5.5"/><circle class="cls-2" cx="967.4" cy="102.8" r="5.5"/><circle class="cls-2" cx="766.1" cy="99.8" r="5.5"/><circle class="cls-2" cx="938.3" cy="245.4" r="5.5"/><circle class="cls-2" cx="548.2" cy="31.6" r="5.5"/><circle class="cls-2" cx="399.7" cy="54.7" r="5.5"/><circle class="cls-2" cx="540.7" cy="172.7" r="5.5"/><circle class="cls-2" cx="947.9" cy="94.4" r="5.5"/><circle class="cls-2" cx="177.6" cy="113.5" r="5.5"/><circle class="cls-2" cx="649.5" cy="38.4" r="5.5"/><circle class="cls-2" cx="393" cy="141.8" r="5.5"/><circle class="cls-2" cx="156.4" cy="126.6" r="5.5"/><circle class="cls-2" cx="222.4" cy="31.7" r="5.5"/><circle class="cls-2" cx="294.8" cy="78.2" r="5.5"/><circle class="cls-2" cx="295" cy="104.8" r="5.5"/><circle class="cls-2" cx="241.8" cy="142.1" r="5.5"/><circle class="cls-2" cx="552.9" cy="240.4" r="5.5"/><circle class="cls-2" cx="270.2" cy="37.2" r="5.5"/><circle class="cls-2" cx="221.3" cy="241.7" r="5.5"/><circle class="cls-2" cx="484.8" cy="67" r="5.5"/><circle class="cls-2" cx="510.9" cy="79.2" r="5.5"/><circle class="cls-2" cx="810.4" cy="82.3" r="5.5"/><circle class="cls-2" cx="271.5" cy="198.8" r="5.5"/><circle class="cls-2" cx="11" cy="34.3" r="5.5"/><circle class="cls-2" cx="672.5" cy="104.1" r="5.5"/><circle class="cls-2" cx="555.6" cy="147.4" r="5.5"/><circle class="cls-2" cx="896.4" cy="241.9" r="5.5"/><circle class="cls-2" cx="328.3" cy="137.9" r="5.5"/><circle class="cls-2" cx="893.1" cy="87" r="5.5"/><circle class="cls-2" cx="369.1" cy="238.5" r="5.5"/><circle class="cls-2" cx="588.8" cy="161.2" r="5.5"/><circle class="cls-2" cx="122.3" cy="199.8" r="5.5"/><circle class="cls-2" cx="607.9" cy="175.3" r="5.5"/><circle class="cls-2" cx="105.5" cy="262.6" r="5.5"/><circle class="cls-2" cx="54.4" cy="222.4" r="5.5"/><circle class="cls-2" cx="766.6" cy="123.5" r="5.5"/><circle class="cls-2" cx="309.7" cy="214.1" r="5.5"/><circle class="cls-2" cx="625.9" cy="36.3" r="5.5"/><circle class="cls-2" cx="400.8" cy="263.5" r="5.5"/><circle class="cls-2" cx="1005.4" cy="263.9" r="5.5"/><circle class="cls-2" cx="400.2" cy="115.6" r="5.5"/><circle class="cls-2" cx="297.5" cy="32.8" r="5.5"/><circle class="cls-2" cx="767.8" cy="240.5" r="5.5"/><circle class="cls-2" cx="12.5" cy="208.8" r="5.5"/><circle class="cls-2" cx="188.3" cy="201.2" r="5.5"/><circle class="cls-2" cx="592.3" cy="72.9" r="5.5"/><circle class="cls-2" cx="177.4" cy="30.4" r="5.5"/><circle class="cls-2" cx="586.9" cy="115.6" r="5.5"/><circle class="cls-2" cx="42.2" cy="126" r="5.5"/><circle class="cls-2" cx="875" cy="55.2" r="5.5"/><circle class="cls-2" cx="307.6" cy="174.3" r="5.5"/><circle class="cls-2" cx="449" cy="223.5" r="5.5"/><circle class="cls-2" cx="14.4" cy="186.1" r="5.5"/><circle class="cls-2" cx="158" cy="224.7" r="5.5"/><circle class="cls-2" cx="607.8" cy="127.4" r="5.5"/><circle class="cls-2" cx="507" cy="56.3" r="5.5"/><circle class="cls-2" cx="849.7" cy="159.9" r="5.5"/><circle class="cls-2" cx="115.7" cy="55.1" r="5.5"/><circle class="cls-2" cx="674.2" cy="36.4" r="5.5"/><circle class="cls-2" cx="875.5" cy="245.2" r="5.5"/><circle class="cls-2" cx="823.4" cy="148.7" r="5.5"/><circle class="cls-2" cx="690.8" cy="242.1" r="5.5"/><circle class="cls-2" cx="363.4" cy="12.7" r="5.5"/><circle class="cls-2" cx="931.5" cy="108.9" r="5.5"/><circle class="cls-2" cx="437.4" cy="242.9" r="5.5"/><circle class="cls-2" cx="468.4" cy="218.4" r="5.5"/><circle class="cls-2" cx="82.1" cy="191.6" r="5.5"/><circle class="cls-2" cx="631.2" cy="116.9" r="5.5"/><circle class="cls-2" cx="146.5" cy="13.7" r="5.5"/><circle class="cls-2" cx="851.7" cy="245.3" r="5.5"/><circle class="cls-2" cx="373.8" cy="209.1" r="5.5"/><circle class="cls-2" cx="200.6" cy="35.3" r="5.5"/><circle class="cls-2" cx="581.8" cy="139.9" r="5.5"/><circle class="cls-2" cx="647.8" cy="262.2" r="5.5"/><circle class="cls-2" cx="621.6" cy="219.4" r="5.5"/><circle class="cls-2" cx="161.7" cy="62.9" r="5.5"/><circle class="cls-2" cx="650.8" cy="106.1" r="5.5"/><circle class="cls-2" cx="154" cy="148.7" r="5.5"/><circle class="cls-2" cx="208" cy="83.5" r="5.5"/><circle class="cls-2" cx="211" cy="262.8" r="5.5"/><circle class="cls-2" cx="790.6" cy="221.6" r="5.5"/><circle class="cls-2" cx="123.9" cy="242.1" r="5.5"/><circle class="cls-2" cx="79.5" cy="11.2" r="5.5"/><circle class="cls-2" cx="941.7" cy="200.2" r="5.5"/><circle class="cls-2" cx="953" cy="216.5" r="5.5"/><circle class="cls-2" cx="823.7" cy="122.7" r="5.5"/><circle class="cls-2" cx="894.7" cy="168.3" r="5.5"/><circle class="cls-2" cx="41.9" cy="145.3" r="5.5"/><circle class="cls-2" cx="390.1" cy="223.5" r="5.5"/><circle class="cls-2" cx="783.4" cy="14.7" r="5.5"/><circle class="cls-2" cx="644.6" cy="231.8" r="5.5"/><circle class="cls-2" cx="918.5" cy="165.4" r="5.5"/><circle class="cls-2" cx="962.5" cy="192.5" r="5.5"/><circle class="cls-2" cx="389.5" cy="75.5" r="5.5"/><circle class="cls-2" cx="551.4" cy="54.7" r="5.5"/><circle class="cls-2" cx="901" cy="147.9" r="5.5"/><circle class="cls-2" cx="185.9" cy="72.2" r="5.5"/><circle class="cls-2" cx="940.1" cy="156.9" r="5.5"/><circle class="cls-2" cx="896.4" cy="60.1" r="5.5"/><circle class="cls-2" cx="417.2" cy="38.1" r="5.5"/><circle class="cls-2" cx="898.6" cy="205.4" r="5.5"/><circle class="cls-2" cx="518.4" cy="262.8" r="5.5"/><circle class="cls-2" cx="913.3" cy="99" r="5.5"/><circle class="cls-2" cx="755.7" cy="57.4" r="5.5"/><circle class="cls-2" cx="274.1" cy="88.2" r="5.5"/><circle class="cls-2" cx="305.4" cy="128.2" r="5.5"/><circle class="cls-2" cx="532.4" cy="220.5" r="5.5"/><circle class="cls-2" cx="987.1" cy="115.2" r="5.5"/><circle class="cls-2" cx="37.9" cy="201.6" r="5.5"/><circle class="cls-2" cx="67" cy="118" r="5.5"/><circle class="cls-2" cx="286.7" cy="242.3" r="5.5"/><circle class="cls-2" cx="315.8" cy="94.4" r="5.5"/><circle class="cls-2" cx="492.9" cy="87.4" r="5.5"/><circle class="cls-2" cx="31.4" cy="162.6" r="5.5"/><circle class="cls-2" cx="223.7" cy="124" r="5.5"/><circle class="cls-2" cx="933.4" cy="12.5" r="5.5"/><circle class="cls-2" cx="189.9" cy="176.8" r="5.5"/><circle class="cls-2" cx="149.8" cy="263.6" r="5.5"/><circle class="cls-2" cx="484.5" cy="240.3" r="5.5"/><circle class="cls-2" cx="496.9" cy="192.7" r="5.5"/><circle class="cls-2" cx="414.3" cy="155.4" r="5.5"/><circle class="cls-2" cx="686.6" cy="12.9" r="5.5"/><circle class="cls-2" cx="279.6" cy="264.1" r="5.5"/><circle class="cls-2" cx="424" cy="262.8" r="5.5"/><circle class="cls-2" cx="448.4" cy="263.2" r="5.5"/><circle class="cls-2" cx="134" cy="159.3" r="5.5"/><circle class="cls-2" cx="11.7" cy="55.9" r="5.5"/><circle class="cls-2" cx="762.8" cy="162.6" r="5.5"/><circle class="cls-2" cx="720.6" cy="32.5" r="5.5"/><circle class="cls-2" cx="543.7" cy="263.2" r="5.5"/><circle class="cls-2" cx="167.5" cy="86.4" r="5.5"/><circle class="cls-2" cx="265.7" cy="245.9" r="5.5"/><circle class="cls-2" cx="682.2" cy="218.8" r="5.5"/><circle class="cls-2" cx="990" cy="219.8" r="5.5"/><circle class="cls-2" cx="868.9" cy="30.3" r="5.5"/><circle class="cls-2" cx="632" cy="140.1" r="5.5"/><circle class="cls-2" cx="778" cy="47.2" r="5.5"/><circle class="cls-2" cx="571.8" cy="229.6" r="5.5"/><circle class="cls-2" cx="11.5" cy="98.7" r="5.5"/><circle class="cls-2" cx="169" cy="185.9" r="5.5"/><circle class="cls-2" cx="555" cy="214.7" r="5.5"/><circle class="cls-2" cx="181.2" cy="50.8" r="5.5"/><circle class="cls-2" cx="540.7" cy="197.2" r="5.5"/><circle class="cls-2" cx="911.6" cy="75.9" r="5.5"/><circle class="cls-2" cx="87.3" cy="145.6" r="5.5"/><circle class="cls-2" cx="393.1" cy="169" r="5.5"/><circle class="cls-2" cx="786.6" cy="195.7" r="5.5"/><circle class="cls-2" cx="39.7" cy="180.3" r="5.5"/><circle class="cls-2" cx="12.7" cy="121.6" r="5.5"/><circle class="cls-2" cx="462.9" cy="57" r="5.5"/><circle class="cls-2" cx="566.2" cy="166" r="5.5"/><circle class="cls-2" cx="245.4" cy="239.8" r="5.5"/><circle class="cls-2" cx="297.5" cy="11.8" r="5.5"/><circle class="cls-2" cx="656" cy="128.8" r="5.5"/><circle class="cls-2" cx="56.7" cy="11.8" r="5.5"/><circle class="cls-2" cx="250" cy="55.1" r="5.5"/><circle class="cls-2" cx="463.7" cy="33.6" r="5.5"/><circle class="cls-2" cx="212.8" cy="12" r="5.5"/><circle class="cls-2" cx="707.9" cy="80.5" r="5.5"/><circle class="cls-2" cx="629" cy="164.8" r="5.5"/><circle class="cls-2" cx="968.7" cy="31.6" r="5.5"/><circle class="cls-2" cx="50.2" cy="34.6" r="5.5"/><circle class="cls-2" cx="661.7" cy="218.1" r="5.5"/><circle class="cls-2" cx="848.8" cy="183.9" r="5.5"/><circle class="cls-2" cx="354.8" cy="57.6" r="5.5"/><circle class="cls-2" cx="150.8" cy="174.1" r="5.5"/><circle class="cls-2" cx="530.2" cy="242.9" r="5.5"/><circle class="cls-2" cx="450.4" cy="12.4" r="5.5"/><circle class="cls-2" cx="35" cy="264.3" r="5.5"/><circle class="cls-2" cx="711.2" cy="12" r="5.5"/><circle class="cls-2" cx="964.3" cy="261.6" r="5.5"/><circle class="cls-2" cx="436.8" cy="173.4" r="5.5"/><circle class="cls-2" cx="829.7" cy="99.5" r="5.5"/><circle class="cls-2" cx="771.8" cy="73.6" r="5.5"/><circle class="cls-2" cx="831.3" cy="75.4" r="5.5"/><circle class="cls-2" cx="620.1" cy="264.2" r="5.5"/><circle class="cls-2" cx="952.1" cy="118.3" r="5.5"/><circle class="cls-2" cx="489" cy="19.2" r="5.5"/><circle class="cls-2" cx="666.1" cy="195.2" r="5.5"/><circle class="cls-2" cx="618.3" cy="13.4" r="5.5"/><circle class="cls-2" cx="663.3" cy="13.6" r="5.5"/><circle class="cls-2" cx="888" cy="132.5" r="5.5"/><circle class="cls-2" cx="807.5" cy="12.2" r="5.5"/><circle class="cls-2" cx="490" cy="217" r="5.5"/><circle class="cls-2" cx="834" cy="52.2" r="5.5"/><circle class="cls-2" cx="472.5" cy="11.2" r="5.5"/><circle class="cls-2" cx="910.3" cy="224" r="5.5"/><circle class="cls-2" cx="251.7" cy="98.2" r="5.5"/><circle class="cls-2" cx="68.2" cy="240.4" r="5.5"/><circle class="cls-2" cx="345.6" cy="242.3" r="5.5"/><circle class="cls-2" cx="989.3" cy="26.7" r="5.5"/><circle class="cls-2" cx="340.4" cy="78" r="5.5"/><circle class="cls-2" cx="959.4" cy="170.1" r="5.5"/><circle class="cls-2" cx="1005.4" cy="201.8" r="5.5"/><circle class="cls-2" cx="788" cy="90.7" r="5.5"/><circle class="cls-2" cx="78.6" cy="95.9" r="5.5"/><circle class="cls-2" cx="58.1" cy="263.2" r="5.5"/><circle class="cls-2" cx="176.5" cy="137.7" r="5.5"/><circle class="cls-2" cx="503.1" cy="152.6" r="5.5"/><circle class="cls-2" cx="979.6" cy="156.3" r="5.5"/><circle class="cls-2" cx="739.7" cy="41" r="5.5"/><circle class="cls-2" cx="808.1" cy="239.2" r="5.5"/><circle class="cls-2" cx="438" cy="148.8" r="5.5"/><circle class="cls-2" cx="596.3" cy="11.3" r="5.5"/><circle class="cls-2" cx="218.3" cy="146.8" r="5.5"/><circle class="cls-2" cx="31.2" cy="109.4" r="5.5"/><circle class="cls-2" cx="1006.7" cy="224.5" r="5.5"/><circle class="cls-2" cx="383" cy="97.4" r="5.5"/><circle class="cls-2" cx="860.4" cy="10.9" r="5.5"/><circle class="cls-2" cx="391.8" cy="34.2" r="5.5"/><circle class="cls-2" cx="964.4" cy="54.4" r="5.5"/><circle class="cls-2" cx="136.8" cy="117.8" r="5.5"/><circle class="cls-2" cx="564" cy="122.7" r="5.5"/><circle class="cls-2" cx="549.3" cy="105.7" r="5.5"/><circle class="cls-2" cx="156.6" cy="38.5" r="5.5"/><circle class="cls-2" cx="648.1" cy="180.1" r="5.5"/><circle class="cls-2" cx="11.6" cy="261.9" r="5.5"/><circle class="cls-2" cx="529.2" cy="91.6" r="5.5"/><circle class="cls-2" cx="31" cy="223.1" r="5.5"/><circle class="cls-2" cx="922" cy="204.4" r="5.5"/><circle class="cls-2" cx="780.4" cy="144.6" r="5.5"/><circle class="cls-2" cx="341.4" cy="12.6" r="5.5"/><circle class="cls-2" cx="828.3" cy="244.6" r="5.5"/><circle class="cls-2" cx="328.3" cy="263.7" r="5.5"/><circle class="cls-2" cx="205.4" cy="58.8" r="5.5"/><circle class="cls-2" cx="1004" cy="11.8" r="5.5"/><circle class="cls-2" cx="296.1" cy="194.5" r="5.5"/><circle class="cls-2" cx="839.5" cy="223.7" r="5.5"/><circle class="cls-2" cx="53.4" cy="102.7" r="5.5"/><circle class="cls-2" cx="474.4" cy="196.5" r="5.5"/><circle class="cls-2" cx="853.6" cy="68.5" r="5.5"/><circle class="cls-2" cx="608.6" cy="149.5" r="5.5"/><circle class="cls-2" cx="512.6" cy="172.4" r="5.5"/><circle class="cls-2" cx="699.8" cy="175" r="5.5"/><circle class="cls-2" cx="207.6" cy="218.6" r="5.5"/><circle class="cls-2" cx="26.1" cy="245.2" r="5.5"/><circle class="cls-2" cx="206" cy="108.1" r="5.5"/><circle class="cls-2" cx="850.5" cy="205.1" r="5.5"/><circle class="cls-2" cx="988.2" cy="138.9" r="5.5"/><circle class="cls-2" cx="154" cy="103.2" r="5.5"/><circle class="cls-2" cx="802.5" cy="133.3" r="5.5"/><circle class="cls-2" cx="495.7" cy="262.2" r="5.5"/><circle class="cls-2" cx="970.3" cy="128" r="5.5"/><circle class="cls-2" cx="615" cy="78" r="5.5"/><circle class="cls-2" cx="361" cy="104.7" r="5.5"/><circle class="cls-2" cx="789.4" cy="244.9" r="5.5"/><circle class="cls-2" cx="373.3" cy="160.4" r="5.5"/><circle class="cls-2" cx="250.6" cy="212.8" r="5.5"/><circle class="cls-2" cx="107.3" cy="137" r="5.5"/><circle class="cls-2" cx="489" cy="128" r="5.5"/><circle class="cls-2" cx="984.3" cy="91.5" r="5.5"/><circle class="cls-2" cx="227" cy="181.1" r="5.5"/><circle class="cls-2" cx="333.3" cy="181.2" r="5.5"/><circle class="cls-2" cx="72.4" cy="49.6" r="5.5"/><circle class="cls-2" cx="318" cy="73.4" r="5.5"/><circle class="cls-2" cx="528.8" cy="43.2" r="5.5"/><circle class="cls-2" cx="446.9" cy="100.5" r="5.5"/><circle class="cls-2" cx="260.9" cy="177" r="5.5"/><circle class="cls-2" cx="406.5" cy="90.9" r="5.5"/><circle class="cls-2" cx="585.3" cy="244.4" r="5.5"/></g></g></svg>