<svg xmlns="http://www.w3.org/2000/svg" viewBox="0 0 779 155"><defs><style>.cls-1,.cls-2{fill:none;}.cls-2{stroke:#e2d4b3;stroke-miterlimit:10;stroke-width:9.8px;}.cls-3{fill:#e2d4b3;}</style></defs><title>资源 2</title><g id="图层_2" data-name="图层 2"><g id="图层_1-2" data-name="图层 1"><rect class="cls-1" width="779" height="155"/><path class="cls-2" d="M394.6,93s-7.9-26.1,21.7-32.1"/><circle class="cls-3" cx="417.3" cy="83.1" r="5.2" transform="translate(-7.1 113.6) rotate(-15.4)"/><path class="cls-2" d="M671.4,129.9s-18.6,20-38.6-2.5"/><circle class="cls-3" cx="651.4" cy="115.3" r="5.3" transform="translate(113.7 500.7) rotate(-45.7)"/><path class="cls-2" d="M744.6,94s-23.7-13.6-6.3-38.2"/><circle class="cls-3" cx="754.4" cy="71.2" r="5.2" transform="translate(301.5 678.7) rotate(-58.7)"/><path class="cls-2" d="M772.7,130.2s-20.4,18.2-38.2-6.2"/><circle class="cls-3" cx="754.2" cy="113.8" r="5.2" transform="translate(105.1 514.3) rotate(-40.3)"/><path class="cls-2" d="M105,108.1s23.2,14.3,5,38.4"/><circle class="cls-3" cx="94.6" cy="130.5" r="5.3" transform="translate(-66.4 138.4) rotate(-56.9)"/><path class="cls-2" d="M325.8,64.5s25.9-8.8,32.8,20.6"/><circle class="cls-3" cx="336.4" cy="86.8" r="5.2" transform="translate(-10.6 104.1) rotate(-17.3)"/><path class="cls-2" d="M61.2,16.8s27.2-1.9,26.4,28.3"/><circle class="cls-3" cx="65.7" cy="41.1" r="5.3" transform="translate(-1.7 2.8) rotate(-2.4)"/><path class="cls-2" d="M33,96.7S8.4,84.8,24.1,59"/><circle class="cls-3" cx="41.1" cy="73.3" r="5.3" transform="translate(-42.9 76.2) rotate(-62.7)"/><path class="cls-2" d="M599,76.8s-17.6,20.9-38.7-.7"/><circle class="cls-3" cx="578.3" cy="63.1" r="5.3" transform="translate(146.9 453.3) rotate(-48.4)"/><path class="cls-2" d="M729.4,17.9s25-11,34.4,17.7"/><circle class="cls-3" cx="741.9" cy="39.2" r="5.2" transform="translate(40.1 283) rotate(-22.2)"/><path class="cls-2" d="M102.2,91.6S74.9,93.4,75.7,63.3"/><circle class="cls-3" cx="97.6" cy="67.2" r="5.3" transform="translate(-2.8 4.2) rotate(-2.4)"/><path class="cls-2" d="M313.7,9.2s22.7,15.2,3.6,38.6"/><circle class="cls-3" cx="302.4" cy="31.2" r="5.2" transform="translate(102.5 260.3) rotate(-54.8)"/><path class="cls-2" d="M701.7,9.3s10.4,25.3-18.5,34"/><circle class="cls-3" cx="680.1" cy="21.3" r="5.3" transform="translate(36.9 243.2) rotate(-20.8)"/><path class="cls-2" d="M298.4,84.5s-23.8,13.3-36-14.3"/><circle class="cls-3" cx="283.9" cy="64.4" r="5.2" transform="translate(2.7 139.6) rotate(-27.7)"/><path class="cls-2" d="M450.1,62.7s26.8-5.5,29.9,24.5"/><circle class="cls-3" cx="457.8" cy="86.2" r="5.3" transform="translate(-8 81.3) rotate(-10.1)"/><path class="cls-2" d="M637.1,9.2s16.8,21.5-8.6,37.8"/><circle class="cls-3" cx="619.5" cy="26.6" r="5.3" transform="translate(106.1 374.3) rotate(-36.6)"/><path class="cls-2" d="M149.9,38.3S125.3,50,115,21.6"/><circle class="cls-3" cx="136.8" cy="17.3" r="5.3" transform="translate(4.7 56.9) rotate(-23.9)"/><path class="cls-2" d="M693.1,90.6s-27-4.3-19.4-33.5"/><circle class="cls-3" cx="694.2" cy="65.9" r="5.3" transform="translate(501.5 736) rotate(-79.4)"/><path class="cls-2" d="M459.4,113.8s-2.9,27.2-32.5,21.1"/><circle class="cls-3" cx="434.7" cy="114" r="5.3" transform="translate(264.3 529.8) rotate(-82.4)"/><path class="cls-2" d="M521,28.8s-17.3,21.1-38.7-.1"/><circle class="cls-3" cx="500.2" cy="15.5" r="5.3" transform="translate(162 384.4) rotate(-49.3)"/><path class="cls-2" d="M353.4,123s-12.7,24.2-37.9,7.7"/><circle class="cls-3" cx="330.3" cy="114.1" r="5.3" transform="translate(69.8 347) rotate(-60.9)"/><path class="cls-2" d="M724.2,133.5s-24,13-35.8-14.7"/><circle class="cls-3" cx="710" cy="113.3" r="5.2" transform="translate(26.1 335.1) rotate(-27)"/><path class="cls-2" d="M448.1,9s11.4,24.8-17,34.8"/><circle class="cls-3" cx="426.9" cy="21.9" r="5.3" transform="translate(26.2 170.8) rotate(-23.3)"/><path class="cls-2" d="M157.4,143.6s-10.3-25.3,18.7-33.9"/><circle class="cls-3" cx="179.1" cy="131.7" r="5.3" transform="translate(-34.9 71.4) rotate(-20.6)"/><path class="cls-2" d="M377.8,141.1s-3.3-27.1,26.9-27.8"/><circle class="cls-3" cx="401.9" cy="135.3" r="5.3" transform="translate(-10.9 38.3) rotate(-5.4)"/><path class="cls-2" d="M148.7,59s22.7,15.2,3.5,38.6"/><circle class="cls-3" cx="137.4" cy="81" r="5.3" transform="matrix(0.58, -0.82, 0.82, 0.58, -8.22, 146.17)"/><path class="cls-2" d="M273.2,144.8s-13.6-23.7,13.9-36.2"/><circle class="cls-3" cx="293" cy="130.1" r="5.2" transform="translate(-26.6 155.1) rotate(-28.4)"/><path class="cls-2" d="M395.7,37s-24.3,12.4-35.4-15.6"/><circle class="cls-3" cx="382" cy="16.4" r="5.2" transform="translate(30.5 166.8) rotate(-25.6)"/><path class="cls-2" d="M586.4,33.7S564,49.3,549.1,23"/><circle class="cls-3" cx="570" cy="15.1" r="5.2" transform="translate(85.8 316.2) rotate(-33.4)"/><path class="cls-2" d="M171.6,32.3s11.8-24.6,37.6-9.1"/><circle class="cls-3" cx="195" cy="40.3" r="5.3" transform="translate(70.4 195.6) rotate(-62.9)"/><path class="cls-2" d="M523.2,54.9s24.2,12.7,7.7,38"/><circle class="cls-3" cx="514.4" cy="78" r="5.3" transform="translate(195.7 489.3) rotate(-60.9)"/><path class="cls-2" d="M24.5,10.7S48.9,22.8,33,48.5"/><circle class="cls-3" cx="16.1" cy="34" r="5.3" transform="translate(-21.5 32.4) rotate(-62.2)"/><path class="cls-2" d="M529.5,116s23.5-13.9,36.3,13.5"/><circle class="cls-3" cx="544.5" cy="135.7" r="5.2" transform="translate(2.7 281.7) rotate(-29.1)"/><path class="cls-2" d="M214.9,143.6s-8.9-25.8,20.5-32.9"/><circle class="cls-3" cx="237.3" cy="132.9" r="5.2" transform="translate(-29 77.6) rotate(-17.5)"/><path class="cls-2" d="M617.1,127.2s-16.3,21.9-38.7,1.7"/><circle class="cls-3" cx="595.7" cy="114.9" r="5.3" transform="translate(138 513.1) rotate(-51.9)"/><path class="cls-2" d="M268.8,29.1s-15.5,22.5-38.6,3"/><circle class="cls-3" cx="247" cy="17.4" r="5.3" transform="translate(87.1 206.5) rotate(-53.8)"/><path class="cls-2" d="M198.1,64.7s27-3.8,28.3,26.4"/><circle class="cls-3" cx="204.3" cy="88.7" r="5.3" transform="translate(-8.7 23.5) rotate(-6.4)"/><path class="cls-2" d="M618.5,95.6s-2.2-27.2,27.9-26.8"/><circle class="cls-3" cx="642.7" cy="90.7" r="5.3" transform="translate(-4.1 36) rotate(-3.2)"/><path class="cls-2" d="M489.3,142.9s-11.6-24.7,16.9-34.9"/><circle class="cls-3" cx="510.3" cy="129.9" r="5.2" transform="translate(-9.4 214.8) rotate(-23.6)"/><path class="cls-2" d="M38.8,145.7s-23.2-14.3-5-38.4"/><circle class="cls-3" cx="49.2" cy="123.3" r="5.2" transform="translate(-80.9 97.1) rotate(-56.8)"/></g></g></svg>