<svg xmlns="http://www.w3.org/2000/svg" viewBox="0 0 289 147.22"><defs><style>.cls-1{fill:#c62c09;}.cls-2{fill:#faebc3;}.cls-3{fill:#cc3a0b;}</style></defs><title>资源 16</title><g id="图层_2" data-name="图层 2"><g id="图层_1-2" data-name="图层 1"><path class="cls-1" d="M195.63,99c-60.8,9.4-125.17-12.65-183.47,7C8,107.45,4,109.05,0,110.82V147H133.26c27.86-12.79,58-20.81,86-33.51,16.41-7.44,32.1-16.5,48.91-23,6.91-2.67,14-4.91,20.84-7.78V65.53C259,79.91,228.44,94,195.63,99Z"/><circle class="cls-2" cx="49.86" cy="112.23" r="1.5"/><circle class="cls-2" cx="192.77" cy="102.67" r="1.5"/><circle class="cls-2" cx="132.71" cy="118.88" r="1.5"/><circle class="cls-2" cx="12.79" cy="144.15" r="1.5"/><circle class="cls-2" cx="270.1" cy="77.71" r="1.5"/><circle class="cls-2" cx="199.44" cy="102.25" r="1.5"/><circle class="cls-2" cx="93.36" cy="106.36" r="1.5"/><circle class="cls-2" cx="104.87" cy="120.35" r="1.5"/><circle class="cls-2" cx="105.75" cy="142.84" r="1.5"/><circle class="cls-2" cx="127.34" cy="138.1" r="1.5"/><circle class="cls-2" cx="2.44" cy="114.56" r="1.5"/><circle class="cls-2" cx="130.33" cy="125.73" r="1.5"/><circle class="cls-2" cx="113.09" cy="144.12" r="1.5"/><circle class="cls-2" cx="3.87" cy="133.3" r="1.5"/><circle class="cls-2" cx="135.23" cy="112.16" r="1.5"/><circle class="cls-2" cx="13.3" cy="114.2" r="1.5"/><circle class="cls-2" cx="47.89" cy="143.54" r="1.5"/><circle class="cls-2" cx="27.06" cy="131.31" r="1.5"/><circle class="cls-2" cx="14.38" cy="126" r="1.5"/><circle class="cls-2" cx="53.25" cy="105.98" r="1.5"/><circle class="cls-2" cx="94.59" cy="120.03" r="1.5"/><circle class="cls-2" cx="3.96" cy="144.78" r="1.5"/><circle class="cls-2" cx="81.86" cy="104.3" r="1.5"/><circle class="cls-2" cx="170.72" cy="126.61" r="1.5"/><circle class="cls-2" cx="145.68" cy="132.86" r="1.5"/><circle class="cls-2" cx="214.53" cy="98.27" r="1.5"/><circle class="cls-2" cx="81.77" cy="143.95" r="1.5"/><circle class="cls-2" cx="125.77" cy="103.58" r="1.5"/><circle class="cls-2" cx="26.17" cy="124.38" r="1.5"/><circle class="cls-2" cx="137" cy="141.01" r="1.5"/><circle class="cls-2" cx="122.19" cy="130.23" r="1.5"/><circle class="cls-2" cx="182.17" cy="111.61" r="1.5"/><circle class="cls-2" cx="250.68" cy="85.96" r="1.5"/><circle class="cls-2" cx="47.92" cy="118.63" r="1.5"/><circle class="cls-2" cx="32.46" cy="135.71" r="1.5"/><circle class="cls-2" cx="283.47" cy="81.04" r="1.5"/><circle class="cls-2" cx="71.5" cy="134.2" r="1.5"/><circle class="cls-2" cx="99.61" cy="109.54" r="1.5"/><circle class="cls-2" cx="189.12" cy="107.42" r="1.5"/><circle class="cls-2" cx="127.27" cy="109.58" r="1.5"/><circle class="cls-2" cx="177.58" cy="126.13" r="1.5"/><circle class="cls-2" cx="94.92" cy="144.17" r="1.5"/><circle class="cls-2" cx="7.39" cy="126.63" r="1.5"/><circle class="cls-2" cx="114.4" cy="124.54" r="1.5"/><circle class="cls-2" cx="55.61" cy="113.6" r="1.5"/><circle class="cls-2" cx="147.2" cy="119.76" r="1.5"/><circle class="cls-2" cx="111.85" cy="119.43" r="1.5"/><circle class="cls-2" cx="281.23" cy="72.87" r="1.5"/><circle class="cls-2" cx="121.96" cy="123.28" r="1.5"/><circle class="cls-2" cx="43.62" cy="112.37" r="1.5"/><circle class="cls-2" cx="37.15" cy="108.51" r="1.5"/><circle class="cls-2" cx="220.63" cy="98.06" r="1.5"/><circle class="cls-2" cx="75.8" cy="100.92" r="1.5"/><circle class="cls-2" cx="109.07" cy="129.93" r="1.5"/><circle class="cls-2" cx="100.06" cy="116.38" r="1.5"/><circle class="cls-2" cx="92.18" cy="131.09" r="1.5"/><circle class="cls-2" cx="99.74" cy="142.32" r="1.5"/><circle class="cls-2" cx="151.09" cy="113.39" r="1.5"/><circle class="cls-2" cx="83.16" cy="125.07" r="1.5"/><circle class="cls-2" cx="105.48" cy="125.62" r="1.5"/><circle class="cls-2" cx="184.04" cy="123.71" r="1.5"/><circle class="cls-2" cx="44.25" cy="129.93" r="1.5"/><circle class="cls-2" cx="223.84" cy="108.87" r="1.5"/><circle class="cls-2" cx="80.19" cy="118.88" r="1.5"/><circle class="cls-2" cx="244.07" cy="89.4" r="1.5"/><circle class="cls-2" cx="18.48" cy="138.41" r="1.5"/><circle class="cls-2" cx="101.21" cy="131.1" r="1.5"/><circle class="cls-2" cx="45.18" cy="104.55" r="1.5"/><circle class="cls-2" cx="3.06" cy="120.73" r="1.5"/><circle class="cls-2" cx="179.28" cy="119.75" r="1.5"/><circle class="cls-2" cx="68.29" cy="124.46" r="1.5"/><circle class="cls-2" cx="83.26" cy="137.85" r="1.5"/><circle class="cls-2" cx="37.84" cy="129.6" r="1.5"/><circle class="cls-2" cx="154.1" cy="122.2" r="1.5"/><circle class="cls-2" cx="218.55" cy="106.17" r="1.5"/><circle class="cls-2" cx="203.93" cy="107.66" r="1.5"/><circle class="cls-2" cx="135.04" cy="105" r="1.5"/><circle class="cls-2" cx="32.2" cy="113.73" r="1.5"/><circle class="cls-2" cx="88.93" cy="143.57" r="1.5"/><circle class="cls-2" cx="23.11" cy="105.65" r="1.5"/><circle class="cls-2" cx="119" cy="103.34" r="1.5"/><circle class="cls-2" cx="136.59" cy="124.06" r="1.5"/><circle class="cls-2" cx="75.76" cy="128.43" r="1.5"/><circle class="cls-2" cx="215.52" cy="112.42" r="1.5"/><circle class="cls-2" cx="262.15" cy="89.86" r="1.5"/><circle class="cls-2" cx="163.03" cy="110.42" r="1.5"/><circle class="cls-2" cx="19.78" cy="116.32" r="1.5"/><circle class="cls-2" cx="139.2" cy="131.16" r="1.5"/><circle class="cls-2" cx="101.52" cy="102.97" r="1.5"/><circle class="cls-2" cx="175.54" cy="114.11" r="1.5"/><circle class="cls-2" cx="174.85" cy="103.61" r="1.5"/><circle class="cls-2" cx="286.31" cy="73.18" r="1.5"/><circle class="cls-2" cx="38.95" cy="136.44" r="1.5"/><circle class="cls-2" cx="14.24" cy="120.49" r="1.5"/><circle class="cls-2" cx="143.86" cy="105.77" r="1.5"/><circle class="cls-2" cx="26.51" cy="139.02" r="1.5"/><circle class="cls-2" cx="273.1" cy="82.28" r="1.5"/><circle class="cls-2" cx="159.26" cy="126.76" r="1.5"/><circle class="cls-2" cx="130.71" cy="143.77" r="1.5"/><circle class="cls-2" cx="76.14" cy="113.39" r="1.5"/><circle class="cls-2" cx="33.78" cy="121.36" r="1.5"/><circle class="cls-2" cx="20.67" cy="122.82" r="1.5"/><circle class="cls-2" cx="119.67" cy="110.6" r="1.5"/><circle class="cls-2" cx="151.39" cy="105.53" r="1.5"/><circle class="cls-2" cx="189.57" cy="121.28" r="1.5"/><circle class="cls-2" cx="112.64" cy="102.33" r="1.5"/><circle class="cls-2" cx="49.6" cy="124.8" r="1.5"/><circle class="cls-2" cx="276.42" cy="84.98" r="1.5"/><circle class="cls-2" cx="88.14" cy="100.87" r="1.5"/><circle class="cls-2" cx="74.87" cy="106.75" r="1.5"/><circle class="cls-2" cx="183.64" cy="104" r="1.5"/><circle class="cls-2" cx="98.47" cy="125.18" r="1.5"/><circle class="cls-2" cx="248.83" cy="92.65" r="1.5"/><circle class="cls-2" cx="93.81" cy="113.6" r="1.5"/><circle class="cls-2" cx="38.74" cy="102.67" r="1.5"/><circle class="cls-2" cx="105.07" cy="135.98" r="1.5"/><circle class="cls-2" cx="177.41" cy="107.95" r="1.5"/><circle class="cls-2" cx="150.8" cy="136.3" r="1.5"/><circle class="cls-2" cx="67.47" cy="144.1" r="1.5"/><circle class="cls-2" cx="63.78" cy="100.53" r="1.5"/><circle class="cls-2" cx="6.9" cy="112.26" r="1.5"/><circle class="cls-2" cx="111.82" cy="138.03" r="1.5"/><circle class="cls-2" cx="62.18" cy="122.58" r="1.5"/><circle class="cls-2" cx="157.8" cy="115.2" r="1.5"/><circle class="cls-2" cx="162.81" cy="121.62" r="1.5"/><circle class="cls-2" cx="267.85" cy="85.78" r="1.5"/><circle class="cls-2" cx="27.78" cy="109.29" r="1.5"/><circle class="cls-2" cx="106.19" cy="114.38" r="1.5"/><circle class="cls-2" cx="57.06" cy="127.42" r="1.5"/><circle class="cls-2" cx="224.46" cy="103.49" r="1.5"/><circle class="cls-2" cx="166.14" cy="104.6" r="1.5"/><circle class="cls-2" cx="235.39" cy="100.22" r="1.5"/><circle class="cls-2" cx="134.65" cy="135.27" r="1.5"/><circle class="cls-2" cx="81.56" cy="99.95" r="1.5"/><circle class="cls-2" cx="142.46" cy="124.35" r="1.5"/><circle class="cls-2" cx="32.16" cy="127.84" r="1.5"/><circle class="cls-2" cx="90.12" cy="137.59" r="1.5"/><circle class="cls-2" cx="22.37" cy="133.62" r="1.5"/><circle class="cls-2" cx="26.28" cy="116.55" r="1.5"/><circle class="cls-2" cx="45.9" cy="136.83" r="1.5"/><circle class="cls-2" cx="164.48" cy="130.51" r="1.5"/><circle class="cls-2" cx="202.11" cy="115.98" r="1.5"/><circle class="cls-2" cx="60.58" cy="109.69" r="1.5"/><circle class="cls-2" cx="67.98" cy="108.01" r="1.5"/><circle class="cls-2" cx="51.14" cy="131.95" r="1.5"/><circle class="cls-2" cx="13.43" cy="108.43" r="1.5"/><circle class="cls-2" cx="127.57" cy="117.1" r="1.5"/><circle class="cls-2" cx="191.93" cy="113.49" r="1.5"/><circle class="cls-2" cx="170.47" cy="109.74" r="1.5"/><circle class="cls-2" cx="39.97" cy="143.22" r="1.5"/><circle class="cls-2" cx="107.17" cy="103.25" r="1.5"/><circle class="cls-2" cx="7.52" cy="140.75" r="1.5"/><circle class="cls-2" cx="38.51" cy="116.13" r="1.5"/><circle class="cls-2" cx="88.01" cy="112.48" r="1.5"/><circle class="cls-2" cx="90.47" cy="125.25" r="1.5"/><circle class="cls-2" cx="53.94" cy="140.26" r="1.5"/><circle class="cls-2" cx="166.23" cy="116.33" r="1.5"/><circle class="cls-2" cx="60.57" cy="139.21" r="1.5"/><circle class="cls-2" cx="81.95" cy="110.49" r="1.5"/><circle class="cls-2" cx="258.54" cy="84.42" r="1.5"/><circle class="cls-2" cx="226.9" cy="96.18" r="1.5"/><circle class="cls-2" cx="17.82" cy="130.67" r="1.5"/><circle class="cls-2" cx="241.31" cy="97.36" r="1.5"/><circle class="cls-2" cx="65.46" cy="130.22" r="1.5"/><circle class="cls-2" cx="197.19" cy="109.57" r="1.5"/><circle class="cls-2" cx="157.91" cy="106.14" r="1.5"/><circle class="cls-2" cx="121.1" cy="140.49" r="1.5"/><circle class="cls-2" cx="12.17" cy="137.33" r="1.5"/><circle class="cls-2" cx="2.62" cy="139.17" r="1.5"/><circle class="cls-2" cx="62.53" cy="116.07" r="1.5"/><circle class="cls-2" cx="76.8" cy="137.75" r="1.5"/><circle class="cls-2" cx="195.79" cy="119.04" r="1.5"/><circle class="cls-2" cx="58.97" cy="133.47" r="1.5"/><circle class="cls-2" cx="87.49" cy="106.62" r="1.5"/><circle class="cls-2" cx="55.58" cy="120.32" r="1.5"/><circle class="cls-2" cx="96.92" cy="136.07" r="1.5"/><circle class="cls-2" cx="255.06" cy="90.94" r="1.5"/><circle class="cls-2" cx="73.9" cy="143.48" r="1.5"/><circle class="cls-2" cx="248.11" cy="96.92" r="1.5"/><circle class="cls-2" cx="143.55" cy="113.16" r="1.5"/><circle class="cls-2" cx="69.88" cy="101.18" r="1.5"/><circle class="cls-2" cx="276.76" cy="77.03" r="1.5"/><circle class="cls-2" cx="19.95" cy="143.85" r="1.5"/><circle class="cls-2" cx="83.43" cy="131.62" r="1.5"/><circle class="cls-2" cx="73.54" cy="120.99" r="1.5"/><circle class="cls-2" cx="143.36" cy="138.83" r="1.5"/><circle class="cls-2" cx="107.98" cy="109.41" r="1.5"/><circle class="cls-2" cx="121.18" cy="116.69" r="1.5"/><circle class="cls-2" cx="129.24" cy="131.85" r="1.5"/><circle class="cls-2" cx="155.91" cy="132.31" r="1.5"/><circle class="cls-2" cx="31.23" cy="104.27" r="1.5"/><circle class="cls-2" cx="238.29" cy="91.04" r="1.5"/><circle class="cls-2" cx="148.95" cy="127.43" r="1.5"/><circle class="cls-2" cx="66.57" cy="138.08" r="1.5"/><circle class="cls-2" cx="114.83" cy="131.46" r="1.5"/><circle class="cls-2" cx="33.17" cy="143.04" r="1.5"/><circle class="cls-2" cx="211.97" cy="102.77" r="1.5"/><circle class="cls-2" cx="171.96" cy="119.4" r="1.5"/><circle class="cls-2" cx="122.5" cy="144.77" r="1.5"/><circle class="cls-2" cx="114.06" cy="114.5" r="1.5"/><circle class="cls-2" cx="52" cy="100.77" r="1.5"/><circle class="cls-2" cx="41.7" cy="122.78" r="1.5"/><circle class="cls-2" cx="26.51" cy="144.47" r="1.5"/><circle class="cls-2" cx="8.38" cy="119.58" r="1.5"/><circle class="cls-2" cx="212.17" cy="108.07" r="1.5"/><circle class="cls-2" cx="118.33" cy="136.55" r="1.5"/><circle class="cls-2" cx="208.32" cy="113.19" r="1.5"/><circle class="cls-2" cx="59.96" cy="144.53" r="1.5"/><circle class="cls-2" cx="2.4" cy="126.78" r="1.5"/><circle class="cls-2" cx="114.25" cy="107.84" r="1.5"/><circle class="cls-2" cx="185.79" cy="116" r="1.5"/><circle class="cls-2" cx="139.26" cy="117.72" r="1.5"/><circle class="cls-2" cx="206.15" cy="100.83" r="1.5"/><circle class="cls-2" cx="230.54" cy="103.71" r="1.5"/><circle class="cls-2" cx="19.75" cy="110.12" r="1.5"/><circle class="cls-2" cx="10.6" cy="131.69" r="1.5"/><circle class="cls-2" cx="69.01" cy="115.27" r="1.5"/><circle class="cls-2" cx="87.19" cy="118.57" r="1.5"/><circle class="cls-2" cx="263.7" cy="80.64" r="1.5"/><circle class="cls-2" cx="232.94" cy="93.64" r="1.5"/><circle class="cls-2" cx="95.31" cy="101.16" r="1.5"/><circle class="cls-2" cx="60.22" cy="103.47" r="1.5"/><path class="cls-1" d="M219.25,113.49c-28,12.7-58.13,20.71-86,33.51H289V82.72c-6.82,2.87-13.92,5.11-20.84,7.78C251.35,97,235.66,106,219.25,113.49Z"/><circle class="cls-2" cx="207.36" cy="144.98" r="1.5"/><circle class="cls-2" cx="279.35" cy="140.55" r="1.5"/><circle class="cls-2" cx="219.43" cy="117.87" r="1.5"/><circle class="cls-2" cx="271.32" cy="140.88" r="1.5"/><circle class="cls-2" cx="246.43" cy="137.7" r="1.5"/><circle class="cls-2" cx="236.39" cy="116.56" r="1.5"/><circle class="cls-2" cx="285.86" cy="128.81" r="1.5"/><circle class="cls-2" cx="254.53" cy="124.72" r="1.5"/><circle class="cls-2" cx="239.72" cy="111.39" r="1.5"/><circle class="cls-2" cx="242.37" cy="121.42" r="1.5"/><circle class="cls-2" cx="278.71" cy="104.14" r="1.5"/><circle class="cls-2" cx="282.6" cy="137.89" r="1.5"/><circle class="cls-2" cx="256.3" cy="116.97" r="1.5"/><circle class="cls-2" cx="267.15" cy="137.79" r="1.5"/><circle class="cls-2" cx="240.12" cy="130.51" r="1.5"/><circle class="cls-2" cx="194.63" cy="130.15" r="1.5"/><circle class="cls-2" cx="275.32" cy="90.24" r="1.5"/><circle class="cls-2" cx="286.3" cy="113.61" r="1.5"/><circle class="cls-2" cx="250.75" cy="100.64" r="1.5"/><circle class="cls-2" cx="228.09" cy="113.9" r="1.5"/><circle class="cls-2" cx="286.05" cy="143.49" r="1.5"/><circle class="cls-2" cx="222.75" cy="143.69" r="1.5"/><circle class="cls-2" cx="239.24" cy="106.6" r="1.5"/><circle class="cls-2" cx="215.78" cy="142.62" r="1.5"/><circle class="cls-2" cx="203.66" cy="132.55" r="1.5"/><circle class="cls-2" cx="202.96" cy="144.43" r="1.5"/><circle class="cls-2" cx="286.77" cy="92.68" r="1.5"/><circle class="cls-2" cx="192.11" cy="139.05" r="1.5"/><circle class="cls-2" cx="176.94" cy="143.89" r="1.5"/><circle class="cls-2" cx="274.31" cy="128.58" r="1.5"/><circle class="cls-2" cx="267.56" cy="109.21" r="1.5"/><circle class="cls-2" cx="256.14" cy="135.9" r="1.5"/><circle class="cls-2" cx="256.74" cy="109.3" r="1.5"/><circle class="cls-2" cx="262.08" cy="139.97" r="1.5"/><circle class="cls-2" cx="166.82" cy="140.71" r="1.5"/><circle class="cls-2" cx="268.48" cy="133.79" r="1.5"/><circle class="cls-2" cx="276.49" cy="117.69" r="1.5"/><circle class="cls-2" cx="206.15" cy="123.51" r="1.5"/><circle class="cls-2" cx="276.28" cy="144.05" r="1.5"/><circle class="cls-2" cx="209.8" cy="133.3" r="1.5"/><circle class="cls-2" cx="284.02" cy="102.95" r="1.5"/><circle class="cls-2" cx="262.01" cy="144.65" r="1.5"/><circle class="cls-2" cx="264.03" cy="133.18" r="1.5"/><circle class="cls-2" cx="245.76" cy="124.25" r="1.5"/><circle class="cls-2" cx="267.45" cy="123.92" r="1.5"/><circle class="cls-2" cx="190.62" cy="134.78" r="1.5"/><circle class="cls-2" cx="255.69" cy="139.79" r="1.5"/><circle class="cls-2" cx="237.19" cy="139.12" r="1.5"/><circle class="cls-2" cx="266.91" cy="141.92" r="1.5"/><circle class="cls-2" cx="186.49" cy="128.97" r="1.5"/><circle class="cls-2" cx="158.41" cy="139.33" r="1.5"/><circle class="cls-2" cx="232.87" cy="119.51" r="1.5"/><circle class="cls-2" cx="223.14" cy="127.77" r="1.5"/><circle class="cls-2" cx="219.04" cy="134.73" r="1.5"/><circle class="cls-2" cx="190.16" cy="130.77" r="1.5"/><circle class="cls-2" cx="200.88" cy="140.98" r="1.5"/><circle class="cls-2" cx="265.7" cy="112.86" r="1.5"/><circle class="cls-2" cx="157.01" cy="144.31" r="1.5"/><circle class="cls-2" cx="201.14" cy="124.19" r="1.5"/><circle class="cls-2" cx="242.18" cy="141.59" r="1.5"/><circle class="cls-2" cx="272.46" cy="99" r="1.5"/><circle class="cls-2" cx="259.1" cy="131.53" r="1.5"/><circle class="cls-2" cx="258.36" cy="126.84" r="1.5"/><circle class="cls-2" cx="275.16" cy="139.12" r="1.5"/><circle class="cls-2" cx="211.36" cy="143.62" r="1.5"/><circle class="cls-2" cx="262.2" cy="95.27" r="1.5"/><circle class="cls-2" cx="161.93" cy="141.5" r="1.5"/><circle class="cls-2" cx="252.79" cy="144.27" r="1.5"/><circle class="cls-2" cx="245.78" cy="109.82" r="1.5"/><circle class="cls-2" cx="275.88" cy="108.83" r="1.5"/><circle class="cls-2" cx="241.35" cy="145.3" r="1.5"/><circle class="cls-2" cx="174.65" cy="133.11" r="1.5"/><circle class="cls-2" cx="286.45" cy="86.56" r="1.5"/><circle class="cls-2" cx="268.84" cy="104.07" r="1.5"/><circle class="cls-2" cx="163.32" cy="145.08" r="1.5"/><circle class="cls-2" cx="215.26" cy="132.03" r="1.5"/><circle class="cls-2" cx="179.25" cy="132.34" r="1.5"/><circle class="cls-2" cx="215.93" cy="137.78" r="1.5"/><circle class="cls-2" cx="257.21" cy="104.77" r="1.5"/><circle class="cls-2" cx="244.09" cy="133.2" r="1.5"/><circle class="cls-2" cx="182.65" cy="130.32" r="1.5"/><circle class="cls-2" cx="223.1" cy="114.85" r="1.5"/><circle class="cls-2" cx="271.52" cy="119.99" r="1.5"/><circle class="cls-2" cx="267.73" cy="116.9" r="1.5"/><circle class="cls-2" cx="182.37" cy="135.96" r="1.5"/><circle class="cls-2" cx="196.22" cy="125.83" r="1.5"/><circle class="cls-2" cx="250.9" cy="138.94" r="1.5"/><circle class="cls-2" cx="183.55" cy="140.13" r="1.5"/><circle class="cls-2" cx="232.95" cy="114.16" r="1.5"/><circle class="cls-2" cx="215.87" cy="116.78" r="1.5"/><circle class="cls-2" cx="286.77" cy="98.99" r="1.5"/><circle class="cls-2" cx="272.01" cy="111.14" r="1.5"/><circle class="cls-2" cx="213.17" cy="124.27" r="1.5"/><circle class="cls-2" cx="197.67" cy="145" r="1.5"/><circle class="cls-2" cx="240.08" cy="117.54" r="1.5"/><circle class="cls-2" cx="249.8" cy="133.91" r="1.5"/><circle class="cls-2" cx="272.84" cy="105.48" r="1.5"/><circle class="cls-2" cx="200.72" cy="128.95" r="1.5"/><circle class="cls-2" cx="254.82" cy="99.71" r="1.5"/><circle class="cls-2" cx="218.46" cy="145.24" r="1.5"/><circle class="cls-2" cx="264.57" cy="98.07" r="1.5"/><circle class="cls-2" cx="242.03" cy="137.68" r="1.5"/><circle class="cls-2" cx="225.1" cy="138.87" r="1.5"/><circle class="cls-2" cx="260.7" cy="136.2" r="1.5"/><circle class="cls-2" cx="200.99" cy="136.68" r="1.5"/><circle class="cls-2" cx="263.62" cy="128.22" r="1.5"/><circle class="cls-2" cx="224.99" cy="134.4" r="1.5"/><circle class="cls-2" cx="275.17" cy="101.51" r="1.5"/><circle class="cls-2" cx="268.69" cy="98.24" r="1.5"/><circle class="cls-2" cx="186.01" cy="133.45" r="1.5"/><circle class="cls-2" cx="262.02" cy="123.67" r="1.5"/><circle class="cls-2" cx="257.89" cy="143.84" r="1.5"/><circle class="cls-2" cx="190.87" cy="144.54" r="1.5"/><circle class="cls-2" cx="254.18" cy="132.5" r="1.5"/><circle class="cls-2" cx="181.82" cy="144.8" r="1.5"/><circle class="cls-2" cx="206.57" cy="128.78" r="1.5"/><circle class="cls-2" cx="251.64" cy="116.1" r="1.5"/><circle class="cls-2" cx="253.01" cy="128.88" r="1.5"/><circle class="cls-2" cx="149.13" cy="143.14" r="1.5"/><circle class="cls-2" cx="222.41" cy="120.6" r="1.5"/><circle class="cls-2" cx="266.59" cy="93.61" r="1.5"/><circle class="cls-2" cx="270.72" cy="92.47" r="1.5"/><circle class="cls-2" cx="264.6" cy="119.74" r="1.5"/><circle class="cls-2" cx="282.18" cy="118.76" r="1.5"/><circle class="cls-2" cx="274.15" cy="95.05" r="1.5"/><circle class="cls-2" cx="278.49" cy="93.73" r="1.5"/><circle class="cls-2" cx="194.68" cy="142.62" r="1.5"/><circle class="cls-2" cx="235.32" cy="131.22" r="1.5"/><circle class="cls-2" cx="282.75" cy="96.12" r="1.5"/><circle class="cls-2" cx="258.88" cy="113.64" r="1.5"/><circle class="cls-2" cx="277.5" cy="122.11" r="1.5"/><circle class="cls-2" cx="179.5" cy="140.55" r="1.5"/><circle class="cls-2" cx="247.45" cy="129.64" r="1.5"/><circle class="cls-2" cx="163.21" cy="137.28" r="1.5"/><circle class="cls-2" cx="232.79" cy="144.54" r="1.5"/><circle class="cls-2" cx="173.63" cy="140.35" r="1.5"/><circle class="cls-2" cx="235.6" cy="135.66" r="1.5"/><circle class="cls-2" cx="286.89" cy="123.61" r="1.5"/><circle class="cls-2" cx="239.29" cy="126.55" r="1.5"/><circle class="cls-2" cx="278.08" cy="113.7" r="1.5"/><circle class="cls-2" cx="220.65" cy="138.74" r="1.5"/><circle class="cls-2" cx="227.82" cy="118.58" r="1.5"/><circle class="cls-2" cx="212.07" cy="128.44" r="1.5"/><circle class="cls-2" cx="271.94" cy="145.01" r="1.5"/><circle class="cls-2" cx="272.64" cy="124.52" r="1.5"/><circle class="cls-2" cx="167.57" cy="136.7" r="1.5"/><circle class="cls-2" cx="247.41" cy="114.93" r="1.5"/><circle class="cls-2" cx="266.58" cy="145.27" r="1.5"/><circle class="cls-2" cx="252.53" cy="105.34" r="1.5"/><circle class="cls-2" cx="285.32" cy="133.46" r="1.5"/><circle class="cls-2" cx="237.13" cy="143.64" r="1.5"/><circle class="cls-2" cx="153.73" cy="140.76" r="1.5"/><circle class="cls-2" cx="272.29" cy="136.02" r="1.5"/><circle class="cls-2" cx="227.67" cy="143.62" r="1.5"/><circle class="cls-2" cx="283.22" cy="90.23" r="1.5"/><circle class="cls-2" cx="231.93" cy="139.88" r="1.5"/><circle class="cls-2" cx="282.34" cy="112.24" r="1.5"/><circle class="cls-2" cx="258.41" cy="97.06" r="1.5"/><circle class="cls-2" cx="261.34" cy="109.18" r="1.5"/><circle class="cls-2" cx="238.27" cy="122.45" r="1.5"/><circle class="cls-2" cx="234.93" cy="109.55" r="1.5"/><circle class="cls-2" cx="243.61" cy="105.4" r="1.5"/><circle class="cls-2" cx="224.55" cy="123.79" r="1.5"/><circle class="cls-2" cx="230.91" cy="129.32" r="1.5"/><circle class="cls-2" cx="231.91" cy="134.16" r="1.5"/><circle class="cls-2" cx="195.27" cy="134.84" r="1.5"/><circle class="cls-2" cx="211.46" cy="137.89" r="1.5"/><circle class="cls-2" cx="206.54" cy="140.17" r="1.5"/><circle class="cls-2" cx="226.89" cy="130.32" r="1.5"/><circle class="cls-2" cx="242.94" cy="114.18" r="1.5"/><circle class="cls-2" cx="198.78" cy="132.62" r="1.5"/><circle class="cls-2" cx="177.45" cy="136.84" r="1.5"/><circle class="cls-2" cx="278.24" cy="135.86" r="1.5"/><circle class="cls-2" cx="286.74" cy="118.67" r="1.5"/><circle class="cls-2" cx="169.33" cy="143.89" r="1.5"/><circle class="cls-2" cx="262.32" cy="115.69" r="1.5"/><circle class="cls-2" cx="279.08" cy="99.12" r="1.5"/><circle class="cls-2" cx="229.57" cy="110.57" r="1.5"/><circle class="cls-2" cx="152.15" cy="145.24" r="1.5"/><circle class="cls-2" cx="186.67" cy="143.57" r="1.5"/><circle class="cls-2" cx="187.44" cy="138.23" r="1.5"/><circle class="cls-2" cx="243.23" cy="127.56" r="1.5"/><circle class="cls-2" cx="282.79" cy="124.34" r="1.5"/><circle class="cls-2" cx="210.26" cy="120.26" r="1.5"/><circle class="cls-2" cx="216.53" cy="121.12" r="1.5"/><circle class="cls-2" cx="272.06" cy="115.21" r="1.5"/><circle class="cls-2" cx="197.03" cy="138.83" r="1.5"/><circle class="cls-2" cx="239.38" cy="134.29" r="1.5"/><circle class="cls-2" cx="259.5" cy="120.2" r="1.5"/><circle class="cls-2" cx="245.85" cy="119.22" r="1.5"/><circle class="cls-2" cx="264.04" cy="102.08" r="1.5"/><circle class="cls-2" cx="173.38" cy="145.18" r="1.5"/><circle class="cls-2" cx="280.08" cy="131.53" r="1.5"/><circle class="cls-2" cx="281.25" cy="144.64" r="1.5"/><circle class="cls-2" cx="169.96" cy="134.21" r="1.5"/><circle class="cls-2" cx="144.89" cy="144.74" r="1.5"/><circle class="cls-2" cx="279.01" cy="126.93" r="1.5"/><circle class="cls-2" cx="220.94" cy="131.39" r="1.5"/><circle class="cls-2" cx="286.52" cy="107.46" r="1.5"/><circle class="cls-2" cx="253.77" cy="112.24" r="1.5"/><circle class="cls-2" cx="280.83" cy="108" r="1.5"/><circle class="cls-2" cx="205.72" cy="136.05" r="1.5"/><circle class="cls-2" cx="263.87" cy="105.95" r="1.5"/><circle class="cls-2" cx="269.03" cy="129.36" r="1.5"/><circle class="cls-2" cx="172.29" cy="136.91" r="1.5"/><circle class="cls-2" cx="247.18" cy="143.85" r="1.5"/><circle class="cls-2" cx="218.44" cy="126.27" r="1.5"/><circle class="cls-2" cx="274.63" cy="132.63" r="1.5"/><circle class="cls-2" cx="287.02" cy="137.98" r="1.5"/><circle class="cls-2" cx="249.86" cy="125.55" r="1.5"/><circle class="cls-2" cx="233.26" cy="123.69" r="1.5"/><circle class="cls-2" cx="247.55" cy="103.48" r="1.5"/><circle class="cls-2" cx="229.01" cy="136.57" r="1.5"/><circle class="cls-2" cx="259.74" cy="101.13" r="1.5"/><circle class="cls-2" cx="235.2" cy="127.15" r="1.5"/><circle class="cls-2" cx="250.26" cy="120.88" r="1.5"/><circle class="cls-2" cx="254.94" cy="120.9" r="1.5"/><circle class="cls-2" cx="280" cy="88.47" r="1.5"/><circle class="cls-2" cx="139.67" cy="145.72" r="1.5"/><circle class="cls-2" cx="228.77" cy="124.41" r="1.5"/><circle class="cls-2" cx="191.08" cy="126.91" r="1.5"/><circle class="cls-2" cx="250.23" cy="109.44" r="1.5"/><path class="cls-3" d="M205,40C170.52,35.14,147,0,75,0,18,0,0,27,0,27v83.82c4-1.77,8-3.37,12.17-4.77,58.3-19.67,122.67,2.39,183.47-7C228.44,94,259,79.91,289,65.53V27S262.47,48.11,205,40Z"/><circle class="cls-2" cx="149.65" cy="38.17" r="1.72"/><circle class="cls-2" cx="101.22" cy="84.06" r="1.72"/><circle class="cls-2" cx="232.33" cy="83.62" r="1.72"/><circle class="cls-2" cx="164.14" cy="54.47" r="1.72"/><circle class="cls-2" cx="189.76" cy="61.61" r="1.72"/><circle class="cls-2" cx="27.04" cy="12.75" r="1.72"/><circle class="cls-2" cx="235.57" cy="63.71" r="1.72"/><circle class="cls-2" cx="100.48" cy="68.48" r="1.72"/><circle class="cls-2" cx="143.93" cy="44.23" r="1.72"/><circle class="cls-2" cx="171.3" cy="71.59" r="1.72"/><circle class="cls-2" cx="28.95" cy="95.36" r="1.72"/><circle class="cls-2" cx="46.87" cy="26.53" r="1.72"/><circle class="cls-2" cx="78.58" cy="30.07" r="1.72"/><circle class="cls-2" cx="112.44" cy="80.05" r="1.72"/><circle class="cls-2" cx="182.04" cy="66.34" r="1.72"/><circle class="cls-2" cx="163.62" cy="90.08" r="1.72"/><circle class="cls-2" cx="29.89" cy="32.63" r="1.72"/><circle class="cls-2" cx="49.55" cy="54.83" r="1.72"/><circle class="cls-2" cx="183.48" cy="48.11" r="1.72"/><circle class="cls-2" cx="84.69" cy="81.53" r="1.72"/><circle class="cls-2" cx="150.81" cy="52.09" r="1.72"/><circle class="cls-2" cx="188.14" cy="96.3" r="1.72"/><circle class="cls-2" cx="29.29" cy="22.94" r="1.72"/><circle class="cls-2" cx="159.33" cy="37.6" r="1.72"/><circle class="cls-2" cx="225.37" cy="62.46" r="1.72"/><circle class="cls-2" cx="9.54" cy="23.67" r="1.72"/><circle class="cls-2" cx="134.91" cy="21.38" r="1.72"/><circle class="cls-2" cx="19.18" cy="25.35" r="1.72"/><circle class="cls-2" cx="236.33" cy="76.6" r="1.72"/><circle class="cls-2" cx="123.11" cy="77.83" r="1.72"/><circle class="cls-2" cx="87.62" cy="10.97" r="1.72"/><circle class="cls-2" cx="35.74" cy="84.48" r="1.72"/><circle class="cls-2" cx="181.87" cy="74.2" r="1.72"/><circle class="cls-2" cx="172.3" cy="62.01" r="1.72"/><circle class="cls-2" cx="122.55" cy="51.76" r="1.72"/><circle class="cls-2" cx="55.23" cy="74.65" r="1.72"/><circle class="cls-2" cx="45.81" cy="73.11" r="1.72"/><circle class="cls-2" cx="55.64" cy="64.29" r="1.72"/><circle class="cls-2" cx="201.05" cy="55.82" r="1.72"/><circle class="cls-2" cx="130.63" cy="95.37" r="1.72"/><circle class="cls-2" cx="105.74" cy="14.83" r="1.72"/><circle class="cls-2" cx="91.17" cy="4.28" r="1.72"/><circle class="cls-2" cx="79.67" cy="41.19" r="1.72"/><circle class="cls-2" cx="162.7" cy="73.16" r="1.72"/><circle class="cls-2" cx="137.06" cy="29.51" r="1.72"/><circle class="cls-2" cx="24.24" cy="85.93" r="1.72"/><circle class="cls-2" cx="131.3" cy="55.62" r="1.72"/><circle class="cls-2" cx="18.48" cy="98.65" r="1.72"/><circle class="cls-2" cx="55.63" cy="7.89" r="1.72"/><circle class="cls-2" cx="268.37" cy="57.39" r="1.72"/><circle class="cls-2" cx="34.07" cy="14.04" r="1.72"/><circle class="cls-2" cx="143.56" cy="18.31" r="1.72"/><circle class="cls-2" cx="79.19" cy="57.07" r="1.72"/><circle class="cls-2" cx="234.01" cy="46.25" r="1.72"/><circle class="cls-2" cx="202.99" cy="79.86" r="1.72"/><circle class="cls-2" cx="124.04" cy="39.04" r="1.72"/><circle class="cls-2" cx="105" cy="92.71" r="1.72"/><circle class="cls-2" cx="207.6" cy="89.66" r="1.72"/><circle class="cls-2" cx="16.45" cy="65.5" r="1.72"/><circle class="cls-2" cx="24.8" cy="64.22" r="1.72"/><circle class="cls-2" cx="259.66" cy="54.95" r="1.72"/><circle class="cls-2" cx="148.74" cy="61.04" r="1.72"/><circle class="cls-2" cx="64.87" cy="5.26" r="1.72"/><circle class="cls-2" cx="192.71" cy="76.11" r="1.72"/><circle class="cls-2" cx="46.37" cy="83.71" r="1.72"/><circle class="cls-2" cx="192.55" cy="52.84" r="1.72"/><circle class="cls-2" cx="18.55" cy="33.42" r="1.72"/><circle class="cls-2" cx="75.61" cy="66.36" r="1.72"/><circle class="cls-2" cx="271.34" cy="39.59" r="1.72"/><circle class="cls-2" cx="49.56" cy="44.67" r="1.72"/><circle class="cls-2" cx="95.86" cy="37.87" r="1.72"/><circle class="cls-2" cx="66.49" cy="64.79" r="1.72"/><circle class="cls-2" cx="209.03" cy="61.36" r="1.72"/><circle class="cls-2" cx="206.84" cy="71.19" r="1.72"/><circle class="cls-2" cx="100.86" cy="45.2" r="1.72"/><circle class="cls-2" cx="9.39" cy="82.21" r="1.72"/><circle class="cls-2" cx="126.33" cy="15.94" r="1.72"/><circle class="cls-2" cx="216.42" cy="71.87" r="1.72"/><circle class="cls-2" cx="242.12" cy="57.07" r="1.72"/><circle class="cls-2" cx="256.61" cy="74.25" r="1.72"/><circle class="cls-2" cx="207.99" cy="47.18" r="1.72"/><circle class="cls-2" cx="39.28" cy="20.75" r="1.72"/><circle class="cls-2" cx="59.32" cy="16.66" r="1.72"/><circle class="cls-2" cx="180.78" cy="56.86" r="1.72"/><circle class="cls-2" cx="129.51" cy="85.63" r="1.72"/><circle class="cls-2" cx="217.95" cy="58.09" r="1.72"/><circle class="cls-2" cx="28.49" cy="46.57" r="1.72"/><circle class="cls-2" cx="65.35" cy="91.93" r="1.72"/><circle class="cls-2" cx="139.88" cy="61" r="1.72"/><circle class="cls-2" cx="255.73" cy="62.16" r="1.72"/><circle class="cls-2" cx="264.95" cy="47.47" r="1.72"/><circle class="cls-2" cx="109.06" cy="24.15" r="1.72"/><circle class="cls-2" cx="40.03" cy="55.63" r="1.72"/><circle class="cls-2" cx="116.93" cy="70.82" r="1.72"/><circle class="cls-2" cx="109.19" cy="65.74" r="1.72"/><circle class="cls-2" cx="39.28" cy="9" r="1.72"/><circle class="cls-2" cx="111.54" cy="7.7" r="1.72"/><circle class="cls-2" cx="132.13" cy="75.3" r="1.72"/><circle class="cls-2" cx="47.39" cy="8.31" r="1.72"/><circle class="cls-2" cx="172.83" cy="50.81" r="1.72"/><circle class="cls-2" cx="27.4" cy="74.9" r="1.72"/><circle class="cls-2" cx="139.24" cy="86.17" r="1.72"/><circle class="cls-2" cx="4.11" cy="62.22" r="1.72"/><circle class="cls-2" cx="5.35" cy="43.15" r="1.72"/><circle class="cls-2" cx="40.72" cy="47.2" r="1.72"/><circle class="cls-2" cx="64.44" cy="82.76" r="1.72"/><circle class="cls-2" cx="31.37" cy="54.59" r="1.72"/><circle class="cls-2" cx="196.71" cy="67.39" r="1.72"/><circle class="cls-2" cx="195.05" cy="43.43" r="1.72"/><circle class="cls-2" cx="257.41" cy="44.3" r="1.72"/><circle class="cls-2" cx="57.61" cy="35.26" r="1.72"/><circle class="cls-2" cx="58.26" cy="44.73" r="1.72"/><circle class="cls-2" cx="165.19" cy="43.31" r="1.72"/><circle class="cls-2" cx="283.39" cy="37.56" r="1.72"/><circle class="cls-2" cx="88.98" cy="44.19" r="1.72"/><circle class="cls-2" cx="114.91" cy="58.16" r="1.72"/><circle class="cls-2" cx="93.9" cy="89.75" r="1.72"/><circle class="cls-2" cx="266.23" cy="68.95" r="1.72"/><circle class="cls-2" cx="154.84" cy="22.93" r="1.72"/><circle class="cls-2" cx="75.35" cy="48.49" r="1.72"/><circle class="cls-2" cx="36.89" cy="74.07" r="1.72"/><circle class="cls-2" cx="6.33" cy="102.31" r="1.72"/><circle class="cls-2" cx="43.89" cy="63.87" r="1.72"/><circle class="cls-2" cx="36.78" cy="40.1" r="1.72"/><circle class="cls-2" cx="74.79" cy="90.54" r="1.72"/><circle class="cls-2" cx="67.73" cy="55.61" r="1.72"/><circle class="cls-2" cx="143.99" cy="95.53" r="1.72"/><circle class="cls-2" cx="7.1" cy="33.29" r="1.72"/><circle class="cls-2" cx="228.98" cy="70.41" r="1.72"/><circle class="cls-2" cx="12.98" cy="55.21" r="1.72"/><circle class="cls-2" cx="48.56" cy="17.63" r="1.72"/><circle class="cls-2" cx="92.46" cy="74.88" r="1.72"/><circle class="cls-2" cx="69.01" cy="34.67" r="1.72"/><circle class="cls-2" cx="223.25" cy="77.66" r="1.72"/><circle class="cls-2" cx="119.98" cy="26.31" r="1.72"/><circle class="cls-2" cx="123.8" cy="64.51" r="1.72"/><circle class="cls-2" cx="157.5" cy="97.1" r="1.72"/><circle class="cls-2" cx="275.49" cy="63.99" r="1.72"/><circle class="cls-2" cx="16.1" cy="44.76" r="1.72"/><circle class="cls-2" cx="78.19" cy="3.53" r="1.72"/><circle class="cls-2" cx="68.95" cy="14.78" r="1.72"/><circle class="cls-2" cx="104.05" cy="76.53" r="1.72"/><circle class="cls-2" cx="19.59" cy="17.27" r="1.72"/><circle class="cls-2" cx="249.44" cy="67.76" r="1.72"/><circle class="cls-2" cx="115.1" cy="34.27" r="1.72"/><circle class="cls-2" cx="220.39" cy="47.5" r="1.72"/><circle class="cls-2" cx="47.2" cy="35.52" r="1.72"/><circle class="cls-2" cx="145.62" cy="79.31" r="1.72"/><circle class="cls-2" cx="99.85" cy="7.37" r="1.72"/><circle class="cls-2" cx="199.55" cy="93.48" r="1.72"/><circle class="cls-2" cx="158.62" cy="80.41" r="1.72"/><circle class="cls-2" cx="132.25" cy="65.22" r="1.72"/><circle class="cls-2" cx="90.75" cy="63.1" r="1.72"/><circle class="cls-2" cx="8.84" cy="67.96" r="1.72"/><circle class="cls-2" cx="173.47" cy="41.66" r="1.72"/><circle class="cls-2" cx="151.69" cy="70.75" r="1.72"/><circle class="cls-2" cx="4.24" cy="75.6" r="1.72"/><circle class="cls-2" cx="183.79" cy="38.88" r="1.72"/><circle class="cls-2" cx="223.48" cy="87.74" r="1.72"/><circle class="cls-2" cx="106.11" cy="35.16" r="1.72"/><circle class="cls-2" cx="230.97" cy="54.15" r="1.72"/><circle class="cls-2" cx="88.62" cy="22.5" r="1.72"/><circle class="cls-2" cx="241.98" cy="69.73" r="1.72"/><circle class="cls-2" cx="97.14" cy="18.76" r="1.72"/><circle class="cls-2" cx="24.44" cy="39.5" r="1.72"/><circle class="cls-2" cx="145.28" cy="27.79" r="1.72"/><circle class="cls-2" cx="38.37" cy="30.51" r="1.72"/><circle class="cls-2" cx="173.67" cy="95.43" r="1.72"/><circle class="cls-2" cx="33.63" cy="64.27" r="1.72"/><circle class="cls-2" cx="56.89" cy="25.85" r="1.72"/><circle class="cls-2" cx="118.86" cy="88.02" r="1.72"/><circle class="cls-2" cx="165.08" cy="30.12" r="1.72"/><circle class="cls-2" cx="284.11" cy="61.98" r="1.72"/><circle class="cls-2" cx="100" cy="57.89" r="1.72"/><circle class="cls-2" cx="118.02" cy="14.4" r="1.72"/><circle class="cls-2" cx="75.92" cy="78.1" r="1.72"/><circle class="cls-2" cx="76.06" cy="10.24" r="1.72"/><circle class="cls-2" cx="107.2" cy="51.78" r="1.72"/><circle class="cls-2" cx="285.47" cy="49.55" r="1.72"/><circle class="cls-2" cx="58.67" cy="54.63" r="1.72"/><circle class="cls-2" cx="17.47" cy="76.08" r="1.72"/><circle class="cls-2" cx="245.9" cy="46" r="1.72"/><circle class="cls-2" cx="174.2" cy="33.92" r="1.72"/><circle class="cls-2" cx="5.18" cy="52.73" r="1.72"/><circle class="cls-2" cx="66.48" cy="74.14" r="1.72"/><circle class="cls-2" cx="182.9" cy="82.33" r="1.72"/><circle class="cls-2" cx="140" cy="51.79" r="1.72"/><circle class="cls-2" cx="116.09" cy="95.48" r="1.72"/><circle class="cls-2" cx="21.81" cy="54.81" r="1.72"/><circle class="cls-2" cx="273.79" cy="46.72" r="1.72"/><circle class="cls-2" cx="56.56" cy="94.36" r="1.72"/><circle class="cls-2" cx="97.72" cy="28.75" r="1.72"/><circle class="cls-2" cx="4.93" cy="91.48" r="1.72"/><circle class="cls-2" cx="136.99" cy="37.63" r="1.72"/><circle class="cls-2" cx="154.31" cy="30.33" r="1.72"/><circle class="cls-2" cx="114.03" cy="44.69" r="1.72"/><circle class="cls-2" cx="214.73" cy="85.42" r="1.72"/><circle class="cls-2" cx="38.06" cy="94.11" r="1.72"/><circle class="cls-2" cx="183.9" cy="90.44" r="1.72"/><circle class="cls-2" cx="89.56" cy="53" r="1.72"/><circle class="cls-2" cx="172.18" cy="83.22" r="1.72"/><circle class="cls-2" cx="54.99" cy="86.55" r="1.72"/><circle class="cls-2" cx="85.09" cy="92.34" r="1.72"/><circle class="cls-2" cx="67.9" cy="24.31" r="1.72"/><circle class="cls-2" cx="157.28" cy="47.56" r="1.72"/><circle class="cls-2" cx="133.19" cy="12.93" r="1.72"/><circle class="cls-2" cx="131.28" cy="45.51" r="1.72"/><circle class="cls-2" cx="160.19" cy="62.65" r="1.72"/><circle class="cls-2" cx="46.66" cy="93.96" r="1.72"/><circle class="cls-2" cx="278.92" cy="52.94" r="1.72"/><circle class="cls-2" cx="193.62" cy="86.17" r="1.72"/><circle class="cls-2" cx="87.64" cy="32.97" r="1.72"/><circle class="cls-2" cx="151.95" cy="87.8" r="1.72"/><circle class="cls-2" cx="14.76" cy="90.29" r="1.72"/><circle class="cls-2" cx="83.64" cy="69.15" r="1.72"/><circle class="cls-2" cx="250.42" cy="53.43" r="1.72"/><circle class="cls-2" cx="140.64" cy="70.84" r="1.72"/><circle class="cls-2" cx="128.39" cy="29.27" r="1.72"/><circle class="cls-2" cx="66.65" cy="44.93" r="1.72"/><circle class="cls-2" cx="245.43" cy="79.75" r="1.72"/><circle class="cls-2" cx="79.66" cy="19.6" r="1.72"/></g></g></svg>