<svg xmlns="http://www.w3.org/2000/svg" viewBox="0 0 1400 400"><defs><style>.cls-1{fill:#faebc3;}</style></defs><title>资源 19</title><g id="图层_2" data-name="图层 2"><g id="图层_1-2" data-name="图层 1"><path class="cls-1" d="M1400,44.42q-9.7,2.43-19.24,5.52c-7.48-1.06-15-1.87-22.48-2.58-7.94-.76-15.9-1.45-23.86-2q-.58-3.64-1-7.3a135.05,135.05,0,0,1-.32-28.94q.49-4.59,1.37-9.13h-4.32c-.47,2.91-.84,5.83-1.08,8.75a140.65,140.65,0,0,0,.74,29.75c.28,2.22.62,4.43,1,6.63-9.14-.58-18.29-1.09-27.46-1.27s-18.37-.29-27.57,0-18.39.76-27.57,1.7-18.34,2.12-27.42,3.9l-3.41.64c-1.15.25-2.31.48-3.47.79a52.6,52.6,0,0,0-6.94,2.2,30.52,30.52,0,0,0-6.7,3.67,23.94,23.94,0,0,0-5.46,5.67,48.66,48.66,0,0,0-3.64,6.39c-1,2.09-2,4.11-3,6a64.93,64.93,0,0,1-3.34,5.59q-.44.68-.92,1.33l-.47.66L1183,83a15.53,15.53,0,0,1-1.92,2,21.49,21.49,0,0,1-10.61,4.59,60.14,60.14,0,0,1-12.82.6c-1.47-.07-2.94-.17-4.42-.29l.11-.21q6.92-13.19,13.25-26.68c1.06-2.22,2.11-4.56,3.16-6.86s2-4.64,3-7q2.91-7,5.52-14c3.52-9.34,6.78-18.68,10-27.92l2.56-7.3h-24.32l-.16.61c-2.46,9.52-4.86,19-7.47,28.23s-5.37,18.37-8.7,27.34-6.84,18.14-10.56,27.09c-.69,1.68-1.41,3.35-2.12,5-2.36-.24-4.77-.44-7.24-.54a96.58,96.58,0,0,0-14.07.35,61.23,61.23,0,0,0-14.19,3,41.07,41.07,0,0,0-6.73,3.1,32,32,0,0,0-5.94,4.47,30.76,30.76,0,0,0-4.66,5.68,39.89,39.89,0,0,0-3.23,6.39c-3.45,8.8-4.41,17.94-7.27,26.65l-.13.39a939.87,939.87,0,0,0-120.42,24.58c-10.93,3-21.86,6.23-32.34,10.87S900.81,184,892.62,192.3a60.3,60.3,0,0,0-16,31,48,48,0,0,0,0,18,39.68,39.68,0,0,0,7.57,16.68A61.83,61.83,0,0,0,897.45,270c4.75,3.39,9.58,6.36,13.95,9.58s8.35,6.65,11.11,10.71a30.11,30.11,0,0,1,5.27,13.52,40.35,40.35,0,0,1,.33,7.14,427.92,427.92,0,0,0-28.17,35.13l-2.29,3.23a235.75,235.75,0,0,0-5.85-25.69,175.27,175.27,0,0,0-14.6-35.42,139.28,139.28,0,0,0-53.33-54.46,170,170,0,0,0-35.4-15.2,237,237,0,0,0-37.6-8.07,375.61,375.61,0,0,0-38.21-3c-6.37-.23-12.72-.33-19-.49-3.15-.08-6.29-.17-9.37-.35a49.84,49.84,0,0,1-8.65-1.07,92.72,92.72,0,0,1-17-6.57,124.1,124.1,0,0,1-15.73-9.52c-10.09-7.11-19.41-15.45-28.56-24.08s-18.12-17.62-27.59-26.27c-4.73-4.33-9.61-8.56-14.63-12.62s-10.19-7.92-15.48-11.62a299.14,299.14,0,0,0-68.6-35.61,370.09,370.09,0,0,0-75-18.68c-7-1-14.08-1.85-21.14-2.54a85.76,85.76,0,0,0,3.5-15.76c.15-1.8.39-3.59.41-5.4,0-.9.09-1.8.08-2.71l-.06-2.71a68,68,0,0,0-1.33-10.75,70.49,70.49,0,0,0-8-20.74h-2.61a68.55,68.55,0,0,1,8.29,21.21,65.65,65.65,0,0,1,1.23,10.36l0,2.61c0,.87-.06,1.74-.09,2.61,0,1.74-.26,3.48-.41,5.21a83.43,83.43,0,0,1-3.64,15.81c-17.72-1.63-35.5-2.29-53.25-2.14a703,703,0,0,0-76.75,5.09c-12.74,1.47-25.39,3.38-37.81,5s-24.73,3.09-36.84,3.5c-5.55.18-11.07.14-16.5-.18l6.89-16L192,14c2.08-4.77,4.21-9.5,6.71-14h-3.55c-2.27,4.14-4.25,8.41-6.15,12.66L171.59,51.54l-7.72,17.24a115.87,115.87,0,0,1-14.46-2.17,92.32,92.32,0,0,1-16.31-5.1,109.87,109.87,0,0,1-15.36-8c-10.13-6.23-20-13.92-30.7-21.36C81.69,28.42,76.1,24.75,70.14,21.4c-3-1.68-6-3.25-9.33-4.75a89.91,89.91,0,0,0-10.11-3.82A83.68,83.68,0,0,0,29.24,9.05,73.58,73.58,0,0,0,7.1,11.49,66.12,66.12,0,0,0,0,13.83V40.29q5.58,1.57,11.07,3.38c4.91,1.66,9.77,3.45,14.52,5.45A94.25,94.25,0,0,1,51.05,65,66.49,66.49,0,0,1,68.52,88.54l.72,1.68c.22.57.4,1.15.6,1.72.39,1.15.82,2.29,1.14,3.48.67,2.4,1.24,4.92,1.87,7.55s1.31,5.37,2.24,8.15a39.6,39.6,0,0,0,3.78,8.25,41.21,41.21,0,0,0,5.6,7.17,53.12,53.12,0,0,0,6.71,5.7,96.37,96.37,0,0,0,14.54,8.39c4.92,2.37,9.72,4.52,14.56,6.78l14.49,6.73c18.77,8.7,37.45,17.6,56.12,26.51a41.9,41.9,0,0,1,1.3,4.42,29.11,29.11,0,0,1,.58,9.51l-.12,1.17c-.06.39-.16.77-.24,1.15-.18.76-.28,1.55-.53,2.29a40,40,0,0,1-1.72,4.59c-1.34,3.11-3,6.32-4.33,10a49.27,49.27,0,0,0-2.56,11.16,65,65,0,0,0,1.6,22.4,95.26,95.26,0,0,0,7.67,20.8A144.65,144.65,0,0,0,201,282.47c-.9.5-1.79,1-2.68,1.51a120.89,120.89,0,0,0-23.56,17.23,70.19,70.19,0,0,0-5,5.34,57.25,57.25,0,0,0-4.39,5.85q-.53.8-1,1.62l-1.35.16c-6.22.74-12.45,1.26-18.68,1.85s-12.47,1-18.72,1.29-12.49.6-18.74.83c-3.12.1-6.25.13-9.37.19l-4.69.08H88.07c-12.5.07-25-.31-37.46-1s-24.92-1.68-37.32-3c-4.44-.47-8.87-1-13.29-1.6v20.07c3.75.43,7.51.82,11.27,1.17,12.8,1.21,25.63,2.14,38.47,2.57s25.69.62,38.53.32l4.81-.08,4.81-.17c3.21-.13,6.42-.21,9.62-.37,6.41-.35,12.82-.67,19.21-1.19s12.78-1.09,19.17-1.67c4-.45,8-.87,12-1.34a46.28,46.28,0,0,0-.31,8,128.44,128.44,0,0,0,1.71,14.52q2.24,14.45,4.69,28.86,1.41,8.27,2.92,16.51H167q-1.5-8.26-2.91-16.54-2.45-14.41-4.68-28.86a128.34,128.34,0,0,1-1.71-14.5,46.12,46.12,0,0,1,.32-8c2.33-.27,4.67-.56,7-.88,12.74-1.59,25.33-3.64,37.8-5.57,9.3-1.43,18.55-2.81,27.77-3.88q6.32,8.13,12.72,16.2c4.44,5.59,8.91,11.16,13.51,16.61q13.76,16.4,28.68,31.75c4.79,4.87,9.65,9.32,14.59,13.66H331.3l-.41-.33c-5.39-4.39-10.71-8.85-15.88-13.45s-10.24-9.32-14.83-14.1q-14.67-15.29-29.91-30c-5.06-4.94-10.2-9.82-15.32-14.72l-7.44-7.18a222.85,222.85,0,0,1,29.26-.25,138.38,138.38,0,0,1,35.38,6.77,102.67,102.67,0,0,1,31.24,16.82,94.1,94.1,0,0,1,12.78,12.33,135.44,135.44,0,0,1,10.69,14.64c6.08,9.44,11.63,19.61,18.2,29.5h13.78q-1.2-1.71-2.36-3.46C389.75,386.32,384,375.07,377.26,364a147.73,147.73,0,0,0-11.35-16.28c-.79-1-1.61-1.89-2.43-2.82,17,10,34.23,19.69,51,30C427.36,382.74,440,391,452,400h19.7c-.29-3.21-.6-6.44-1-9.68a194.39,194.39,0,0,0-3.54-21.7,110.46,110.46,0,0,0-7.07-21.24,113.92,113.92,0,0,0-11.21-19.25,164.21,164.21,0,0,0-14-16.85q-1.69-1.79-3.42-3.53c.92-.1,1.84-.2,2.75-.34,9.78-1.33,18.9-5.19,28.13-8.13a114.22,114.22,0,0,1,28.57-5.08c4.85-.33,9.71-.48,14.58-.61s9.74-.26,14.61-.32a205.36,205.36,0,0,1,29.08,1.34,109.39,109.39,0,0,1,14.25,2.8c4.69,1.23,9.33,2.69,14,4.17s9.32,3,14.09,4.25a84.76,84.76,0,0,0,14.73,2.8,52.47,52.47,0,0,0,7.71.14,42.46,42.46,0,0,0,7.8-1.24,36,36,0,0,0,7.51-2.85c1.27-.65,2.21-1.16,3.28-1.73s2.11-1.07,3.16-1.61a160.41,160.41,0,0,1,26.38-10.1,152.36,152.36,0,0,1,27.67-5.66,176.92,176.92,0,0,1,56.56,3.53,185.75,185.75,0,0,1,27.25,8.27,139.41,139.41,0,0,1,25.2,12.72c16,10.46,31.17,23,48.39,33.16l3.24,1.87c1.09.61,2.2,1.2,3.29,1.8s2.22,1.16,3.33,1.73l3.22,1.63A30.74,30.74,0,0,1,870.33,358a17.62,17.62,0,0,1,4,10.92,30.72,30.72,0,0,1-2.73,12.44,66.74,66.74,0,0,1-6.78,11.94,82.44,82.44,0,0,1-5.16,6.68h10.47c.48-.65,1-1.29,1.43-1.94l.2-.3q-.31,1.11-.59,2.24H896c.11-.28.22-.56.33-.84a69.15,69.15,0,0,0,4-16.94q.7-1.42,1.43-2.84c2-3.85,4.11-7.7,6.37-11.56l3.42-5.78,1.77-2.87c-.89,2.33-1.76,4.69-2.59,7.11A213.38,213.38,0,0,0,902.35,400h16.78a197.43,197.43,0,0,1,5.56-29.48c2.79-10.4,7-21.07,10.12-32.34.9-3.19,1.7-6.46,2.38-9.78,5.76-8,11.49-15.87,18-23.12a243.38,243.38,0,0,1,20.87-20.52c7.37-6.42,15-12.57,22.75-18.54l23.43-17.78c7.81-5.95,15.57-12,23.09-18.36a382.88,382.88,0,0,0,42-41.71q9.68-11.23,18.61-23.11T1123.09,141q2.14-3.22,4.22-6.47c3.5-.28,7-.65,10.47-1.23a65,65,0,0,0,16.42-4.83c5.33-2.29,9.8-6.19,13.76-10.21,2-2,4-4,6.12-5.77a28.78,28.78,0,0,1,7-4.28A27.09,27.09,0,0,1,1185,107c.67-.13,1.33-.33,2-.39l2.06-.21a47.69,47.69,0,0,1,8.32.16,130.24,130.24,0,0,1,16.59,3c5.51,1.26,11,2.59,16.69,3.43a72.41,72.41,0,0,0,17.15.57,82.94,82.94,0,0,0,16.84-3.25,117,117,0,0,0,16-6.1c20-9.23,37.64-22.32,56.67-32.7,1.11,3.37,2.32,6.71,3.62,10,1.78,4.59,3.68,9.13,5.6,13.66,3.86,9,7.95,18,12,26.9s7.88,17.92,11.36,27c1.73,4.56,3.38,9.14,4.86,13.78s2.76,9.32,3.87,14a136.75,136.75,0,0,1,3.74,28.71,112.82,112.82,0,0,1-3.12,28.63c-4.51,18.75-13.62,36.18-25.35,51.44A192.88,192.88,0,0,1,1312,325.34a223.73,223.73,0,0,1-24.67,15.07c-7.67,4-15.74,7.59-23.79,11.44-2.13-1-4.26-2.1-6.37-3.19s-4.3-2.26-6.44-3.41q-.65-3.92-1.28-7.88c-1.44-9.06-2.76-18.18-5.19-27.48a72.86,72.86,0,0,0-2.24-7.05,35.1,35.1,0,0,0-3.65-7.27,19,19,0,0,0-3.19-3.66A13.67,13.67,0,0,0,1230,289a12.82,12.82,0,0,0-3.16-.5l-2,0c-1.19,0-2.38,0-3.57,0a254.16,254.16,0,0,0-56.36,7.25,244.69,244.69,0,0,0-53.51,19.37c-4.26,2.12-8.44,4.42-12.57,6.8-2.07,1.18-4.1,2.43-6.13,3.69-1,.62-2,1.27-3,1.92s-2,1.23-3.11,2a77.29,77.29,0,0,0-21.27,22.27c-1.36,2.08-2.59,4.22-3.8,6.33s-2.29,4.28-3.36,6.42c-2.15,4.27-4.1,8.54-6.08,12.7s-4,8.21-6.3,12a45.64,45.64,0,0,1-7.9,10.06c-.26.24-.53.46-.8.68h11.39c1.67-1.66,3.26-3.36,4.82-5.06l9.46-10.49c3.13-3.43,6.27-6.77,9.41-10q2.36-2.39,4.75-4.65c1.56-1.53,3.17-3,4.74-4.41a147.28,147.28,0,0,1,19-14.8l2.67-1.68c.93-.58,1.85-1.17,2.79-1.73l5.63-3.38c1.88-1.13,3.78-2.22,5.69-3.3s3.81-2.18,5.73-3.24q11.51-6.4,23.42-12.18,5.94-2.91,12-5.6c4-1.79,8.1-3.56,12.22-5.17,16.44-6.5,33.63-11.62,51.18-13.45,1.1-.13,2.19-.21,3.29-.31l1.43-.13.23,0a1.57,1.57,0,0,1,.84.37,7.26,7.26,0,0,1,1.41,1.4A24.11,24.11,0,0,1,1232,307a62.23,62.23,0,0,1,2.32,5.89c2.79,8.25,4.76,17.17,6.81,26.06l.28,1.25a104,104,0,0,0-16.25-7.07,64,64,0,0,0-9.89-2.38l-2.63-.35-2.68-.2c-1.78-.05-3.58-.12-5.37,0a58.27,58.27,0,0,0-20.88,5,79.32,79.32,0,0,0-17.34,10.8,120.79,120.79,0,0,0-13.79,13.17c-4.16,4.56-7.89,9.25-11.45,13.87q-2.65,3.49-5.16,6.92c-1.67,2.27-3.32,4.61-4.94,6.7q-5,6.8-10.4,13.3h40.53c1.93-2.68,3.79-5.33,5.67-7.93,3.17-4.48,6.3-8.79,9.44-12.89,6.3-8.16,12.78-15.41,19.89-20.19a36.16,36.16,0,0,1,11.3-5.19,32.19,32.19,0,0,1,6.26-1,42,42,0,0,1,6.87.2c7.84.82,16.48,3.66,25.44,6.5.12.45.26.91.38,1.36a105.56,105.56,0,0,0-11.4,7.79,75.58,75.58,0,0,0-11.2,10.84,78.78,78.78,0,0,0-8.61,13c-1.32,2.48-2.52,5-3.64,7.5h10.11q.78-1.64,1.61-3.24a69.79,69.79,0,0,1,7.44-11.58,66.75,66.75,0,0,1,9.77-9.7,96,96,0,0,1,8.56-6.21c.41,1.14.86,2.28,1.34,3.42a36.69,36.69,0,0,0,3.57,6.64,17.7,17.7,0,0,0,2.76,3.12,11.09,11.09,0,0,0,4.06,2.32,9.56,9.56,0,0,0,2.45.41,10.46,10.46,0,0,0,1.22,0l.88-.1,3.46-.41c4.61-.62,9.21-1.29,13.8-2.06s9.19-1.57,13.78-2.53c4-.81,8.12-1.57,12.22-2.45l9.41,2.49a125.53,125.53,0,0,0,17.06,3.59,51.2,51.2,0,0,0,9.07.28,36.35,36.35,0,0,0,9.1-1.74c5.91-1.91,11-5.21,15.68-8.67s8.92-7.17,13.32-10.74L1400,348.23v-7l-21.44,17c-4.45,3.49-8.86,7.12-13.29,10.35s-9.08,6-14,7.49a35.54,35.54,0,0,1-15.42.92,108.57,108.57,0,0,1-14.29-3.19c.8-.32,1.61-.64,2.39-1,17.28-8.35,32.44-20.55,45.59-33.87,1.66-1.66,3.27-3.34,4.88-5l1.19-1.26.6-.63.74-.82a28.23,28.23,0,0,0,2.67-3.61,30.94,30.94,0,0,0,3.45-8,43.15,43.15,0,0,0,1.35-8,90.5,90.5,0,0,0-.26-14.76c-.39-4.7-.93-9.23-1.27-13.63a76.15,76.15,0,0,1-.16-12.66,31.79,31.79,0,0,1,1-5.67,22.93,22.93,0,0,1,.87-2.56c.29-.72.85-1.82,1.31-2.78A152.4,152.4,0,0,1,1399.53,237l.47-.63V218.84c-3.25,3.73-6.41,7.56-9.43,11.53-3.25,4.29-6.34,8.74-9.22,13.34.82-2.79,1.55-5.61,2.18-8.46a118.5,118.5,0,0,0,2.79-29.73,140.53,140.53,0,0,0-4.25-29.45c-4.81-19.25-12.66-37.42-20.69-55.3-4-9-8.09-17.86-11.93-26.85q-2.87-6.75-5.48-13.58c-1.34-3.45-2.56-6.92-3.68-10.43a250.35,250.35,0,0,1,37.65-16.16q3.52.52,7,1.12,7.57,1.29,15,3V53.33q-6.49-1.4-13-2.45,6.47-1.94,13-3.57ZM1268.15,379l-3.37.26-.82.06h-.49a3.59,3.59,0,0,1-.91-.2,7.74,7.74,0,0,1-3.47-3.27,29,29,0,0,1-2.66-5.55c-.55-1.49-1-3-1.48-4.62q1.91-1.1,3.87-2.16,17.43,5.27,34.87,10.08A98.43,98.43,0,0,1,1268.15,379Zm102.38-94.78c.29,4.72.74,9.29,1,13.72a78.43,78.43,0,0,1,0,12.66,23.14,23.14,0,0,1-3.05,10.12,15.11,15.11,0,0,1-1.42,1.88l-.41.45-.59.61-1.18,1.22c-1.57,1.61-3.14,3.22-4.73,4.78a185.86,185.86,0,0,1-20,17.38q-5.28,3.93-10.87,7.35c-3.71,2.31-7.58,4.32-11.4,6.42s-7.56,4.45-11.43,6.68c-.7.4-1.41.79-2.11,1.19a327.7,327.7,0,0,1-31.51-12.36c6-2.94,12-5.87,18-9.15a220.63,220.63,0,0,0,25.16-16.1,199.71,199.71,0,0,0,42.3-41.91,159.67,159.67,0,0,0,12.24-19.38A88.73,88.73,0,0,0,1370.54,284.18ZM1074.35,137.48c1.58-4.3,2.83-8.72,4.26-13.06a69,69,0,0,1,5.2-12.52,29.22,29.22,0,0,1,8.43-9.73,31.28,31.28,0,0,1,11.54-4.94,64,64,0,0,1,12.87-1.29c4.39,0,8.84.11,13.37.19,1.31,0,2.64.1,4,.19q-8.53,19.14-18.6,37.55c-3.87.18-7.75.34-11.62.58-5.67.31-11.3,1.06-16.92,1.69q-6.32.77-12.62,1.64ZM185.56,89.16c13.21-.69,26.08-2.42,38.73-4.36s25-4.15,37.42-5.87a710.36,710.36,0,0,1,74.74-6.79c15.59-.54,31.2-.46,46.74.39-1.46,2.95-3,5.85-4.63,8.72-3.45,6.15-7.22,12.15-11,18.15-7.55,12-15.3,24-21.2,37.14a113.16,113.16,0,0,0-7,20.42,106.2,106.2,0,0,0,5.35,63.86A116.06,116.06,0,0,0,355,239.94,162.56,162.56,0,0,0,368.2,257.1c15.83,18.07,34.31,33.27,50.61,50a83.4,83.4,0,0,1-13.61-1.85A107.66,107.66,0,0,1,378.06,295a150.94,150.94,0,0,1-24.18-16.22q-5.66-4.6-10.93-9.66c-3.52-3.35-6.85-6.91-10.34-10.33a66.57,66.57,0,0,0-11.36-9.27,33,33,0,0,0-13.52-4.89c-.64-1.48-1.33-2.94-2.09-4.37a56.87,56.87,0,0,0-10.07-13.39,100.87,100.87,0,0,0-12.88-10.52c-9.07-6.3-18.83-11.2-28.44-15.88-20-9.57-40.11-18.92-60.2-28.28a73.78,73.78,0,0,0-5.32-8.65q-3.18-4.49-6.74-8.6c-2.38-2.76-4.78-5.36-7.14-8a125.23,125.23,0,0,1-12.92-16.32,53.9,53.9,0,0,1-4.64-9,36.3,36.3,0,0,1-2.27-9.66c-.68-6.58,1.05-13.3,3.45-19.78.42-1.12.86-2.24,1.31-3.36A186.38,186.38,0,0,0,185.56,89.16ZM138.6,146l-14.41-6.91c-4.78-2.32-9.66-4.61-14.29-6.94a87.17,87.17,0,0,1-13-7.74,43.43,43.43,0,0,1-5.38-4.71,31.31,31.31,0,0,1-4.12-5.45c-2.28-3.81-3.49-8.45-4.61-13.58-.56-2.55-1.12-5.24-1.84-8-.35-1.39-.82-2.76-1.27-4.13-.23-.69-.44-1.38-.69-2.06l-.82-2a77.19,77.19,0,0,0-19.77-27.7A106.7,106.7,0,0,0,30.2,38.53c-5-2.23-10.13-4.22-15.27-6.07l-.32-.11A51.85,51.85,0,0,1,28.4,31a63.72,63.72,0,0,1,15.87,2.71,76.17,76.17,0,0,1,15.31,6.65c5.11,2.81,10.16,6.06,15.23,9.52,10.16,6.92,20.42,14.71,32,21.65a129.35,129.35,0,0,0,18.43,9.3,113.06,113.06,0,0,0,20,5.88c3.33.67,6.65,1.19,10,1.59-.31.74-.61,1.49-.9,2.24a68,68,0,0,0-3.24,10.51,39,39,0,0,0-.83,11.23,41.23,41.23,0,0,0,2.36,11,59,59,0,0,0,4.89,10,130.24,130.24,0,0,0,13.13,17.3c2.33,2.7,4.7,5.36,6.9,8s4.3,5.44,6.23,8.27l.38.58Q161.32,156.88,138.6,146Zm53.77,99.47a57.6,57.6,0,0,1-1.83-19.82,42.07,42.07,0,0,1,2-9.58c1-3.07,2.56-6.2,4-9.62a46.59,46.59,0,0,0,1.9-5.42c.29-.95.42-1.93.62-2.9.09-.49.2-1,.26-1.46l.13-1.48a35.63,35.63,0,0,0-.75-10.86c17.18,8.2,34.37,16.4,51.61,24.44,9.6,4.46,19,9.08,27.6,14.68A96.76,96.76,0,0,1,290,232.73a116.41,116.41,0,0,1,10.64,10.85l.62.75a55.19,55.19,0,0,0-8.44,1,115.26,115.26,0,0,0-14.11,3.89q-13.88,4.62-27.48,10T224.39,270.8c-4.43,2-8.82,4.16-13.18,6.33l-2.64,1.32C201.25,268.35,195.39,257.32,192.36,245.5Zm8.1,63.88c-12.09,1.59-24,3.31-35.95,4.62q.47-.76,1-1.51a57.1,57.1,0,0,1,4.38-5.83,70,70,0,0,1,5-5.32,118.67,118.67,0,0,1,23.55-17.16c.89-.51,1.79-1,2.7-1.51q1.4,2.11,2.84,4.19c4.84,7,10,13.63,15.12,20.21C212.83,307.77,206.63,308.57,200.47,309.39Zm77.43-4.21a251.9,251.9,0,0,0-39.17,0c-2,.14-4,.31-6.05.48a248.59,248.59,0,0,1-21.69-24q-1.16-1.51-2.27-3l2.61-1.3c4.37-2.15,8.76-4.26,13.19-6.29q13.28-6.1,26.89-11.45t27.49-9.92A114.77,114.77,0,0,1,293,245.88a53.93,53.93,0,0,1,8.8-1,59.19,59.19,0,0,1,7.51,11.61,37.75,37.75,0,0,1,3.64,15.32c.07,5.35-1.3,10.56-2.28,15.78a61.12,61.12,0,0,0-1.1,7.91,25.23,25.23,0,0,0,.63,8,21.45,21.45,0,0,0,3.39,7.24c.58.81,1.21,1.57,1.86,2.32A153.58,153.58,0,0,0,277.9,305.17Zm172.24,46.48c5,12.41,6.92,26,7.83,39.82.06.86.1,1.72.15,2.58a415.72,415.72,0,0,0-40.67-24.42c-18.85-10.13-38.06-19.34-56.92-29.21L358,339.06c-2-2-4.1-3.9-6.28-5.71a115.87,115.87,0,0,0-34.91-19.84l-.54-.18a29,29,0,0,1-2.41-2.84,21.13,21.13,0,0,1-3.45-7.08,25.06,25.06,0,0,1-.76-7.89,60.82,60.82,0,0,1,1.06-7.9c1-5.22,2.2-10.45,2.29-15.79a66.26,66.26,0,0,0-1.6-16A64.74,64.74,0,0,0,308,245.24a32.55,32.55,0,0,1,12.92,4.8,65.94,65.94,0,0,1,11.22,9.21c3.47,3.41,6.78,7,10.31,10.36s7.16,6.64,10.94,9.73a151.77,151.77,0,0,0,24.26,16.38A108.58,108.58,0,0,0,405,306.17a84.08,84.08,0,0,0,14.85,2c2.89,3,5.71,6,8.42,9.14C437.38,327.73,445.18,339.18,450.14,351.65Zm414.14-9.09-3.29-1.7c-1.05-.54-2.11-1.07-3.14-1.66s-2.08-1.13-3.11-1.73l-3.08-1.8c-16.34-9.78-31.27-22.34-47.79-33.31A148.53,148.53,0,0,0,777,288.64a195.15,195.15,0,0,0-28.61-8.82,186.5,186.5,0,0,0-59.64-4q-7.49.75-14.92,2.16a119.29,119.29,0,0,0-42,16.25c-1.06.68-2.14,1.32-3.18,2s-2.16,1.44-3,2a29.54,29.54,0,0,1-5.84,3,36.29,36.29,0,0,1-6.48,1.81,47.19,47.19,0,0,1-6.88.66c-9.38.19-19-1.91-28.4-4.28s-18.9-5.11-28.65-6.28a206.69,206.69,0,0,0-29.28-1.26c-4.88.07-9.75.23-14.62.37s-9.75.32-14.63.66a144.36,144.36,0,0,0-14.58,1.69A98.75,98.75,0,0,0,462,298.19c-9.29,3-18.31,6.85-27.93,8.18q-1.76.27-3.53.45c-8.74-8.77-18-16.77-27.21-24.73-10.74-9.27-21.34-18.57-30.89-28.81S354.57,231.71,348.93,219a99,99,0,0,1-8.39-40.55,101,101,0,0,1,2.24-20.75,105.3,105.3,0,0,1,6.57-19.87C355,125,362.57,113,370,100.93c3.73-6,7.46-12.1,10.9-18.36,1.79-3.23,3.5-6.51,5.09-9.86,8.41.51,16.79,1.23,25.15,2.22A356.66,356.66,0,0,1,483.9,91a290,290,0,0,1,34.44,14.15,275.22,275.22,0,0,1,32.32,18.51q7.76,5.17,15.17,10.85c4.93,3.8,9.72,7.75,14.43,11.87,9.4,8.27,18.51,17,27.94,25.64s19.2,17,30,24.32a132.24,132.24,0,0,0,16.95,9.83,100.53,100.53,0,0,0,18.55,6.78,55.63,55.63,0,0,0,10.2,1.15c3.25.13,6.44.17,9.62.2,6.36,0,12.67,0,19,.16a369,369,0,0,1,37.59,2.33A231,231,0,0,1,786.83,224a164.93,164.93,0,0,1,34.55,14.12A134.47,134.47,0,0,1,874,290a171.81,171.81,0,0,1,14.76,34.52,227.11,227.11,0,0,1,6.5,28.23l-3.29,4.83c-2.62,3.88-5.2,7.87-7.67,12q-.83,1.42-1.64,2.87a31.6,31.6,0,0,0,.18-3.74,26.15,26.15,0,0,0-1.52-8.51,26.9,26.9,0,0,0-4.22-7.55A39.19,39.19,0,0,0,864.28,342.56ZM1114.41,135.7a402.31,402.31,0,0,1-31.89,48.75,337.11,337.11,0,0,1-39.42,43.05c-7.22,6.56-14.74,12.82-22.39,18.93s-15.44,12.07-23.12,18.17-15.38,12.21-22.76,18.7a254.58,254.58,0,0,0-21.2,20.53c-1.39,1.5-2.74,3-4.06,4.57a435.71,435.71,0,0,1,33.29-36c3.19-3.13,7.09-6.49,9.91-11.46a22.3,22.3,0,0,0,2.65-8.19,23.94,23.94,0,0,0-.54-8.29,38.85,38.85,0,0,0-2.5-7.22c-1-2.24-2.1-4.34-3.19-6.39A107.61,107.61,0,0,1,983.3,219a29,29,0,0,1-1.65-6,20.06,20.06,0,0,1,0-5.94,22.79,22.79,0,0,1,5.19-11,42.87,42.87,0,0,1,9.82-8.5,69.13,69.13,0,0,1,11.89-6.08c8.44-3.27,17.17-6.18,25.74-9.45a136.17,136.17,0,0,0,12.63-5.48,75.17,75.17,0,0,0,11.74-7.11,44.51,44.51,0,0,0,9.57-9.77c.52-.73,1-1.48,1.48-2.24-.47.76-1,1.51-1.49,2.23a44.47,44.47,0,0,1-9.61,9.71,61.54,61.54,0,0,1-11.86,6.82,121.55,121.55,0,0,1-12.85,4.71c-8.72,2.74-17.65,4.68-26.45,7.55a72.27,72.27,0,0,0-12.89,5.63,47.3,47.3,0,0,0-11.4,8.74,31.72,31.72,0,0,0-4.42,6,25.25,25.25,0,0,0-3.18,14.88,35.3,35.3,0,0,0,1.54,7.37,120.61,120.61,0,0,0,5.37,13.09c1.83,4.11,3.55,8.15,4.12,11.95a13.62,13.62,0,0,1-1.92,10c-1.92,2.93-5.16,5.56-8.73,8.53a448.6,448.6,0,0,0-38.21,35.82,39.82,39.82,0,0,0-7.62-15.87,46.64,46.64,0,0,0-6.55-6.76c-1.19-.94-2.36-2-3.59-2.8l-1.82-1.31-1.84-1.22c-4.93-3.24-9.89-6-14.52-8.92a53.16,53.16,0,0,1-12.26-10.06,33.16,33.16,0,0,1-6.94-13.66,42.3,42.3,0,0,1-.69-15.8,55.08,55.08,0,0,1,13.69-29A75.07,75.07,0,0,1,908,184.24a102.88,102.88,0,0,1,14.49-8.31c10.11-4.82,20.85-8.38,31.65-11.64a755.18,755.18,0,0,1,119.49-25.37,44.86,44.86,0,0,1-3.76,8.16q1-1.6,1.79-3.28c.77-1.6,1.46-3.24,2.1-4.9q6.59-.85,13.2-1.61c5.63-.59,11.23-1.3,16.87-1.58,3.6-.21,7.2-.34,10.81-.49Zm165.34-33.45a114.86,114.86,0,0,1-15.66,6.1,81,81,0,0,1-16.42,3.28,70.44,70.44,0,0,1-16.71-.49c-5.55-.8-11-2.1-16.57-3.33a131.86,131.86,0,0,0-16.82-2.95c-.71-.08-1.43-.13-2.14-.16s-1.43-.11-2.15-.09l-2.17,0a14.58,14.58,0,0,0-2.17.11l-2.16.24c-.72.07-1.43.29-2.14.43a28.74,28.74,0,0,0-4.19,1.27,30.4,30.4,0,0,0-7.41,4.57c-2.24,1.83-4.2,3.91-6.21,5.9-3.94,4-8.16,7.73-13.28,10a63.57,63.57,0,0,1-16,4.79c-3.08.52-6.18.89-9.3,1.17q11-17.32,20.84-35.43c2.73.22,5.48.4,8.27.48a65.06,65.06,0,0,0,14.52-1,34.7,34.7,0,0,0,7.33-2.29,24.94,24.94,0,0,0,6.72-4.36,22.79,22.79,0,0,0,2.74-3l.59-.81.51-.75q.51-.75,1-1.52a70.75,70.75,0,0,0,3.55-6.28c2.16-4.25,3.75-8.6,5.93-11.93a17.4,17.4,0,0,1,3.89-4.28,24.26,24.26,0,0,1,5.23-3,46.6,46.6,0,0,1,6.08-2.11c1-.31,2.12-.55,3.2-.82l3.32-.72c2.22-.46,4.41-1,6.65-1.39l6.69-1.22c2.23-.38,4.48-.69,6.72-1s4.49-.63,6.75-.9c4.5-.59,9-1,13.56-1.41,2.26-.19,4.54-.33,6.8-.48s4.54-.28,6.81-.37a497.7,497.7,0,0,1,54.66.66l.92.06a184.07,184.07,0,0,0,4.54,18.41c.15.5.32,1,.47,1.5C1317.19,79.67,1299.54,93,1279.75,102.25Zm59.76-34.86c-.08-.28-.18-.56-.26-.84a168,168,0,0,1-4.14-17.2c7.6.54,15.19,1.22,22.78,2q7.12.69,14.18,1.61A250.69,250.69,0,0,0,1339.51,67.4Z"/><path class="cls-1" d="M1069.67,147.46l.23-.37Z"/></g></g></svg>