<svg xmlns="http://www.w3.org/2000/svg" viewBox="0 0 1400 400"><defs><style>.cls-1{fill:#faebc3;}</style></defs><title>资源 22</title><g id="图层_2" data-name="图层 2"><g id="图层_1-2" data-name="图层 1"><path class="cls-1" d="M1397.52,14.24c-2.5,4.73-4.52,9.32-6.4,13.86-3.71,9.08-6.69,18-9.44,27-1.37,4.47-2.65,9-3.89,13.43s-2.47,8.94-3.65,13.41L1373,86.34a32.87,32.87,0,0,0-9,5,49,49,0,0,0-9.32,9.79c-5.25,7.26-9.08,15.25-12.46,23.24s-6.26,16-9.18,24-5.7,15.78-8.78,23.25a155.29,155.29,0,0,1-10.56,21.13,122.2,122.2,0,0,1-11.54,15.82,56.2,56.2,0,0,1-13.63.57c-9.16-.67-18.11-2.88-26.87-5.53s-17.36-5.92-26-9.21-17.21-6.66-26.1-9.54-18.06-5.42-28.17-5.52a58.35,58.35,0,0,0-14.3,2c-4.6,1.06-9.14,2.28-13.61,3.7-8.91,2.92-17.72,6.38-25.77,11.45a44.29,44.29,0,0,0-5.73,4.31,18,18,0,0,0-4.45,5.8,9.16,9.16,0,0,0-.82,3.67,24.28,24.28,0,0,0,.42,3.54,39.44,39.44,0,0,0,2,6.68c1.69,4.3,3.87,8.36,5.86,12.52s4,8.36,4.73,12.91a17.11,17.11,0,0,1-2.84,12.92c-2.59,3.69-6.33,6.35-9.91,9.27-7.18,5.83-14.11,12-20.88,18.3a473.9,473.9,0,0,0-38.41,40.41q-9,10.69-17.4,22c-5.56,7.54-11,15.1-16,23.35q-2,3.28-3.87,6.73a34.62,34.62,0,0,0,1.41-10,26.15,26.15,0,0,0-1.52-8.51,26.9,26.9,0,0,0-4.22-7.55,39.19,39.19,0,0,0-12.77-10.14l-3.29-1.7c-1.05-.54-2.11-1.07-3.14-1.66s-2.08-1.13-3.11-1.73l-3.08-1.8c-16.35-9.78-31.27-22.34-47.79-33.31A148.52,148.52,0,0,0,916,288.64a195.16,195.16,0,0,0-28.61-8.82,186.5,186.5,0,0,0-59.64-4l-2.54.28c-4.14-.37-8.27-.77-12.38-1.26a229.07,229.07,0,0,1-31.68-5.66,147.33,147.33,0,0,1-29.49-11l-3.47-1.83-3.54-2-3.54-2-3.51-2q-3.52-2-7-4.11c-2.34-1.38-4.67-2.75-7-4.17l-28-17.09c-18.83-11.41-38.3-22.58-59.41-31.18a240,240,0,0,0-32.5-10.7,263.33,263.33,0,0,0-33.56-6.26,323.21,323.21,0,0,0-33.87-2.33c-11.28-.19-22.53.17-33.71.85s-22.28,1.88-33.32,3.25-22,3.07-32.89,4.85c-21.8,3.62-43.35,7.78-64.83,11.76q-14.33,2.64-28.64,5a100,100,0,0,1-2.3-21.84,101,101,0,0,1,2.24-20.75,105.3,105.3,0,0,1,6.57-19.87C355,125,362.57,113,370,100.93c3.73-6,7.46-12.1,10.9-18.36a149.81,149.81,0,0,0,9.18-19.39,87.11,87.11,0,0,0,5.31-20.88c.15-1.8.39-3.59.41-5.4,0-.9.09-1.8.08-2.71l-.06-2.71a68,68,0,0,0-1.33-10.75,70.49,70.49,0,0,0-8-20.74h-2.61a68.55,68.55,0,0,1,8.29,21.21,65.66,65.66,0,0,1,1.23,10.36l0,2.61c0,.87-.06,1.74-.09,2.61,0,1.74-.26,3.48-.41,5.21a84.64,84.64,0,0,1-5.25,20.26,146.65,146.65,0,0,1-9.18,19c-3.45,6.15-7.22,12.15-11,18.15-7.55,12-15.3,24-21.2,37.13a113.13,113.13,0,0,0-7,20.42,104.56,104.56,0,0,0-2.61,21.47,108.39,108.39,0,0,0,2,22.55q-7.78,1.25-15.56,2.35l-8.05,1.09-4,.51c-1.24.14-2.47.3-3.73.39a139.41,139.41,0,0,1-16.29.3c.13-7.16.11-14.38-.33-21.64-.3-5-.78-10.07-1.54-15.11a137.62,137.62,0,0,0-3.16-15,141.35,141.35,0,0,0-4.86-14.51c-1.86-4.74-4-9.34-6.32-13.86A206.88,206.88,0,0,0,259,99.81a270.78,270.78,0,0,0-18.93-23.36c-3.39-3.72-6.92-7.34-10.61-10.81a150.86,150.86,0,0,0-11.66-9.84,115.83,115.83,0,0,0-26.63-15.36c-3-1.23-6.1-2.3-9.21-3.26L192,14c2.08-4.77,4.21-9.5,6.71-14h-3.55c-2.27,4.14-4.25,8.41-6.15,12.66l-10.5,23.51A106.75,106.75,0,0,0,161.52,33a174.26,174.26,0,0,0-30.07-.25c-9.93.64-19.75,1.61-29.56,2.41L87.18,36.41c-4.9.43-9.79.93-14.69,1.4Q58.43,39.22,44.4,41A113.16,113.16,0,0,0,32,35.52,220,220,0,0,0,0,26.73H0V41.62c3.42,1.28,6.8,2.62,10.13,4-3.38.51-6.76,1-10.13,1.56v2.44q7.22-1.09,14.45-2.11c3.45,1.56,6.85,3.2,10.13,4.94a94.7,94.7,0,0,1,12.28,7.71A82.93,82.93,0,0,1,47.55,69.5,62.12,62.12,0,0,1,61.85,91.77c.36,1,.67,2,1,3s.54,2,.78,3.11c.49,2.19,1,4.68,1.51,7.44a82.72,82.72,0,0,0,2.28,9.06c.52,1.63,1.15,3.32,1.89,5l.6,1.29.31.64.26.52,1,2A65.21,65.21,0,0,0,82.73,139.1a66.35,66.35,0,0,0,15.16,11.21,101.8,101.8,0,0,0,16.47,7q4.14,1.38,8.25,2.53c1.37.41,2.74.73,4.1,1.12s2.61.6,3.91.92c2.59.65,5.14,1.41,7.66,2.23l7.59,2.42c5,1.65,10.08,3.33,15.09,5.08,10,3.47,19.92,7.26,29.74,11.24l1,.43c.17.59.33,1.18.47,1.78a29.66,29.66,0,0,1,.7,5.69L179.53,188l-32.26-6.68c-5.37-1.13-10.76-2.18-16.15-3.22s-10.79-2-16.2-2.9a216.28,216.28,0,0,0-32-3.27,179.08,179.08,0,0,1,31.91,3.76c21.5,4.27,42.5,10.63,63.42,17.22q7,2.21,14.06,4.45a16.18,16.18,0,0,1-.43,1.83,39.86,39.86,0,0,1-1.72,4.59c-1.34,3.11-3,6.32-4.33,10a49.24,49.24,0,0,0-2.56,11.16,63.86,63.86,0,0,0,.82,18.71c-1-.59-2.08-1.19-3.12-1.78a399.27,399.27,0,0,0-40.41-19.67c-13.82-5.81-28-10.82-42.27-15.24a540.06,540.06,0,0,0-87.74-18.67Q5.28,187.59,0,187V201.7c2.95.28,5.89.56,8.83.88a526.69,526.69,0,0,1,86,16.28,407.15,407.15,0,0,1,81.09,32.32q6.2,3.31,12.25,6.85a103,103,0,0,0,4.42,10.11,158.1,158.1,0,0,0,11.39,18.72c8.31,11.95,17.44,23,26.13,34.28q6.57,8.45,13.22,16.84c4.44,5.59,8.91,11.16,13.51,16.61q13.76,16.4,28.68,31.75c4.79,4.87,9.65,9.32,14.59,13.66H331.3l-.41-.33q-5.73-4.66-11.33-9.47a216.2,216.2,0,0,1-13.94-32,263.09,263.09,0,0,1-7.9-28.86c3.24,1.47,6.52,2.85,9.86,4.11a147,147,0,0,0,21.88,6.34,51.19,51.19,0,0,0,6,.77c1.92.15,3.82.24,5.7.31,3.76.13,7.48.17,11.19.19l5,0,1.25.74,27.73,16c9.24,5.31,18.45,10.66,27.53,16.2s18,11.22,26.73,17.24c4.11,2.87,8.19,5.78,12.16,8.81h19c-.29-3.21-.6-6.44-1-9.68a194.48,194.48,0,0,0-3.54-21.7A112.58,112.58,0,0,0,460.83,349l1.19.24a256.19,256.19,0,0,1,42,12.4,189.82,189.82,0,0,1,38.61,20.49A161.5,161.5,0,0,1,564.17,400h5.34q-3.42-3.66-7-7.13a169,169,0,0,0-17.3-14.28A194.49,194.49,0,0,0,505.94,357a261.1,261.1,0,0,0-42.72-13.31c-1.59-.36-3.18-.69-4.77-1,4.88.06,9.75.11,14.64.07,6.39-.08,12.78-.28,19.17-.76,12.76-.95,25.58-3,37.84-7.13s23.69-9.89,35.6-13.86a133.36,133.36,0,0,1,36.94-6.4,330.43,330.43,0,0,1,37.91.93c12.68.89,25.42,2,38.28,2.31s25.84-.08,38.68-2.33c1.6-.27,3.2-.62,4.8-.93a28.8,28.8,0,0,0,5-1.48,38,38,0,0,0,8.75-5.07l.85-.65a71.4,71.4,0,0,0,8.34,1.26,52.47,52.47,0,0,0,7.71.14,42.46,42.46,0,0,0,7.8-1.24,36,36,0,0,0,7.52-2.85c1.27-.65,2.21-1.16,3.28-1.73s2.11-1.07,3.16-1.61c.64-.32,1.29-.62,1.94-.93.6.27,1.2.55,1.79.84,2.83,1.36,5.57,2.91,8.27,4.53,5.4,3.25,10.61,6.84,15.93,10.35,2.66,1.75,5.33,3.52,8.08,5.21,1.38.85,2.77,1.67,4.19,2.48l4.13,2.35c5.48,3.15,11,6.44,16.55,9.62a191.77,191.77,0,0,0,17.35,9,178.22,178.22,0,0,0,37.29,12,185.93,185.93,0,0,0,19.42,3,192.09,192.09,0,0,0,19.65.84c1.64,0,3.28,0,4.92-.1l4.92-.23c3.27-.2,6.5-.49,9.68-.77,6.35-.56,12.54-1.11,18.54-1.07a71.75,71.75,0,0,1,8.82.57,45.41,45.41,0,0,1,8.26,1.83,35.13,35.13,0,0,1,14,8.14,22.84,22.84,0,0,1,4.45,6.11,22.11,22.11,0,0,1,2.06,7.22,44.3,44.3,0,0,1-.06,9.38c-.36.54-.71,1.09-1.09,1.63a82.44,82.44,0,0,1-5.16,6.68h58.25c3.78-1.14,7.51-2.27,11.27-3.25,4-1,8-2,12-2.7a115.49,115.49,0,0,1,12.16-1.53,98.24,98.24,0,0,1,12.21-.07c2,.13,4.06.31,6.08.57a23.74,23.74,0,0,0,7.23,0,22.52,22.52,0,0,0,6.86-2.36,28.78,28.78,0,0,0,5.69-4,58.58,58.58,0,0,0,8.6-10.06c3.47-5,6.51-10.08,9.65-15.07q9.18-1.7,18.35-3.46c-6.12,5.17-11.92,10.54-17.58,15.9-3.39,3.19-6.74,6.38-10.13,9.46A134.92,134.92,0,0,1,1129,392a41.64,41.64,0,0,1-5.38,3.41c-.45.23-.9.45-1.34.64l-.85.37c-.3.13-.61.27-.91.42a28.35,28.35,0,0,0-3.57,2c-.52.35-1,.73-1.54,1.13h14.94c1-.62,2-1.26,2.94-1.92,4-2.72,7.65-5.6,11.34-8.42s7.35-5.59,11.07-8.25a184.69,184.69,0,0,1,23-14.2c15.84-8.14,32.37-13.2,48.67-14.66,2-.17,4.08-.33,6.12-.4.93,0,2.24-.07,3.45-.1s2.44-.07,3.66-.14c1.93-.1,3.87-.25,5.81-.43,14.33,6.35,28.68,12.65,43,19.06,7.72,3.44,15.39,7,23.39,9.83s16.35,4.9,24.94,5a65.29,65.29,0,0,0,12.79-1.05c2.81-.49,5.58-1.1,8.34-1.76,5.31,4.62,10.65,9.29,16.19,13.81q2.22,1.81,4.5,3.59h17.25a188,188,0,0,1-16.28-10.7c-4-2.93-8-6-12-9.1,2.25-.56,4.49-1.1,6.73-1.57a97.48,97.48,0,0,1,12.3-1.81,93.26,93.26,0,0,1,12.48-.16v-5a102.35,102.35,0,0,0-12.94.95,105.84,105.84,0,0,0-12.65,2.61c-3,.8-6,1.71-8.9,2.61-6.28-4.92-12.6-9.9-19.18-14.6a169.62,169.62,0,0,0-18.47-11.66,105.83,105.83,0,0,0-39-12.26,89.27,89.27,0,0,0,7.92-5l12.12-8.44c3.94-2.82,7.73-5.77,11.38-8.75s7.17-6,10.69-8.75c7-5.57,14.19-10.37,22.46-11.4a31.43,31.43,0,0,1,6.27-.2q1.59.11,3.19.33c1.06.16,2.12.34,3.26.59,4.48.9,8.92,2,13.32,3.16a168.52,168.52,0,0,1,20.55,7v-5.33c-6.29-2.44-12.67-4.63-19.09-6.66-4.44-1.4-8.89-2.74-13.36-4-1.09-.32-2.28-.65-3.47-.95s-2.41-.53-3.64-.73a43.81,43.81,0,0,0-7.52-.53,46.39,46.39,0,0,0-14.9,2.85,108.61,108.61,0,0,0-13.36,6c-8.44,4.4-16.34,8.81-24.41,12.35-2,.88-4,1.76-6.08,2.48a65.05,65.05,0,0,1-6.28,1.85c-2.12.52-4.24,1-6.34,1.43s-4.17,1-6.21,1.52c-8.12,2.35-16.44,3.94-24.84,5.49L1237.78,326c-1.07.19-2.14.37-3.22.54s-2.07.36-3.43.53c-2.55.33-5.07.8-7.58,1.31a109.11,109.11,0,0,0-21.05,6.78c-2.45-.51-4.93-.94-7.43-1.22a54.23,54.23,0,0,0-25.3,2.68,35,35,0,0,0-10.9,7.08,77.09,77.09,0,0,0-8.63,9.59c-2.28,2.93-4.41,5.94-6.53,8.94L1138,363.3l-21.11,3.86c-3.52.62-7,1.28-10.59,1.73s-7.12.77-10.7,1-7.16.49-10.71.86c-1.78.17-3.55.35-5.32.58s-3.47.42-5.2.53a40.73,40.73,0,0,1-10.14-.56,19.75,19.75,0,0,1-8.7-3.78c-.16-.13-.31-.28-.46-.42a31.09,31.09,0,0,1,7.47-5.23c3.78-1.9,7.87-3.07,11.81-4.59a37.72,37.72,0,0,0,11-6.27,47.78,47.78,0,0,0,8.49-9.37c2.4-3.48,4.74-7,7.19-10.44q7.26-10.39,14.92-20.49c2-2.66,4-5.31,6.09-7.95q8.48-2.76,17.17-4.89a325.84,325.84,0,0,1,41.61-7.3c7-.78,14.06-1.36,21.11-1.8s14.12-.65,21.19-.71c14.12-.17,28.55.47,43.16-.8a120,120,0,0,0,21.8-3.71,82.18,82.18,0,0,0,20.54-8.68,87.06,87.06,0,0,0,9.11-6.35q4.3-3.48,8.19-7.34a165,165,0,0,0,14.22-16.43c4.39-5.71,8.54-11.55,12.73-17.35s8.37-11.59,12.9-17.1a137.47,137.47,0,0,1,14.63-15.6,89.13,89.13,0,0,1,17.47-12.33c.71-.4,1.43-.77,2.16-1.14v0c-.73.37-1.47.74-2.19,1.13a101.06,101.06,0,0,0-9.19,5.54,98.79,98.79,0,0,0-8.5,6.56c-2.73,2.32-5.36,4.76-7.87,7.32s-5,5.17-7.34,7.86c-4.74,5.39-9.28,10.94-13.76,16.52s-8.94,11.17-13.64,16.5a159,159,0,0,1-14.85,15.09q-4,3.44-8.23,6.46a84.62,84.62,0,0,1-8.85,5.36,75.42,75.42,0,0,1-19.31,6.89,123.89,123.89,0,0,1-20.6,2.53c-14,.64-28.16-.23-42.65-.25a380.33,380.33,0,0,0-43.33,2.51c-7.19.87-14.38,1.89-21.51,3.24s-14.22,2.95-21.25,4.82q-2.77.75-5.52,1.57l.08-.1c5.33-6.54,10.84-13,16.6-19.1,2.89-3.07,5.85-6.06,8.95-8.88a51.54,51.54,0,0,1,9.9-7.42,73.75,73.75,0,0,1,11.44-5,48.63,48.63,0,0,1,12.08-2.09,94.92,94.92,0,0,1,24.59,2.65c2,.45,4.06.93,6.07,1.45s4,1.09,6.09,1.65a67.92,67.92,0,0,0,13.45,2.26,78.76,78.76,0,0,0,27.22-3.21,97.92,97.92,0,0,0,24.81-11.51,114.28,114.28,0,0,0,21-17.34,110.23,110.23,0,0,0,16.38-21.95,121.44,121.44,0,0,0,10.19-24.11c4.06-5,8-10.22,11.81-15.48,5.48-7.53,10.83-15.21,16.11-23,10.52-15.53,20.78-31.42,30.44-47.44h0L1400,93V9.81C1399.11,11.31,1398.29,12.78,1397.52,14.24ZM374.59,214.07c43.53-6.44,86.48-14.24,129.32-17,10.7-.7,21.38-1.08,32-.94s21.24.61,31.74,1.76a268,268,0,0,1,31.17,5.16A236.83,236.83,0,0,1,629,212.14c9.88,3.68,19.6,8.05,29.25,12.75s19.19,9.85,28.78,15,19.19,10.54,29,15.7c4.88,2.58,9.79,5.16,14.79,7.59l3.74,1.84,3.78,1.79,3.78,1.78,3.94,1.75A147.36,147.36,0,0,0,778.82,280c5.82,1,11.64,1.74,17.46,2.25a124.14,124.14,0,0,0-25.47,12l-1.61,1a49.58,49.58,0,0,0-8.52-1.15,29.3,29.3,0,0,0-9.78,1.28,51.14,51.14,0,0,0-9,3.91c-2.37,1.26-4.67,2.56-6.93,3.81a156.5,156.5,0,0,1-17.9-3.65c-9.43-2.37-18.9-5.11-28.65-6.28a206.69,206.69,0,0,0-29.28-1.26c-4.88.07-9.75.23-14.62.37s-9.75.32-14.63.66a144.35,144.35,0,0,0-14.58,1.69A98.73,98.73,0,0,0,601,298.19c-9.29,3-18.31,6.85-27.93,8.18a78.91,78.91,0,0,1-28.86-1.14A107.66,107.66,0,0,1,517.06,295a151,151,0,0,1-24.18-16.22q-5.66-4.6-10.93-9.66c-3.52-3.35-6.85-6.91-10.34-10.33a66.58,66.58,0,0,0-11.36-9.27,33,33,0,0,0-13.77-4.93,46.75,46.75,0,0,0-14.62.78,115.29,115.29,0,0,0-14.12,3.89q-13.88,4.62-27.48,10-4.25,1.69-8.48,3.46c-3.2-3.07-6.32-6.21-9.34-9.44C362.94,243,354.57,231.71,348.93,219c-.18-.41-.36-.83-.53-1.25Q361.53,216,374.59,214.07ZM352.4,333.71l-4.9-.12-2.05-1.12c-4.64-2.62-9.26-5.26-13.83-8a90.13,90.13,0,0,1-13.15-9,25.39,25.39,0,0,1-7.75-10.91c1-1.11,2.05-2.2,3.14-3.24a118.69,118.69,0,0,1,23.55-17.16c4.22-2.43,8.55-4.67,12.92-6.81s8.76-4.26,13.19-6.29q6.19-2.85,12.46-5.52c17.21,17.95,36.45,33.54,52.28,51.73a135.71,135.71,0,0,1,16.33,22.79q-12.71-2.1-25.52-3.36c-14.81-1.48-29.68-2.21-44.51-2.58ZM308.42,222c1.48,0,3-.17,4.46-.27l4.15-.38,8.28-.84q8.27-.88,16.5-1.92l1.94-.25q.48,1.23,1,2.44A116.08,116.08,0,0,0,355,239.94,162.56,162.56,0,0,0,368.2,257.1q3.67,4.19,7.52,8.19-6.2,2.68-12.33,5.51c-4.43,2-8.82,4.16-13.18,6.33s-8.69,4.42-12.91,6.86a120.91,120.91,0,0,0-23.56,17.23c-1.07,1-2.09,2.09-3.08,3.18a18.59,18.59,0,0,1-.56-2.09c-1.12-5.24-.2-10.64.81-15.83.51-2.62,1.06-5.22,1.47-7.86a57.27,57.27,0,0,0,.65-8,64.78,64.78,0,0,0-2-16A61.86,61.86,0,0,0,305,239.19,56.83,56.83,0,0,0,294.67,226c-1.32-1.26-2.68-2.47-4.06-3.65l0-.75A138.06,138.06,0,0,0,308.42,222Zm-12.67,97.23q-1.59-8.82-2.7-17.73a436.32,436.32,0,0,1-3-58.26c0-3.44.1-6.88.19-10.32,1.53,1.34,3,2.71,4.48,4.15q2.73,2.65,5.25,5.55a60.9,60.9,0,0,1,8.8,12.78,38,38,0,0,1,4.06,15.22c.27,5.35-1,10.6-2,15.81a73,73,0,0,0-1.24,7.9,28,28,0,0,0,.3,8,19.72,19.72,0,0,0,.58,2.23c-.59.65-1.19,1.3-1.76,2a57.21,57.21,0,0,0-4.39,5.85,49.07,49.07,0,0,0-4.64,8.81C298.38,320.58,297.06,319.93,295.75,319.26ZM187.32,49.81A105.56,105.56,0,0,1,211.5,64,162,162,0,0,1,232.31,83.5,263,263,0,0,1,250.45,106a196.46,196.46,0,0,1,15.18,24.34,141.06,141.06,0,0,1,10.59,26.32,127.5,127.5,0,0,1,3,13.81c.75,4.68,1.24,9.42,1.59,14.2.48,6.76.6,13.58.57,20.45q-2.66-.2-5.33-.45c-5.45-.52-10.92-1.19-16.4-1.94q-3.19-1.62-6.39-3.17-28.81-14-58.3-26.88l-.9-.39a73.64,73.64,0,0,0-5.36-8.73q-3.18-4.49-6.74-8.6c-2.38-2.76-4.78-5.36-7.14-8a125.22,125.22,0,0,1-12.92-16.32,53.89,53.89,0,0,1-4.64-9,36.3,36.3,0,0,1-2.27-9.66c-.68-6.58,1.05-13.3,3.45-19.78,1.21-3.26,2.6-6.48,4-9.74l4.2-9.78,8.41-19.56L178,46.44C181.13,47.44,184.26,48.54,187.32,49.81Zm-22,110.27-14.86-6.14-7.43-3.05c-2.48-1-5-2-7.39-3.17-1.21-.57-2.43-1.16-3.62-1.77s-2.28-1.08-3.39-1.68c-2.24-1.13-4.38-2.42-6.46-3.74a77.11,77.11,0,0,1-11.27-8.85,75.41,75.41,0,0,1-8.76-9.9,94.65,94.65,0,0,1-6.95-10.94l-1.46-2.68c-.36-.73-.71-1.51-1-2.41-.68-1.78-1.29-3.92-1.94-6.36s-1.3-5.16-2.17-8.13c-.43-1.48-1-3-1.49-4.55s-1.15-3-1.81-4.48A80.72,80.72,0,0,0,62.66,52.94a99.36,99.36,0,0,0-14-9.68q12.06-1.36,24.14-2.5C92.3,39.1,112,36.9,131.45,38.27A222.29,222.29,0,0,1,160.16,42c4.79,1,9.54,2.06,14.19,3.37l-2.76,6.17L162.89,71l-4.35,9.71c-1.45,3.24-2.92,6.51-4.23,9.89a68,68,0,0,0-3.24,10.51,39,39,0,0,0-.83,11.23,41.23,41.23,0,0,0,2.36,11,59,59,0,0,0,4.89,10,130.18,130.18,0,0,0,13.13,17.3c2.33,2.7,4.7,5.36,6.9,8s4.3,5.44,6.23,8.27c.27.39.52.79.78,1.19Q175,164.07,165.36,160.08Zm33.69,26.25c7.83,3.29,15.6,6.72,23.36,10.21q-11.43-2.13-22.87-4.43A35.85,35.85,0,0,0,199.05,186.33Zm-6.69,59.17a57.6,57.6,0,0,1-1.83-19.82,42.08,42.08,0,0,1,2-9.58c1-3.07,2.56-6.2,4-9.62a46.59,46.59,0,0,0,1.9-5.42,15.6,15.6,0,0,0,.38-1.63c14.11,4.47,28.28,8.87,42.7,12.7q8,2.17,16.18,4,5.67,1.29,11.41,2.36c2.63,1.43,5.21,2.91,7.73,4.47,1.45.91,2.86,1.85,4.26,2.81-.12,5.79-.22,11.61-.18,17.45a456.61,456.61,0,0,0,3.64,59.39c.51,3.82,1.1,7.63,1.74,11.44a354.64,354.64,0,0,1-31.89-21.43c-11.82-8.73-23.46-17.87-35.57-26.58q-12.32-8.95-25.4-16.92C193,247.93,192.68,246.72,192.36,245.5ZM300.18,372.12q-14.67-15.29-29.91-30c-5.06-4.94-10.2-9.82-15.32-14.72l-15.3-14.77c-10.12-10-20.2-19.89-28.64-30.88a122.42,122.42,0,0,1-10.65-16.24q6.49,4.13,12.82,8.54c12,8.36,23.79,17.3,35.89,25.94s24.55,17,37.88,24.09l1.27.64A276.31,276.31,0,0,0,298,360.79q1,3,2.15,5.9.52,3.25,1.06,6.51Zm3.68,3.72c-.84-.82-1.65-1.65-2.46-2.48-.33-2-.66-4-1-6Q302.05,371.63,303.86,375.85Zm37.56-42.49c-1.81-.09-3.61-.2-5.37-.37a44.08,44.08,0,0,1-5-.71A139.21,139.21,0,0,1,310.45,326c-3.59-1.42-7.12-3-10.6-4.67a48.9,48.9,0,0,1,4.64-8.79,57.12,57.12,0,0,1,4.38-5.83c.55-.65,1.12-1.27,1.69-1.9a21.21,21.21,0,0,0,2.38,5,30.78,30.78,0,0,0,5.24,6.07c4,3.63,8.54,6.47,13,9.33s8.92,5.61,13.42,8.34C343.55,333.45,342.48,333.41,341.42,333.36Zm108.72,18.29c5,12.41,6.92,26,7.83,39.82.07,1,.12,2.06.18,3.09l-.35-.24c-4.44-3.07-9-6-13.54-8.82-9.13-5.69-18.48-10.94-27.91-16s-18.93-9.93-28.44-14.77l-14.25-7.26-12.25-6.4,13,.06c14.73.15,29.42.65,44,1.9,9.87.84,19.7,2,29.46,3.61C448.74,348.29,449.47,350,450.14,351.65Zm275.13-44a32.79,32.79,0,0,1-4.2,1.14c-1.53.3-3,.64-4.58.92-12.28,2.23-24.9,2.71-37.52,2.45s-25.32-1.26-38.08-2-25.62-1.27-38.51-.49a137.9,137.9,0,0,0-38,7.36c-12.21,4.34-23.53,10.28-35.38,14.57a154.6,154.6,0,0,1-36.92,8c-6.31.66-12.65,1.06-19,1.33-5.27.24-10.55.39-15.83.53a118,118,0,0,0-8.3-13.36,164.19,164.19,0,0,0-14-16.85c-10-10.56-20.83-19.9-31.56-29.2-7.24-6.25-14.42-12.53-21.25-19.09q4.15-1.71,8.33-3.37,13.6-5.34,27.49-9.92A114.78,114.78,0,0,1,432,245.88a46.19,46.19,0,0,1,14.45-.73A32.33,32.33,0,0,1,459.92,250a65.93,65.93,0,0,1,11.22,9.21c3.47,3.41,6.78,7,10.31,10.36s7.16,6.64,10.94,9.73a151.76,151.76,0,0,0,24.26,16.38A108.57,108.57,0,0,0,544,306.17a79.92,79.92,0,0,0,29.23,1.25c9.78-1.33,18.9-5.19,28.13-8.13a114.22,114.22,0,0,1,28.57-5.08c4.85-.33,9.71-.48,14.58-.61s9.74-.26,14.61-.32a205.36,205.36,0,0,1,29.08,1.34,109.38,109.38,0,0,1,14.25,2.8c4.69,1.23,9.33,2.69,14,4.17,4.48,1.41,9,2.85,13.57,4.1A44.92,44.92,0,0,1,725.28,307.65Zm39.34-9.38a29.53,29.53,0,0,1-5.84,3,36.28,36.28,0,0,1-6.48,1.81,47.18,47.18,0,0,1-6.88.66c-1.29,0-2.59,0-3.9-.06.69-.56,1.39-1.11,2.09-1.64a33.69,33.69,0,0,1,8-4.75c4.78-2,10.1-1.63,15.16-.43C766,297.39,765.23,297.89,764.62,298.27ZM988,349.66a53.73,53.73,0,0,0-10.41-2.17,83.28,83.28,0,0,0-10.25-.5c-6.75.06-13.27.77-19.6,1.43-3.17.33-6.29.66-9.37.9l-4.63.29c-1.54.1-3.09.11-4.63.17a182,182,0,0,1-37-2.85,172.67,172.67,0,0,1-18.09-4.28,185,185,0,0,1-17.55-6.19c-11.43-4.65-22.36-11.1-33.69-17.14l-4.25-2.24c-1.38-.71-2.75-1.47-4.14-2.2l-8.39-4.51c-5.64-3-11.42-5.89-17.36-8.46-2.7-1.17-5.44-2.27-8.21-3.28a167.28,167.28,0,0,1,20.61-7.42,152.34,152.34,0,0,1,27.67-5.66,176.92,176.92,0,0,1,56.56,3.53,185.72,185.72,0,0,1,27.25,8.27,139.42,139.42,0,0,1,25.2,12.72c16,10.46,31.17,23,48.39,33.16l3.24,1.87c1.09.61,2.2,1.2,3.29,1.8s2.22,1.16,3.33,1.73l3.22,1.63a30.74,30.74,0,0,1,10.07,7.77,17.63,17.63,0,0,1,4,10.92c0,.14,0,.28,0,.42a34.83,34.83,0,0,0-6.54-8.8A46.79,46.79,0,0,0,988,349.66Zm50.28,30c2.59-5.44,5.54-10.89,8.63-16.31a15.75,15.75,0,0,0,4.71,7.16,75.49,75.49,0,0,0-6.83,9.13c-.58.89-1.17,1.79-1.7,2.72s-1.13,1.82-1.65,2.76l-1.59,2.8a12.49,12.49,0,0,1-1.65,2.33,4.53,4.53,0,0,1-5,1.58A124.76,124.76,0,0,1,1038.32,379.69Zm267.89-32.13c13.25,4.55,25.06,12.35,36.09,21.11,4.82,3.83,9.52,7.85,14.23,11.93a66,66,0,0,1-43.5-1c-8-2.6-15.77-6-23.52-9.35-14.38-6.2-28.7-12.51-43.05-18.78,2.93-.28,5.86-.65,8.77-1.14a133,133,0,0,0,27.53-8A108.1,108.1,0,0,1,1306.2,347.55Zm-153.39,7.62a71.54,71.54,0,0,1,7.77-9.69,32.82,32.82,0,0,1,9.9-7.14,43.57,43.57,0,0,1,5.86-2.05,45.41,45.41,0,0,1,6.11-1.27,57.82,57.82,0,0,1,12.54-.3c2.2.18,4.38.47,6.56.84q-3.3,1.47-6.49,3.13a146.76,146.76,0,0,0-24.41,16.3c-1.09.88-2.14,1.78-3.2,2.67q-9.3,1.83-18.62,3.59C1150.13,359.2,1151.44,357.17,1152.82,355.17Zm-89.35,20.55a45,45,0,0,0,11.25.26,102.42,102.42,0,0,0,10.74-1.76c3.51-.76,7-1.65,10.47-2.56s7-1.79,10.46-2.54,7-1.35,10.55-2l21.12-3.77,5.54-1c-2.72,3.87-5.4,7.72-8.27,11.34a53.74,53.74,0,0,1-8.35,8.73A19.71,19.71,0,0,1,1117,387a15.93,15.93,0,0,1-2.65.08c-.44,0-.89-.08-1.33-.11l-1.4-.23c-2.15-.39-4.32-.69-6.5-.93a93.73,93.73,0,0,0-13.12-.46,124.59,124.59,0,0,0-25.78,3.77c-4.19,1-8.32,2.18-12.38,3.38s-8.08,2.43-12,3.35a43.82,43.82,0,0,1-5.63,1h-.2a8.58,8.58,0,0,0,2.71-1.46,10.18,10.18,0,0,0,2.5-3,17.85,17.85,0,0,0,1.34-3.24l1-3c.74-2,1.51-3.92,2.41-5.81a49.64,49.64,0,0,1,5.81-9.63c.23.2.46.4.69.59A24.32,24.32,0,0,0,1063.46,375.72Zm37.37-44.62c-2.42,3.46-4.75,7-7.12,10.49a46.53,46.53,0,0,1-8.41,9.41,37.69,37.69,0,0,1-10.94,6.27c-3.94,1.52-8,2.7-11.8,4.6a34.11,34.11,0,0,0-7.52,5.19,11.23,11.23,0,0,1-3.62-7.08,15.23,15.23,0,0,1,.18-4.61q6.35-10.65,13.31-21a108.38,108.38,0,0,1,16.22-12.66,154.76,154.76,0,0,1,18.33-10.17,198.56,198.56,0,0,1,21.47-8.46C1114.07,312.34,1107.41,321.69,1100.84,331.1Zm198.88-119.82a137.08,137.08,0,0,1-17.08,16,103.19,103.19,0,0,1-19.77,12.34,68,68,0,0,1-22.3,6.38,56.07,56.07,0,0,1-11.75,0c-4.16-.51-8.51-1.06-12.77-1.43-8.57-.72-17.27-1.11-25.92,0a54.07,54.07,0,0,0-12.66,3.16,87.18,87.18,0,0,0-11.55,5.66,53.25,53.25,0,0,0-10.14,8c-3.07,3-6,6.05-8.8,9.21-5.64,6.33-10.95,12.92-16.17,19.58l-.85,1.1q-7,2.12-13.82,4.64a188.18,188.18,0,0,0-20,8.84A174.14,174.14,0,0,0,1079,314.93q9.87-12.9,20.78-25c6.12-6.82,12.49-13.43,19-19.89,3.19-3.26,6.73-6.5,9.12-10.63a17.92,17.92,0,0,0,2.31-6.65,20.91,20.91,0,0,0-.28-6.94c-1.84-9.15-7.72-16.71-10.46-25.5a28.88,28.88,0,0,1-1.33-6.7c0-.56,0-1.13-.05-1.69s0-1.14.09-1.66a7.25,7.25,0,0,1,1-2.94,15.91,15.91,0,0,1,4.47-4.61,37,37,0,0,1,5.76-3.33,85.67,85.67,0,0,1,12.65-4.67q6.51-1.9,13.17-3.25c4.43-.92,8.88-1.73,13.34-2.33,2.23-.3,4.46-.54,6.66-.76s4.38-.5,6.43-.68a62.61,62.61,0,0,1,12.91.85c4.39.66,8.8,1.63,13.21,2.7,8.82,2.16,17.65,4.77,26.5,7.34S1252,203.7,1261,205.8s18.18,3.78,27.44,4a62.72,62.72,0,0,0,13.46-1Q1300.83,210,1299.72,211.28ZM1358.78,135A209,209,0,0,1,1342,172.39c1.85-6.78,3.29-13.53,4.66-20.2,1.67-8.31,3.31-16.54,5.29-24.59s4.4-15.88,8.32-22.86a38.51,38.51,0,0,1,7.15-9.36,25.76,25.76,0,0,1,4-3.11C1367.58,106.67,1363.68,121,1358.78,135Z"/><path class="cls-1" d="M183.82,307a129,129,0,0,0-14.51-3.55c-4.86-1-9.74-1.77-14.6-2.54-9.72-1.54-19.41-2.87-28.89-4.87s-18.78-4.72-26.9-9.5a45.51,45.51,0,0,1-10.84-8.73L87,276.51c-.34-.42-.66-.85-1-1.31-.64-.93-1.25-1.94-1.86-3l-3.67-6.37A101.94,101.94,0,0,0,72,253.37,74.08,74.08,0,0,0,61.39,242.5a68.84,68.84,0,0,0-12.74-8.39,91.73,91.73,0,0,0-14.1-5.72A167,167,0,0,0,5,222.14c-1.67-.2-3.34-.38-5-.54V231c1.47,0,2.93,0,4.4,0A137.81,137.81,0,0,1,33,234.06a72.47,72.47,0,0,1,13.52,4.46,51.46,51.46,0,0,1,6.26,3.33,52,52,0,0,1,5.8,4.1,60.64,60.64,0,0,1,9.91,10.2,99.39,99.39,0,0,1,7.82,12.09c1.2,2.11,2.35,4.27,3.61,6.44.63,1.09,1.29,2.18,2,3.28.37.55.78,1.11,1.21,1.65l1.26,1.49a50.5,50.5,0,0,0,11.94,9.8,75.71,75.71,0,0,0,13.84,6.36,130.89,130.89,0,0,0,14.47,4.09c9.73,2.2,19.52,3.59,29.23,5,4.85.7,9.69,1.43,14.49,2.22s9.54,1.8,14.27,2.8A135.3,135.3,0,0,1,196.73,315a46.78,46.78,0,0,1,13.08,6.49,38.44,38.44,0,0,1,3.71,3.09c-1.17-1.12-2.35-2.21-3.61-3.23A80.15,80.15,0,0,0,183.82,307Z"/><path class="cls-1" d="M231,341.93l-10.45-10.4-5.21-5.21-.51-.49.5.5,5.18,5.24,10.28,10.57q10.25,10.6,20.36,21.33c11.58,12.24,23.14,24.5,35,36.53h6.34q-20.31-18.55-40.31-37.53Q241.5,352.29,231,341.93Z"/><path class="cls-1" d="M67,171.93c5.32-.15,10.65-.15,16,0C77.61,171.77,72.28,171.78,67,171.93Z"/><path class="cls-1" d="M67,171.93q-8.8.25-17.58,1C55.21,172.45,61.08,172.11,67,171.93Z"/></g></g></svg>