<?xml version="1.0" encoding="utf-8"?>
<!-- Generator: Adobe Illustrator 21.0.0, SVG Export Plug-In . SVG Version: 6.00 Build 0)  -->
<svg version="1.1" id="图层_1" xmlns="http://www.w3.org/2000/svg" xmlns:xlink="http://www.w3.org/1999/xlink" x="0px" y="0px"
	 viewBox="0 0 528.2 491.9" style="enable-background:new 0 0 528.2 491.9;" xml:space="preserve">
<style type="text/css">
	.st0{fill:#FAEBC3;}
</style>
<title>资源 2</title>
<g id="图层_2">
	<g id="图层_1-2">
		<path class="st0" d="M506.1,353c0,0-77.9,48.5-185,48.5c-98.5,0-193.8-54.9-193.8-150.6c0-35.4,14-60.8,27.3-60.8
			c1,0,24.1,12.2,24.1,13.2c0,2.8-12.8,21.5-12.8,53.5c0,46.1,33.7,112.2,107.3,132.4c-32.8-12.7-53.4-44.2-53.4-75
			c0-36.5,27.9-62.9,63.6-62.9c43.5,0,81.4,38.1,81.4,80.3c0.1,20.3-8.8,38.9-24.8,50.6c-3,2.2-10.1,4.8-18.5,4.8
			c-19.7,0-29-12.7-37.7-29.5c4.5,3.3,18.2,11,30,11c33.8,0,38-30,38-36c0-24.8-22.1-48.5-53.2-48.5c-22,0-37.8,14.7-37.8,42.6
			c0,35.5,17.3,69.1,64.7,69.1c83.2,0,154.4-46.2,186.6-103.2c0,0,16-19.3,16-57.9c0-9.3-0.9-18.6-2.6-27.7
			c-7.8,7.6-9.9,15.9-9.9,24c0,9,2.5,17.7,2.5,24.9c0,11.9-9.6,15.6-16.2,15.6c-16,0-35.4-20.1-50.3-20.1c-16,0,3,47.6-23.3,86.6
			c-6.8,12.5-27.1,23.8-28.5,25.5c0.6-2.3,0.8-4.7,0.8-7.1c0-34.7-42.6-85.3-64.8-99.9c30-6,20-18,44-33l0,0
			c1.3,0,18.7,14.4,29.1,92.4c0.4,2.9,3.1,4.9,6,4.6c2-0.3,3.7-1.6,4.3-3.6c3.4-9.9,5.2-20.2,5.2-30.6c0-32.3-17.1-53.7-17.1-72.9
			c0-5.3,2-7.4,5.3-7.4c15.3,0,55.3,26.6,69.9,26.6c3,0,6.4-2.5,7.9-9.6c17.4-80.6-20-142.8-89.2-173.1c-8.7-6.1-118.5-50-225.9-50
			C62.5,0,0,41.9,0,41.9s10.2,33.4,34.9,33.4c25.2,0,62.3-48.8,144-48.8c74.4,0,145.4,58.6,190.4,58.6c9.6,0,15.5-2.9,15.5-2.9l0,0
			c0.3-0.1,0.7-0.1,1-0.1c2,0,3,1.4,3,3.5c0,9.8-16.2,24-40,24c-42.9,0-79.6-50.5-175.1-50.5c-112.9,0-167,57.5-167,151.1
			c0,147.1,232.4,281.7,307,281.7c7,0,9.9-1.4,10.8-2c0.2-0.1,0.3-0.3,0.3-0.6c0-0.7,0-1.3,0-2c0-20.2,8.4-40.5,8.4-41.1l0,0
			c-1.5-18.2-282,2.8-282-238.2c0-73.9,24-123.5,98.4-123.5c57.9,0,103.8,55,150.3,55c7.2,0,18-2,24.4-11.3h0.1
			c1.5,0,2.4,1.7,2.4,4.2c0,11.6-15.4,28-41.4,28c-39.1,0-87.6-34.2-131.5-34.2c-49.2,0-83.2,29.8-83.2,95.7
			c0,140.6,145.2,198.6,284.2,198.6c54.7,0,154.2,2.2,166.5-30.2C521.4,390.4,516.3,353,506.1,353z"/>
	</g>
</g>
</svg>
