<svg xmlns="http://www.w3.org/2000/svg" viewBox="0 0 131.6 117.33"><defs><style>.cls-1{fill:#faebc3;}</style></defs><title>资源 25</title><g id="图层_2" data-name="图层 2"><g id="图层_1-2" data-name="图层 1"><path class="cls-1" d="M81.12,98.63c20.74,0,38.48-11.51,46.49-25.71,0,0,4-4.81,4-14.42A39,39,0,0,0,131,51.6a7.84,7.84,0,0,0-2.47,6c0,2.24.63,4.42.63,6.19a3.78,3.78,0,0,1-4,3.89c-4,0-8.81-5-12.53-5-2.22,0-4,1.79-5,7.51a41.05,41.05,0,0,1-3.74,15.06,24.2,24.2,0,0,1-4.11,5.36,6.8,6.8,0,0,0,.19-1.77c0-8.66-9.62-21.75-15.16-25.38,7.47-1.49,4-4,10-7.72h0c.36,0,5.36,4.18,7.81,27.82a25.23,25.23,0,0,0,3.3-12.17c0-8.06-4.27-13.37-4.27-18.15,0-1.31.49-1.85,1.32-1.85,3.81,0,14.78,11.37,18.41,11.37a2.1,2.1,0,0,0,2-2.39c0-4.42-6.33-13.84-6.33-21.4A9,9,0,0,1,122,30.41,53.69,53.69,0,0,0,100,12.47C97.77,10.93,70.43,0,43.67,0,15.57,0,0,10.45,0,10.45s2.54,8.33,8.7,8.33S24.23,6.63,44.57,6.63c18.54,0,36.24,14.6,47.43,14.6a9.37,9.37,0,0,0,3.85-.73h0l.26,0c.49,0,.73.34.73.87,0,2.45-4,6-10,6-10.69,0-19.83-12.58-43.62-12.58-28.12,0-41.62,14.32-41.62,37.64,0,36.65,59.91,65,78.49,65,2.19,0,2.76-.54,2.76-.54q0-.29,0-.58A33.23,33.23,0,0,1,85,106h0c-.37-4.53-72.26,5.92-72.26-54.12,0-18.4,6-30.76,24.53-30.76,14.43,0,25.85,13.7,37.46,13.7A7.18,7.18,0,0,0,80.79,32h0c.36,0,.59.41.59,1.05,0,2.89-3.84,7-10.3,7-9.75,0-21.82-8.53-32.76-8.53-12.25,0-20.74,7.43-20.74,23.85,0,35,35.73,47.94,70.38,47.94,13.62,0,38.11-3.16,41.16-11.22,0,0-1.26-9.32-3.8-9.32,0,0-18.67,17.33-45.34,17.33-24.55,0-48.28-13.69-48.28-37.52,0-8.82,3.5-15.14,6.81-15.14a47,47,0,0,1,6,3.28c0,.7-3.19,5.36-3.19,13.33,0,11.49,8.41,28,26.74,33-8.17-3.17-13.31-11-13.31-18.68,0-9.1,7-15.67,15.84-15.67,10.85,0,20.28,9.5,20.28,20a15.42,15.42,0,0,1-6.18,12.6,8.53,8.53,0,0,1-4.6,1.19,9.13,9.13,0,0,1-8.39-5.35,12.54,12.54,0,0,0,6.79,2.27c8.41,0,9.16-9,9.16-10.49,0-6.17-5.51-12.08-13.26-12.08-5.49,0-9.41,3.66-9.41,10.63C65,90.25,69.32,98.63,81.12,98.63Z"/></g></g></svg>