<?xml version="1.0" encoding="UTF-8" standalone="no"?>
<!DOCTYPE svg PUBLIC "-//W3C//DTD SVG 1.1//EN" "http://www.w3.org/Graphics/SVG/1.1/DTD/svg11.dtd">
<svg width="100%" height="100%" viewBox="0 0 1576 2844" version="1.1" xmlns="http://www.w3.org/2000/svg" xmlns:xlink="http://www.w3.org/1999/xlink" xml:space="preserve" style="fill-rule:evenodd;clip-rule:evenodd;stroke-linejoin:round;stroke-miterlimit:1.41421;">
    <g id="画板1" transform="matrix(1,0,0,1.82308,53,129.438)">
        <rect x="-53" y="-71" width="1576" height="1560" style="fill:none;"/>
        <clipPath id="_clip1">
            <rect x="-53" y="-71" width="1576" height="1560"/>
        </clipPath>
        <g clip-path="url(#_clip1)">
            <g id="图层-1" transform="matrix(1,0,0,0.548523,-53,-71)">
                <g transform="matrix(1.17425,0,0,1.17425,-127.695,-409.3)">
                    <circle cx="1487.5" cy="1215.5" r="582.5" style="fill:rgb(26,230,193);"/>
                </g>
                <g transform="matrix(0.413734,0,0,0.413734,463.571,71.1064)">
                    <circle cx="1487.5" cy="1215.5" r="582.5" style="fill:rgb(204,58,11);"/>
                </g>
            </g>
            <g id="图层-11" transform="matrix(1.26981,0,0,0.723229,-53,-71)">
                <g transform="matrix(0.787518,0,0,0.673,-242.556,-84.4383)">
                    <rect x="536" y="2820" width="1158" height="506" style="fill:rgb(204,58,11);"/>
                </g>
                <g transform="matrix(1.07602,0,0,0.51035,-1.78554,-173.264)">
                    <rect x="-2" y="607" width="838" height="107" style="fill:rgb(204,58,11);"/>
                </g>
                <g transform="matrix(0.885769,0,0,0.355304,-93.4985,70.0905)">
                    <rect x="102" y="362" width="521" height="111" style="fill:rgb(42,111,177);"/>
                </g>
                <g transform="matrix(0.787518,0,0,0.758437,-175.715,-467.107)">
                    <text x="664px" y="778px" style="font-family:'Futura-Medium', 'Futura', sans-serif;font-weight:500;font-size:200px;fill:none;">1<tspan x="773.082px 896.52px " y="778px 778px ">30</tspan>00t</text>
                    <text x="664px" y="778px" style="font-family:'Futura-Medium', 'Futura', sans-serif;font-weight:500;font-size:200px;fill:rgb(204,58,11);">1<tspan x="773.082px 896.52px " y="778px 778px ">30</tspan>00t</text>
                </g>
                <g transform="matrix(0.787518,0,0,0.758437,-56.4859,-101.631)">
                    <text x="72px" y="204px" style="font-family:'Futura-Medium', 'Futura', sans-serif;font-weight:500;font-size:80.028px;fill:none;">Y<tspan x="114.906px 159.179px 207.165px 238.309px 258.941px " y="204px 204px 204px 204px 204px ">early</tspan></text>
                    <text x="72px" y="283.367px" style="font-family:'Futura-Medium', 'Futura', sans-serif;font-weight:500;font-size:80.028px;fill:none;">r<tspan x="101.385px 145.659px 194.544px 238.153px 258.082px 287.467px 331.741px " y="283.367px 283.367px 283.367px 283.367px 283.367px 283.367px 283.367px ">equirem</tspan>ent</text>
                    <text x="72px" y="204px" style="font-family:'Futura-Medium', 'Futura', sans-serif;font-weight:500;font-size:80.028px;fill:rgb(204,58,11);">Y<tspan x="114.906px 159.179px 207.165px 238.309px 258.941px " y="204px 204px 204px 204px 204px ">early</tspan></text>
                    <text x="72px" y="283.367px" style="font-family:'Futura-Medium', 'Futura', sans-serif;font-weight:500;font-size:80.028px;fill:rgb(204,58,11);">r<tspan x="101.385px 145.659px 194.544px 238.153px 258.082px 287.467px 331.741px " y="283.367px 283.367px 283.367px 283.367px 283.367px 283.367px 283.367px ">equirem</tspan>ent</text>
                </g>
                <g transform="matrix(0.787518,0,0,0.758437,-52.5679,153.204)">
                    <text x="72px" y="204px" style="font-family:'Futura-Medium', 'Futura', sans-serif;font-weight:500;font-size:80.028px;fill:none;">Entir<tspan x="232.33px 276.604px " y="204px 204px ">e </tspan>colllect of</text>
                    <text x="72px" y="283.367px" style="font-family:'Futura-Medium', 'Futura', sans-serif;font-weight:500;font-size:80.028px;fill:none;">giving blood</text>
                    <text x="72px" y="204px" style="font-family:'Futura-Medium', 'Futura', sans-serif;font-weight:500;font-size:80.028px;fill:rgb(204,58,11);">Entir<tspan x="232.33px 276.604px " y="204px 204px ">e </tspan>colllect of</text>
                    <text x="72px" y="283.367px" style="font-family:'Futura-Medium', 'Futura', sans-serif;font-weight:500;font-size:80.028px;fill:rgb(204,58,11);">giving blood</text>
                </g>
                <g transform="matrix(0.787518,0,0,0.758437,402.126,770.859)">
                    <text x="72px" y="204px" style="font-family:'Futura-Medium', 'Futura', sans-serif;font-weight:500;font-size:72px;fill:none;">Man<tspan x="222.715px 261.844px " y="204px 204px ">y </tspan>person who donat<tspan x="878.309px 918.141px " y="204px 204px ">ed</tspan></text>
                    <text x="72px" y="283.367px" style="font-family:'Futura-Medium', 'Futura', sans-serif;font-weight:500;font-size:72px;fill:none;">blood, so t<tspan x="423.105px 462.586px 501.188px 540.316px " y="283.367px 283.367px 283.367px 283.367px ">hey </tspan>ha<tspan x="645.82px 680.766px 720.598px " y="283.367px 283.367px 283.367px ">ve </tspan>high</text>
                    <text x="72px" y="362.734px" style="font-family:'Futura-Medium', 'Futura', sans-serif;font-weight:500;font-size:72px;fill:none;">posibility t<tspan x="403.77px 447.047px " y="362.734px 362.734px ">o </tspan>ge<tspan x="552.832px 572.52px 594.738px 638.719px 677.953px " y="362.734px 362.734px 362.734px 362.734px 362.734px ">t qua</tspan>lif<tspan x="779.871px 797.801px " y="362.734px 362.734px ">ic</tspan>ations.</text>
                    <text x="72px" y="442.101px" style="font-family:'Futura-Medium', 'Futura', sans-serif;font-weight:500;font-size:72px;fill:none;">But most of t<tspan x="475.066px 514.547px " y="442.101px 442.101px ">he</tspan>m did no<tspan x="843.223px " y="442.101px ">t</tspan></text>
                    <text x="72px" y="521.468px" style="font-family:'Futura-Medium', 'Futura', sans-serif;font-weight:500;font-size:72px;fill:none;">continue donat<tspan x="556.875px 596.707px " y="521.468px 521.468px ">e </tspan>blood.</text>
                    <text x="72px" y="204px" style="font-family:'Futura-Medium', 'Futura', sans-serif;font-weight:500;font-size:72px;fill:white;">Man<tspan x="222.715px 261.844px " y="204px 204px ">y </tspan>person who donat<tspan x="878.309px 918.141px " y="204px 204px ">ed</tspan></text>
                    <text x="72px" y="283.367px" style="font-family:'Futura-Medium', 'Futura', sans-serif;font-weight:500;font-size:72px;fill:white;">blood, so t<tspan x="423.105px 462.586px 501.188px 540.316px " y="283.367px 283.367px 283.367px 283.367px ">hey </tspan>ha<tspan x="645.82px 680.766px 720.598px " y="283.367px 283.367px 283.367px ">ve </tspan>high</text>
                    <text x="72px" y="362.734px" style="font-family:'Futura-Medium', 'Futura', sans-serif;font-weight:500;font-size:72px;fill:white;">posibility t<tspan x="403.77px 447.047px " y="362.734px 362.734px ">o </tspan>ge<tspan x="552.832px 572.52px 594.738px 638.719px 677.953px " y="362.734px 362.734px 362.734px 362.734px 362.734px ">t qua</tspan>lif<tspan x="779.871px 797.801px " y="362.734px 362.734px ">ic</tspan>ations.</text>
                    <text x="72px" y="442.101px" style="font-family:'Futura-Medium', 'Futura', sans-serif;font-weight:500;font-size:72px;fill:white;">But most of t<tspan x="475.066px 514.547px " y="442.101px 442.101px ">he</tspan>m did no<tspan x="843.223px " y="442.101px ">t</tspan></text>
                    <text x="72px" y="521.468px" style="font-family:'Futura-Medium', 'Futura', sans-serif;font-weight:500;font-size:72px;fill:white;">continue donat<tspan x="556.875px 596.707px " y="521.468px 521.468px ">e </tspan>blood.</text>
                </g>
                <g transform="matrix(0.703178,0,0,0.677211,215.192,1758.71)">
                    <text x="150.223px" y="204px" style="font-family:'Futura-Medium', 'Futura', sans-serif;font-weight:500;font-size:72px;fill:none;">As t<tspan x="276.117px 315.598px " y="204px 204px ">he</tspan> countr<tspan x="583.734px 622.863px " y="204px 204px ">y </tspan>has t<tspan x="800.297px 839.777px " y="204px 204px ">he</tspan> most</text>
                    <text x="178.365px" y="283.367px" style="font-family:'Futura-Medium', 'Futura', sans-serif;font-weight:500;font-size:72px;fill:none;">population, China has no<tspan x="1003.13px " y="283.367px ">t</tspan></text>
                    <text x="156.902px" y="362.734px" style="font-family:'Futura-Medium', 'Futura', sans-serif;font-weight:500;font-size:72px;fill:none;">enough r<tspan x="449.965px 493.137px " y="362.734px 362.734px ">at</tspan>io of donor<tspan x="876.375px 898.594px 920.813px 941.941px 981.422px " y="362.734px 362.734px 362.734px 362.734px 362.734px ">, tha</tspan>t</text>
                    <text x="185.572px" y="442.101px" style="font-family:'Futura-Medium', 'Futura', sans-serif;font-weight:500;font-size:72px;fill:none;">means t<tspan x="437.572px 477.053px " y="442.101px 442.101px ">he</tspan> r<tspan x="565.541px 605.373px 649.354px 688.588px 706.518px 732.955px 772.787px " y="442.101px 442.101px 442.101px 442.101px 442.101px 442.101px 442.101px ">equirem</tspan>ent of</text>
                    <text x="72px" y="521.468px" style="font-family:'Futura-Medium', 'Futura', sans-serif;font-weight:500;font-size:72px;fill:none;">blood will be a ser<tspan x="684.457px 702.387px " y="521.468px 521.468px ">io</tspan>us pr<tspan x="905.801px 949.078px " y="521.468px 521.468px ">ob</tspan>lem.</text>
                    <text x="150.223px" y="204px" style="font-family:'Futura-Medium', 'Futura', sans-serif;font-weight:500;font-size:72px;fill:white;">As t<tspan x="276.117px 315.598px " y="204px 204px ">he</tspan> countr<tspan x="583.734px 622.863px " y="204px 204px ">y </tspan>has t<tspan x="800.297px 839.777px " y="204px 204px ">he</tspan> most</text>
                    <text x="178.365px" y="283.367px" style="font-family:'Futura-Medium', 'Futura', sans-serif;font-weight:500;font-size:72px;fill:white;">population, China has no<tspan x="1003.13px " y="283.367px ">t</tspan></text>
                    <text x="156.902px" y="362.734px" style="font-family:'Futura-Medium', 'Futura', sans-serif;font-weight:500;font-size:72px;fill:white;">enough r<tspan x="449.965px 493.137px " y="362.734px 362.734px ">at</tspan>io of donor<tspan x="876.375px 898.594px 920.813px 941.941px 981.422px " y="362.734px 362.734px 362.734px 362.734px 362.734px ">, tha</tspan>t</text>
                    <text x="185.572px" y="442.101px" style="font-family:'Futura-Medium', 'Futura', sans-serif;font-weight:500;font-size:72px;fill:white;">means t<tspan x="437.572px 477.053px " y="442.101px 442.101px ">he</tspan> r<tspan x="565.541px 605.373px 649.354px 688.588px 706.518px 732.955px 772.787px " y="442.101px 442.101px 442.101px 442.101px 442.101px 442.101px 442.101px ">equirem</tspan>ent of</text>
                    <text x="72px" y="521.468px" style="font-family:'Futura-Medium', 'Futura', sans-serif;font-weight:500;font-size:72px;fill:white;">blood will be a ser<tspan x="684.457px 702.387px " y="521.468px 521.468px ">io</tspan>us pr<tspan x="905.801px 949.078px " y="521.468px 521.468px ">ob</tspan>lem.</text>
                </g>
                <g transform="matrix(0.787518,0,0,0.758437,394.366,641.732)">
                    <text x="72px" y="204px" style="font-family:'Futura-Medium', 'Futura', sans-serif;font-weight:500;font-size:80.028px;fill:none;">L<tspan x="110.842px 170.121px " y="204px 204px ">AP</tspan>SED</text>
                    <text x="72px" y="283.367px" style="font-family:'Futura-Medium', 'Futura', sans-serif;font-weight:500;font-size:80.028px;fill:none;">DON<tspan x="269.726px 341.236px " y="283.367px 283.367px ">OR</tspan></text>
                    <text x="72px" y="204px" style="font-family:'Futura-Medium', 'Futura', sans-serif;font-weight:500;font-size:80.028px;fill:white;">L<tspan x="110.842px 170.121px " y="204px 204px ">AP</tspan>SED</text>
                    <text x="72px" y="283.367px" style="font-family:'Futura-Medium', 'Futura', sans-serif;font-weight:500;font-size:80.028px;fill:white;">DON<tspan x="269.726px 341.236px " y="283.367px 283.367px ">OR</tspan></text>
                </g>
                <g transform="matrix(0.787518,0,0,0.758437,669.21,241.236)">
                    <text x="72px" y="283.367px" style="font-family:'Futura-Medium', 'Futura', sans-serif;font-weight:500;font-size:80.028px;fill:none;">DON<tspan x="269.726px 341.236px " y="283.367px 283.367px ">OR</tspan></text>
                    <text x="72px" y="283.367px" style="font-family:'Futura-Medium', 'Futura', sans-serif;font-weight:500;font-size:80.028px;fill:white;">DON<tspan x="269.726px 341.236px " y="283.367px 283.367px ">OR</tspan></text>
                </g>
                <g transform="matrix(0.207576,0,0,0.199911,344.402,76.1536)">
                    <text x="664px" y="778px" style="font-family:'Futura-Medium', 'Futura', sans-serif;font-weight:500;font-size:200px;fill:none;">less t<tspan x="1107.16px 1216.83px " y="778px 778px ">ha</tspan>n7000t</text>
                    <text x="664px" y="778px" style="font-family:'Futura-Medium', 'Futura', sans-serif;font-weight:500;font-size:200px;fill:rgb(204,58,11);">less t<tspan x="1107.16px 1216.83px " y="778px 778px ">ha</tspan>n7000t</text>
                </g>
                <g transform="matrix(0.787518,0,0,0.444415,461.486,421.813)">
                    <rect x="55" y="2291" width="67" height="470" style="fill:rgb(204,58,11);"/>
                </g>
                <g transform="matrix(0.787518,0,0,0.626114,626.606,-79.8586)">
                    <rect x="55" y="2291" width="67" height="470" style="fill:rgb(204,58,11);"/>
                </g>
                <g transform="matrix(0.787518,0,0,0.840735,794.606,-672.429)">
                    <rect x="55" y="2291" width="67" height="470" style="fill:rgb(204,58,11);"/>
                </g>
                <g transform="matrix(0.787518,0,0,0.901122,962.606,-839.155)">
                    <rect x="55" y="2291" width="67" height="470" style="fill:rgb(204,58,11);"/>
                </g>
                <g transform="matrix(0.787518,0,0,0.960149,1130.61,-1002.13)">
                    <rect x="55" y="2291" width="67" height="470" style="fill:rgb(204,58,11);"/>
                </g>
                <g transform="matrix(0.464904,0,0,0.447736,216.415,475.373)">
                    <text x="564px" y="2731.38px" style="font-family:'Futura-Medium', 'Futura', sans-serif;font-weight:500;font-size:72px;fill:none;">C<tspan x="615.961px 668.766px 690px 751.207px " y="2731.38px 2731.38px 2731.38px 2731.38px ">HINA</tspan></text>
                    <text x="564px" y="2731.38px" style="font-family:'Futura-Medium', 'Futura', sans-serif;font-weight:500;font-size:72px;fill:rgb(204,58,11);">C<tspan x="615.961px 668.766px 690px 751.207px " y="2731.38px 2731.38px 2731.38px 2731.38px ">HINA</tspan></text>
                </g>
                <g transform="matrix(0.464904,0,0,0.447736,380.229,475.373)">
                    <text x="564px" y="2731.38px" style="font-family:'Futura-Medium', 'Futura', sans-serif;font-weight:500;font-size:72px;fill:none;">J<tspan x="591.668px 645px 679.91px 733.242px " y="2731.38px 2731.38px 2731.38px 2731.38px ">APAN</tspan></text>
                    <text x="564px" y="2731.38px" style="font-family:'Futura-Medium', 'Futura', sans-serif;font-weight:500;font-size:72px;fill:rgb(204,58,11);">J<tspan x="591.668px 645px 679.91px 733.242px " y="2731.38px 2731.38px 2731.38px 2731.38px ">APAN</tspan></text>
                </g>
                <g transform="matrix(0.464904,0,0,0.447736,532.21,475.373)">
                    <text x="564px" y="2731.38px" style="font-family:'Futura-Medium', 'Futura', sans-serif;font-weight:500;font-size:72px;fill:none;">S.K<tspan x="672.809px 737.145px " y="2731.38px 2731.38px ">OR</tspan>EA</text>
                    <text x="564px" y="2731.38px" style="font-family:'Futura-Medium', 'Futura', sans-serif;font-weight:500;font-size:72px;fill:rgb(204,58,11);">S.K<tspan x="672.809px 737.145px " y="2731.38px 2731.38px ">OR</tspan>EA</text>
                </g>
                <g transform="matrix(0.464904,0,0,0.447736,749.881,475.373)">
                    <text x="564px" y="2731.38px" style="font-family:'Futura-Medium', 'Futura', sans-serif;font-weight:500;font-size:72px;fill:none;">UK</text>
                    <text x="564px" y="2731.38px" style="font-family:'Futura-Medium', 'Futura', sans-serif;font-weight:500;font-size:72px;fill:rgb(204,58,11);">UK</text>
                </g>
                <g transform="matrix(0.464904,0,0,0.447736,900.297,475.373)">
                    <text x="564px" y="2731.38px" style="font-family:'Futura-Medium', 'Futura', sans-serif;font-weight:500;font-size:72px;fill:none;">US<tspan x="658.605px " y="2731.38px ">A</tspan></text>
                    <text x="564px" y="2731.38px" style="font-family:'Futura-Medium', 'Futura', sans-serif;font-weight:500;font-size:72px;fill:rgb(204,58,11);">US<tspan x="658.605px " y="2731.38px ">A</tspan></text>
                </g>
                <g transform="matrix(0.695586,0,0,0.635741,82.51,-39.0096)">
                    <text x="320px" y="2700.38px" style="font-family:'Futura-Medium', 'Futura', sans-serif;font-weight:500;font-size:72px;fill:none;">2006</text>
                    <text x="320px" y="2700.38px" style="font-family:'Futura-Medium', 'Futura', sans-serif;font-weight:500;font-size:72px;fill:rgb(204,58,11);">2006</text>
                </g>
                <g transform="matrix(0.398756,0,0,0.364449,178.849,720.305)">
                    <text x="320px" y="2700.38px" style="font-family:'Futura-Medium', 'Futura', sans-serif;font-weight:500;font-size:48px;fill:rgb(204,58,11);">r<tspan x="337.422px 366.204px " y="2700.38px 2700.38px ">at</tspan>io of donor</text>
                </g>
                <g transform="matrix(0.787518,0,0,0.758437,25.9881,-327.645)">
                    <rect x="529" y="2597" width="1123" height="10" style="fill:rgb(204,58,11);"/>
                </g>
            </g>
        </g>
    </g>
</svg>
